<svg width="40" height="40" viewBox="0 0 40 40" fill="none" xmlns="http://www.w3.org/2000/svg">
<rect width="40" height="40" rx="5" fill="#0077B5"/>
<path d="M14.1531 15.996C15.1601 15.996 15.9765 15.1796 15.9765 14.1726C15.9765 13.1656 15.1601 12.3493 14.1531 12.3493C13.1461 12.3493 12.3298 13.1656 12.3298 14.1726C12.3298 15.1796 13.1461 15.996 14.1531 15.996Z" fill="white"/>
<path d="M17.6965 17.3789V27.4947H20.8373V22.4922C20.8373 21.1722 21.0856 19.8939 22.7223 19.8939C24.3365 19.8939 24.3565 21.4031 24.3565 22.5756V27.4956H27.499V21.9481C27.499 19.2231 26.9123 17.1289 23.7273 17.1289C22.1981 17.1289 21.1731 17.9681 20.754 18.7622H20.7115V17.3789H17.6965ZM12.5781 17.3789H15.724V27.4947H12.5781V17.3789Z" fill="white"/>
</svg>
