<svg width="14" height="14" viewBox="0 0 14 14" fill="none" xmlns="http://www.w3.org/2000/svg">
<path d="M10.9375 5.14062H9.95211V2.89215C9.95211 1.29741 8.62734 0 6.99899 0C5.37064 0 4.04586 1.29741 4.04586 2.89215V5.14062H3.0625C2.15786 5.14062 1.42188 5.87661 1.42188 6.78125V12.3594C1.42188 13.264 2.15786 14 3.0625 14H10.9375C11.8421 14 12.5781 13.264 12.5781 12.3594V6.78125C12.5781 5.87661 11.8421 5.14062 10.9375 5.14062ZM5.13961 2.89215C5.13961 1.9005 5.97373 1.09375 6.99899 1.09375C8.02424 1.09375 8.85836 1.9005 8.85836 2.89215V5.14062H5.13961V2.89215ZM11.4844 12.3594C11.4844 12.6609 11.239 12.9062 10.9375 12.9062H3.0625C2.76095 12.9062 2.51562 12.6609 2.51562 12.3594V6.78125C2.51562 6.4797 2.76095 6.23438 3.0625 6.23438H10.9375C11.239 6.23438 11.4844 6.4797 11.4844 6.78125V12.3594Z" fill="white"/>
<path d="M7 7.82031C6.44123 7.82031 5.98828 8.27326 5.98828 8.83203C5.98828 9.18881 6.17312 9.50223 6.45211 9.68237V10.8828C6.45211 11.1848 6.69695 11.4297 6.99899 11.4297C7.301 11.4297 7.54586 11.1848 7.54586 10.8828V9.68365C7.82597 9.50373 8.01172 9.18969 8.01172 8.83203C8.01172 8.27326 7.55877 7.82031 7 7.82031Z" fill="white"/>
</svg>
