<svg width="20" height="20" viewBox="0 0 20 20" fill="none" xmlns="http://www.w3.org/2000/svg">
<rect width="20" height="20" rx="4" fill="#78EB54"/>
<path d="M9.42197 16.6403H12.185C12.3006 16.6403 12.3931 16.7202 12.3931 16.8201C12.3931 16.9201 12.3006 17 12.185 17H4.20809C4.09249 17 4 16.9201 4 16.8201C4 16.7202 4.09249 16.6403 4.20809 16.6403H5.24856V4.21913C5.24856 3.73947 4.79769 3.35974 4.25434 3.35974C4.13873 3.35974 4.04624 3.2798 4.04624 3.17987C4.04624 3.07994 4.13873 3 4.25434 3H9.42197V16.6403Z" fill="#191919"/>
<path d="M11.5259 3V12.733C14.023 12.5832 15.9999 10.4647 15.9999 7.86652C15.9999 5.26838 14.023 3.14989 11.5259 3Z" fill="#191919"/>
</svg>
