<svg width="12" height="12" viewBox="0 0 12 12" fill="none" xmlns="http://www.w3.org/2000/svg">
<path d="M11.2189 3.84492C11.213 3.40312 11.1303 2.96571 10.9745 2.55226C10.8393 2.20351 10.6329 1.88679 10.3685 1.62233C10.104 1.35786 9.78729 1.15147 9.43855 1.01634C9.03041 0.863133 8.59923 0.78029 8.16338 0.771341C7.60221 0.746258 7.4243 0.739258 5.9998 0.739258C4.5753 0.739258 4.39271 0.739258 3.83563 0.771341C3.39997 0.780356 2.969 0.863198 2.56105 1.01634C2.21225 1.15138 1.89548 1.35773 1.631 1.62221C1.36652 1.88669 1.16017 2.20346 1.02513 2.55226C0.871615 2.96008 0.788952 3.39116 0.780714 3.82684C0.75563 4.38859 0.748047 4.56651 0.748047 5.99101C0.748047 7.41551 0.748047 7.59751 0.780714 8.15517C0.789464 8.59151 0.871713 9.02201 1.02513 9.43092C1.16039 9.77962 1.3669 10.0963 1.63147 10.3606C1.89603 10.625 2.21283 10.8313 2.56163 10.9663C2.96847 11.1256 3.39951 11.2144 3.83621 11.2288C4.39796 11.2538 4.57588 11.2614 6.00038 11.2614C7.42488 11.2614 7.60746 11.2614 8.16455 11.2288C8.60039 11.2202 9.03159 11.1375 9.43971 10.9843C9.78837 10.8491 10.105 10.6426 10.3695 10.3782C10.6339 10.1137 10.8403 9.79708 10.9756 9.44842C11.129 9.04009 11.2113 8.60959 11.22 8.17267C11.2451 7.61151 11.2527 7.43359 11.2527 6.00851C11.2515 4.58401 11.2515 4.40317 11.2189 3.84492ZM5.9963 8.68484C4.50646 8.68484 3.29955 7.47792 3.29955 5.98809C3.29955 4.49826 4.50646 3.29134 5.9963 3.29134C6.71152 3.29134 7.39745 3.57546 7.90319 4.0812C8.40893 4.58694 8.69305 5.27287 8.69305 5.98809C8.69305 6.70331 8.40893 7.38924 7.90319 7.89498C7.39745 8.40072 6.71152 8.68484 5.9963 8.68484ZM8.80038 3.82042C8.71778 3.8205 8.63597 3.80429 8.55965 3.77271C8.48332 3.74114 8.41397 3.69482 8.35556 3.63641C8.29715 3.57801 8.25083 3.50865 8.21926 3.43233C8.18768 3.356 8.17147 3.27419 8.17155 3.19159C8.17155 3.10905 8.1878 3.02732 8.21939 2.95106C8.25098 2.8748 8.29728 2.80551 8.35564 2.74714C8.41401 2.68878 8.4833 2.64248 8.55956 2.61089C8.63581 2.57931 8.71755 2.56305 8.80009 2.56305C8.88263 2.56305 8.96436 2.57931 9.04062 2.61089C9.11688 2.64248 9.18617 2.68878 9.24454 2.74714C9.3029 2.80551 9.3492 2.8748 9.38078 2.95106C9.41237 3.02732 9.42863 3.10905 9.42863 3.19159C9.42863 3.53926 9.14746 3.82042 8.80038 3.82042Z" fill="white"/>
</svg>
