<svg width="16" height="16" viewBox="0 0 16 16" fill="none" xmlns="http://www.w3.org/2000/svg">
<g clip-path="url(#clip0_707_1990)">
<path fill-rule="evenodd" clip-rule="evenodd" d="M7.67434 2.9595C5.06901 2.9595 2.95901 5.06883 2.95901 7.66883C2.95901 10.2688 5.06901 12.3775 7.67434 12.3775C8.97434 12.3775 10.1497 11.8535 11.003 11.0042C11.4432 10.5675 11.7924 10.0479 12.0304 9.47539C12.2684 8.90288 12.3905 8.28885 12.3897 7.66883C12.3897 5.06883 10.2797 2.9595 7.67434 2.9595ZM1.33301 7.66883C1.33301 4.16883 4.17301 1.3335 7.67434 1.3335C11.1757 1.3335 14.0157 4.16883 14.0157 7.66883C14.0175 9.072 13.5514 10.4357 12.691 11.5442L14.4277 13.2788C14.5081 13.3531 14.5728 13.4429 14.6177 13.5427C14.6627 13.6426 14.687 13.7505 14.6892 13.86C14.6914 13.9695 14.6715 14.0783 14.6306 14.1799C14.5898 14.2815 14.5289 14.3738 14.4515 14.4513C14.3741 14.5287 14.2818 14.5898 14.1803 14.6308C14.0787 14.6717 13.9699 14.6918 13.8605 14.6897C13.751 14.6876 13.643 14.6634 13.5431 14.6186C13.4432 14.5737 13.3534 14.5092 13.279 14.4288L11.539 12.6915C10.4313 13.5441 9.0722 14.0055 7.67434 14.0035C4.17301 14.0035 1.33301 11.1682 1.33301 7.66883Z" fill="#191919"/>
</g>
<defs>
<clipPath id="clip0_707_1990">
<rect width="16" height="16" fill="white"/>
</clipPath>
</defs>
</svg>
