<svg width="26" height="26" viewBox="0 0 26 26" fill="none" xmlns="http://www.w3.org/2000/svg">
<path d="M3.25 12.1136V13.8864C3.25 14.7839 2.52246 15.5114 1.625 15.5114C0.727543 15.5114 0 14.7839 0 13.8864V12.1136C0 11.2162 0.727543 10.4886 1.625 10.4886C2.52246 10.4886 3.25 11.2162 3.25 12.1136Z" fill="#0066D9"/>
<path d="M22.7507 12.1599C22.7502 12.1445 22.75 12.1291 22.75 12.1136C22.75 11.2162 23.4775 10.4886 24.375 10.4886C25.2725 10.4886 26 11.2162 26 12.1136C26 12.1291 25.9998 12.1445 25.9993 12.1599H26V13.9326H25.9993C25.975 14.8087 25.257 15.5114 24.375 15.5114C23.493 15.5114 22.7751 14.8087 22.7507 13.9326H22.75V12.1598H22.7507V12.1599Z" fill="#4285F4"/>
<path d="M8.86328 17.4318V19.2045C8.86328 20.102 8.13579 20.8295 7.23828 20.8295C6.34077 20.8295 5.61328 20.102 5.61328 19.2045V17.4317C5.61328 16.5343 6.34082 15.8067 7.23828 15.8067C8.13574 15.8067 8.86328 16.5343 8.86328 17.4317V17.4318ZM8.86328 6.79541V12.5937H8.86288C8.84327 13.4741 8.1234 14.1818 7.23828 14.1818C6.35316 14.1818 5.63334 13.4741 5.61374 12.5937H5.61328V6.79541C5.61328 5.89795 6.34082 5.17041 7.23828 5.17041C8.13574 5.17041 8.86328 5.89795 8.86328 6.79541Z" fill="#EA4335"/>
<path d="M17.1367 8.56813C17.1367 9.46559 17.8642 10.1931 18.7617 10.1931C19.6592 10.1931 20.3867 9.46559 20.3867 8.56813V6.79541C20.3867 5.89795 19.6592 5.17041 18.7617 5.17041C17.8643 5.17041 17.1367 5.89795 17.1367 6.79541V8.56813Z" fill="#34A853"/>
<path d="M11.375 3.39777C11.375 4.29518 12.1025 5.02277 13 5.02277C13.8975 5.02277 14.625 4.29518 14.625 3.39777V1.625C14.625 0.727543 13.8975 0 13 0C12.1025 0 11.375 0.727543 11.375 1.625V3.39777ZM11.375 22.6022C11.375 21.7048 12.1025 20.9772 13 20.9772C13.8975 20.9772 14.625 21.7048 14.625 22.6022V24.375C14.625 25.2725 13.8975 26 13 26C12.1025 26 11.375 25.2725 11.375 24.375V22.6022Z" fill="#FAB908"/>
<path d="M17.1367 13.4434C17.1367 12.5459 17.8642 11.8184 18.7617 11.8184C19.6592 11.8184 20.3867 12.5459 20.3867 13.4434V19.2047C20.3867 20.1022 19.6592 20.8297 18.7617 20.8297C17.8643 20.8297 17.1367 20.1022 17.1367 19.2047V13.4434Z" fill="#34A853"/>
<path d="M14.625 8.27283V17.7273C14.625 18.6248 13.8975 19.3523 13 19.3523C12.1025 19.3523 11.375 18.6248 11.375 17.7273V8.27283C11.375 7.37532 12.1025 6.64783 13 6.64783C13.8975 6.64783 14.625 7.37532 14.625 8.27283Z" fill="#FAB908"/>
</svg>
