<svg width="12" height="14" viewBox="0 0 12 14" fill="none" xmlns="http://www.w3.org/2000/svg">
<path d="M9.9375 5.14062H8.95211V2.89215C8.95211 1.29741 7.62734 0 5.99899 0C4.37064 0 3.04586 1.29741 3.04586 2.89215V5.14062H2.0625C1.15786 5.14062 0.421875 5.87661 0.421875 6.78125V12.3594C0.421875 13.264 1.15786 14 2.0625 14H9.9375C10.8421 14 11.5781 13.264 11.5781 12.3594V6.78125C11.5781 5.87661 10.8421 5.14062 9.9375 5.14062ZM4.13961 2.89215C4.13961 1.9005 4.97373 1.09375 5.99899 1.09375C7.02424 1.09375 7.85836 1.9005 7.85836 2.89215V5.14062H4.13961V2.89215ZM10.4844 12.3594C10.4844 12.6609 10.239 12.9062 9.9375 12.9062H2.0625C1.76095 12.9062 1.51562 12.6609 1.51562 12.3594V6.78125C1.51562 6.4797 1.76095 6.23438 2.0625 6.23438H9.9375C10.239 6.23438 10.4844 6.4797 10.4844 6.78125V12.3594Z" fill="#191919"/>
<path d="M6 7.82031C5.44123 7.82031 4.98828 8.27326 4.98828 8.83203C4.98828 9.18881 5.17312 9.50223 5.45211 9.68237V10.8828C5.45211 11.1848 5.69695 11.4297 5.99899 11.4297C6.301 11.4297 6.54586 11.1848 6.54586 10.8828V9.68365C6.82597 9.50373 7.01172 9.18969 7.01172 8.83203C7.01172 8.27326 6.55877 7.82031 6 7.82031Z" fill="#191919"/>
</svg>
