<svg width="16" height="16" viewBox="0 0 16 16" fill="none" xmlns="http://www.w3.org/2000/svg">
<g clip-path="url(#clip0_707_2014)">
<path d="M6.82159 14.9879C6.80277 15.442 7.35336 15.682 7.67806 15.3596L9.26865 13.7691C10.1839 12.8538 10.6639 11.6373 10.6687 10.4067C9.44277 11.3549 8.10865 12.2373 6.90395 12.8867L6.82159 14.9879ZM0.993358 9.15965L3.09453 9.0773C3.74395 7.87024 4.6263 6.53847 5.57453 5.31259C4.3463 5.3173 3.12983 5.79259 2.21218 6.71024L0.61924 8.30318C0.296887 8.62553 0.53924 9.17612 0.993358 9.15965ZM7.911 3.34318C6.09218 5.162 4.00512 8.07259 3.00512 10.3244C2.94431 10.4638 2.92704 10.6185 2.95559 10.7679C2.98414 10.9174 3.05718 11.0547 3.16512 11.162L4.81924 12.8161C4.92649 12.9241 5.06385 12.9971 5.21332 13.0257C5.36279 13.0542 5.5174 13.0369 5.65689 12.9761C7.90865 11.9761 10.8192 9.88671 12.6381 8.07024C13.5322 7.17377 14.2075 6.04436 14.6828 4.81612L11.1651 1.30083C10.0404 1.73141 8.87571 2.37847 7.911 3.34318ZM11.8451 6.43494C11.1981 7.082 10.1557 7.04436 9.5463 6.43494C8.911 5.79965 8.911 4.77141 9.5463 4.13612C10.1816 3.50083 11.2098 3.50083 11.8451 4.13612C12.1496 4.44113 12.3207 4.85453 12.3207 5.28553C12.3207 5.71654 12.1496 6.12993 11.8451 6.43494ZM14.975 0.453062C14.2745 0.507179 13.0197 0.665297 11.6543 1.12365L12.379 1.84836L14.8567 4.326C15.3155 2.96083 15.4731 1.70624 15.5277 1.00577C15.5337 0.93164 15.5235 0.857101 15.4978 0.787308C15.4721 0.717514 15.4316 0.654132 15.379 0.601547C15.3264 0.548961 15.263 0.508427 15.1932 0.482749C15.1234 0.457071 15.0489 0.446861 14.9748 0.452826L14.975 0.453062ZM2.29689 13.8705L3.32748 12.8399C3.34934 12.818 3.36668 12.7921 3.37851 12.7635C3.39034 12.7349 3.39643 12.7043 3.39643 12.6734C3.39643 12.6425 3.39034 12.6119 3.37851 12.5833C3.36668 12.5548 3.34934 12.5288 3.32748 12.5069C3.30561 12.4851 3.27966 12.4677 3.2511 12.4559C3.22253 12.4441 3.19192 12.438 3.161 12.438C3.13009 12.438 3.09947 12.4441 3.07091 12.4559C3.04235 12.4677 3.0164 12.4851 2.99453 12.5069L1.96395 13.5375C1.94147 13.5592 1.92355 13.5852 1.91122 13.6139C1.89888 13.6426 1.89239 13.6735 1.89212 13.7047C1.89185 13.736 1.8978 13.767 1.90964 13.7959C1.92147 13.8248 1.93894 13.8511 1.96103 13.8732C1.98312 13.8952 2.00939 13.9127 2.03831 13.9245C2.06723 13.9364 2.09821 13.9423 2.12945 13.9421C2.16069 13.9418 2.19157 13.9353 2.22028 13.923C2.24898 13.9106 2.27495 13.8927 2.29665 13.8702L2.29689 13.8705ZM2.02042 12.1636C1.99856 12.1418 1.97261 12.1244 1.94405 12.1126C1.91549 12.1007 1.88487 12.0946 1.85395 12.0946C1.82302 12.0946 1.79241 12.1007 1.76384 12.1126C1.73528 12.1244 1.70933 12.1418 1.68748 12.1636L0.589828 13.2611C0.567983 13.2829 0.550657 13.3089 0.53884 13.3374C0.527023 13.366 0.520946 13.3966 0.520957 13.4275C0.520968 13.4584 0.527066 13.489 0.538903 13.5176C0.550741 13.5461 0.568085 13.572 0.589946 13.5939C0.611807 13.6157 0.637757 13.6331 0.666314 13.6449C0.694872 13.6567 0.725477 13.6628 0.756382 13.6628C0.787288 13.6627 0.817888 13.6566 0.846437 13.6448C0.874986 13.633 0.900924 13.6156 0.92277 13.5938L2.02042 12.4964C2.06453 12.4522 2.08931 12.3924 2.08931 12.33C2.08931 12.2676 2.06453 12.2078 2.02042 12.1636ZM3.42206 13.7302L2.00536 15.1467C1.98288 15.1684 1.96496 15.1944 1.95263 15.2231C1.9403 15.2518 1.93381 15.2827 1.93353 15.3139C1.93326 15.3452 1.93922 15.3761 1.95105 15.4051C1.96288 15.434 1.98035 15.4602 2.00244 15.4823C2.02453 15.5044 2.0508 15.5219 2.07972 15.5337C2.10864 15.5456 2.13962 15.5515 2.17086 15.5512C2.20211 15.551 2.23298 15.5445 2.26169 15.5321C2.29039 15.5198 2.31636 15.5019 2.33806 15.4794L3.75453 14.0629C3.77753 14.0414 3.79596 14.0154 3.80873 13.9866C3.82149 13.9578 3.82834 13.9267 3.82885 13.8951C3.82936 13.8636 3.82353 13.8323 3.81171 13.8031C3.79988 13.7738 3.78231 13.7473 3.76002 13.725C3.73774 13.7027 3.7112 13.6851 3.68198 13.6732C3.65276 13.6614 3.62146 13.6556 3.58993 13.656C3.55841 13.6565 3.5273 13.6634 3.49847 13.6761C3.46963 13.6888 3.44365 13.7073 3.42206 13.7302Z" fill="#191919"/>
</g>
<defs>
<clipPath id="clip0_707_2014">
<rect width="16" height="16" fill="white"/>
</clipPath>
</defs>
</svg>
