<svg width="40" height="40" viewBox="0 0 40 40" fill="none" xmlns="http://www.w3.org/2000/svg">
<rect width="40" height="40" rx="5" fill="url(#paint0_linear_633_66)"/>
<path d="M27.4559 16.9213C27.4475 16.2902 27.3293 15.6653 27.1067 15.0747C26.9137 14.5765 26.6188 14.124 26.241 13.7462C25.8632 13.3684 25.4107 13.0736 24.9125 12.8805C24.3295 12.6616 23.7135 12.5433 23.0909 12.5305C22.2892 12.4947 22.035 12.4847 20 12.4847C17.965 12.4847 17.7042 12.4847 16.9084 12.5305C16.286 12.5434 15.6703 12.6617 15.0875 12.8805C14.5892 13.0734 14.1367 13.3682 13.7589 13.746C13.3811 14.1239 13.0863 14.5764 12.8934 15.0747C12.6741 15.6573 12.556 16.2731 12.5442 16.8955C12.5084 17.698 12.4975 17.9522 12.4975 19.9872C12.4975 22.0222 12.4975 22.2822 12.5442 23.0788C12.5567 23.7022 12.6742 24.3172 12.8934 24.9013C13.0866 25.3995 13.3816 25.8518 13.7596 26.2295C14.1375 26.6072 14.5901 26.9018 15.0884 27.0947C15.6696 27.3223 16.2853 27.4492 16.9092 27.4697C17.7117 27.5055 17.9659 27.5163 20.0009 27.5163C22.0359 27.5163 22.2967 27.5163 23.0925 27.4697C23.7152 27.4574 24.3312 27.3393 24.9142 27.1205C25.4123 26.9272 25.8646 26.6323 26.2424 26.2545C26.6202 25.8768 26.9151 25.4244 27.1084 24.9263C27.3275 24.343 27.445 23.728 27.4575 23.1038C27.4934 22.3022 27.5042 22.048 27.5042 20.0122C27.5025 17.9772 27.5025 17.7188 27.4559 16.9213ZM19.995 23.8355C17.8667 23.8355 16.1425 22.1113 16.1425 19.983C16.1425 17.8547 17.8667 16.1305 19.995 16.1305C21.0168 16.1305 21.9967 16.5364 22.7192 17.2589C23.4416 17.9814 23.8475 18.9613 23.8475 19.983C23.8475 21.0048 23.4416 21.9847 22.7192 22.7071C21.9967 23.4296 21.0168 23.8355 19.995 23.8355ZM24.0009 16.8863C23.8829 16.8865 23.766 16.8633 23.657 16.8182C23.5479 16.7731 23.4488 16.7069 23.3654 16.6235C23.282 16.54 23.2158 16.441 23.1707 16.3319C23.1256 16.2229 23.1024 16.106 23.1025 15.988C23.1025 15.8701 23.1258 15.7533 23.1709 15.6444C23.216 15.5355 23.2821 15.4365 23.3655 15.3531C23.4489 15.2697 23.5479 15.2036 23.6568 15.1584C23.7658 15.1133 23.8825 15.0901 24.0004 15.0901C24.1184 15.0901 24.2351 15.1133 24.3441 15.1584C24.453 15.2036 24.552 15.2697 24.6354 15.3531C24.7187 15.4365 24.7849 15.5355 24.83 15.6444C24.8751 15.7533 24.8984 15.8701 24.8984 15.988C24.8984 16.4847 24.4967 16.8863 24.0009 16.8863Z" fill="white"/>
<path d="M19.9941 22.4855C21.3762 22.4855 22.4966 21.3651 22.4966 19.983C22.4966 18.6009 21.3762 17.4805 19.9941 17.4805C18.612 17.4805 17.4916 18.6009 17.4916 19.983C17.4916 21.3651 18.612 22.4855 19.9941 22.4855Z" fill="white"/>
<defs>
<linearGradient id="paint0_linear_633_66" x1="0" y1="0" x2="39.4118" y2="39.4118" gradientUnits="userSpaceOnUse">
<stop stop-color="#405DE6"/>
<stop offset="0.0187741" stop-color="#3A52C4"/>
<stop offset="0.091624" stop-color="#833AB4"/>
<stop offset="0.304378" stop-color="#C13584"/>
<stop offset="0.444285" stop-color="#E1306C"/>
<stop offset="0.603923" stop-color="#FF4545" stop-opacity="0.96"/>
<stop offset="0.744923" stop-color="#F56040"/>
<stop offset="0.939973" stop-color="#FCAF45"/>
<stop offset="1" stop-color="#FFDC80"/>
</linearGradient>
</defs>
</svg>
