<svg width="26" height="26" viewBox="0 0 26 26" fill="none" xmlns="http://www.w3.org/2000/svg">
<rect width="26" height="26" rx="5" fill="url(#paint0_linear_956_788)"/>
<path d="M13 6C11.1004 6 10.8615 6.00875 10.1151 6.042C9.36875 6.077 8.86037 6.19425 8.415 6.3675C7.94761 6.54278 7.52437 6.81847 7.17513 7.17513C6.81847 7.52437 6.54278 7.94761 6.3675 8.415C6.19425 8.8595 6.07613 9.36875 6.042 10.1125C6.00875 10.8606 6 11.0986 6 13.0009C6 14.9014 6.00875 15.1394 6.042 15.8857C6.077 16.6313 6.19425 17.1396 6.3675 17.585C6.54688 18.0452 6.78575 18.4355 7.17513 18.8249C7.56363 19.2142 7.95388 19.454 8.41412 19.6325C8.86037 19.8057 9.36788 19.9239 10.1134 19.958C10.8606 19.9913 11.0986 20 13 20C14.9014 20 15.1385 19.9913 15.8857 19.958C16.6304 19.923 17.1405 19.8057 17.5859 19.6325C18.0529 19.4571 18.4759 19.1814 18.8249 18.8249C19.2142 18.4355 19.4531 18.0452 19.6325 17.585C19.8049 17.1396 19.923 16.6313 19.958 15.8857C19.9913 15.1394 20 14.9014 20 13C20 11.0986 19.9913 10.8606 19.958 10.1134C19.923 9.36875 19.8049 8.8595 19.6325 8.415C19.4572 7.94761 19.1815 7.52437 18.8249 7.17513C18.4756 6.81847 18.0524 6.54278 17.585 6.3675C17.1388 6.19425 16.6295 6.07613 15.8849 6.042C15.1376 6.00875 14.9005 6 12.9983 6H13ZM12.3726 7.26175H13.0009C14.8699 7.26175 15.0912 7.26788 15.8289 7.302C16.5114 7.33263 16.8824 7.44725 17.1291 7.54262C17.4555 7.6695 17.6891 7.82175 17.9341 8.06675C18.1791 8.31175 18.3305 8.5445 18.4574 8.87175C18.5536 9.11762 18.6674 9.48863 18.698 10.1711C18.7321 10.9088 18.7391 11.1301 18.7391 12.9983C18.7391 14.8664 18.7321 15.0886 18.698 15.8263C18.6674 16.5087 18.5528 16.8789 18.4574 17.1256C18.3444 17.4292 18.1653 17.7038 17.9332 17.9297C17.6882 18.1747 17.4555 18.3261 17.1283 18.453C16.8833 18.5493 16.5122 18.663 15.8289 18.6945C15.0912 18.7278 14.8699 18.7356 13.0009 18.7356C11.1319 18.7356 10.9096 18.7278 10.172 18.6945C9.4895 18.663 9.11937 18.5493 8.87262 18.453C8.56885 18.3403 8.2939 18.1616 8.06763 17.9297C7.83511 17.7037 7.65579 17.4287 7.54262 17.1248C7.44725 16.8789 7.33263 16.5079 7.302 15.8254C7.26875 15.0878 7.26175 14.8664 7.26175 12.9965C7.26175 11.1266 7.26875 10.907 7.302 10.1694C7.3335 9.48687 7.44725 9.11588 7.5435 8.86913C7.67037 8.54275 7.82262 8.30912 8.06763 8.06413C8.31262 7.81912 8.54537 7.66775 8.87262 7.54088C9.11937 7.44463 9.4895 7.33088 10.172 7.29938C10.8177 7.26963 11.068 7.26088 12.3726 7.26V7.26175ZM16.7371 8.42375C16.6268 8.42375 16.5176 8.44548 16.4157 8.48769C16.3138 8.52991 16.2212 8.59178 16.1432 8.66978C16.0652 8.74778 16.0033 8.84038 15.9611 8.9423C15.9189 9.04421 15.8971 9.15344 15.8971 9.26375C15.8971 9.37406 15.9189 9.48329 15.9611 9.5852C16.0033 9.68712 16.0652 9.77972 16.1432 9.85772C16.2212 9.93572 16.3138 9.99759 16.4157 10.0398C16.5176 10.082 16.6268 10.1038 16.7371 10.1038C16.9599 10.1038 17.1736 10.0153 17.3311 9.85772C17.4886 9.70019 17.5771 9.48653 17.5771 9.26375C17.5771 9.04097 17.4886 8.82731 17.3311 8.66978C17.1736 8.51225 16.9599 8.42375 16.7371 8.42375ZM13.0009 9.4055C12.5241 9.39806 12.0505 9.48555 11.6079 9.66287C11.1652 9.8402 10.7622 10.1038 10.4224 10.4384C10.0826 10.7729 9.81269 11.1717 9.62849 11.6116C9.44428 12.0515 9.34941 12.5236 9.34941 13.0004C9.34941 13.4773 9.44428 13.9494 9.62849 14.3893C9.81269 14.8291 10.0826 15.2279 10.4224 15.5625C10.7622 15.8971 11.1652 16.1607 11.6079 16.338C12.0505 16.5153 12.5241 16.6028 13.0009 16.5954C13.9446 16.5807 14.8447 16.1954 15.5069 15.5228C16.169 14.8503 16.5402 13.9443 16.5402 13.0004C16.5402 12.0566 16.169 11.1506 15.5069 10.478C14.8447 9.80545 13.9446 9.42022 13.0009 9.4055ZM13.0009 10.6664C13.3073 10.6664 13.6108 10.7267 13.8939 10.844C14.177 10.9613 14.4343 11.1332 14.651 11.3499C14.8677 11.5666 15.0396 11.8238 15.1569 12.107C15.2741 12.3901 15.3345 12.6935 15.3345 13C15.3345 13.3065 15.2741 13.6099 15.1569 13.893C15.0396 14.1762 14.8677 14.4334 14.651 14.6501C14.4343 14.8668 14.177 15.0387 13.8939 15.156C13.6108 15.2733 13.3073 15.3336 13.0009 15.3336C12.382 15.3336 11.7884 15.0878 11.3508 14.6501C10.9131 14.2125 10.6673 13.6189 10.6673 13C10.6673 12.3811 10.9131 11.7875 11.3508 11.3499C11.7884 10.9122 12.382 10.6664 13.0009 10.6664Z" fill="white"/>
<defs>
<linearGradient id="paint0_linear_956_788" x1="0" y1="0" x2="25.6176" y2="25.6176" gradientUnits="userSpaceOnUse">
<stop stop-color="#405DE6"/>
<stop offset="0.0928316" stop-color="#3A52C4"/>
<stop offset="0.188792" stop-color="#833AB4"/>
<stop offset="0.304378" stop-color="#C13584"/>
<stop offset="0.444285" stop-color="#E1306C"/>
<stop offset="0.608987" stop-color="#FF4545" stop-opacity="0.96"/>
<stop offset="0.758196" stop-color="#F56040"/>
<stop offset="0.893921" stop-color="#FCAF45"/>
<stop offset="1" stop-color="#FFDC80"/>
</linearGradient>
</defs>
</svg>
