<svg width="133" height="24" viewBox="0 0 133 24" fill="none" xmlns="http://www.w3.org/2000/svg">
<path d="M0.797852 1.23242H11.2715C13.2051 1.22266 14.8701 1.39355 16.2666 1.74512C17.6729 2.08691 18.8301 2.58008 19.7383 3.22461C20.6465 3.86914 21.3154 4.64551 21.7451 5.55371C22.1846 6.45215 22.4043 7.45313 22.4043 8.55664C22.4043 9.52344 22.1992 10.4512 21.7891 11.3398C21.3887 12.2188 20.7637 12.9951 19.9141 13.6689C19.0742 14.3428 18 14.8799 16.6914 15.2803C15.3926 15.6807 13.8447 15.8809 12.0479 15.8809H9.26465V23H0.797852V1.23242ZM9.26465 12.6875C9.93848 12.6777 10.5391 12.5752 11.0664 12.3799C11.5938 12.1748 12.0381 11.8965 12.3994 11.5449C12.7607 11.1836 13.0342 10.7539 13.2197 10.2559C13.415 9.74805 13.5127 9.18164 13.5127 8.55664C13.5127 7.94141 13.415 7.38477 13.2197 6.88672C13.0244 6.38867 12.7412 5.96387 12.3701 5.6123C12.0088 5.25098 11.5645 4.96777 11.0371 4.7627C10.5195 4.55762 9.92871 4.44531 9.26465 4.42578V12.6875ZM24.6309 12.0723C24.6309 10.4219 24.8945 8.91309 25.4219 7.5459C25.9492 6.16895 26.7354 4.9873 27.7803 4.00098C28.8252 3.01465 30.1289 2.24805 31.6914 1.70117C33.2539 1.1543 35.0703 0.880859 37.1406 0.880859C39.2109 0.880859 41.0273 1.1543 42.5898 1.70117C44.1523 2.24805 45.4561 3.01465 46.501 4.00098C47.5459 4.9873 48.332 6.16895 48.8594 7.5459C49.3867 8.91309 49.6504 10.4219 49.6504 12.0723C49.6504 13.7422 49.3867 15.2705 48.8594 16.6572C48.332 18.0439 47.5459 19.2305 46.501 20.2168C45.4561 21.2031 44.1523 21.9697 42.5898 22.5166C41.0273 23.0635 39.2109 23.3369 37.1406 23.3369C35.0703 23.3369 33.2539 23.0635 31.6914 22.5166C30.1289 21.9697 28.8252 21.2031 27.7803 20.2168C26.7354 19.2305 25.9492 18.0439 25.4219 16.6572C24.8945 15.2705 24.6309 13.7422 24.6309 12.0723ZM37.1406 20.3047C37.7266 20.3047 38.2441 20.2021 38.6934 19.9971C39.1426 19.792 39.5186 19.3916 39.8213 18.7959C40.124 18.2002 40.3535 17.3652 40.5098 16.291C40.666 15.2168 40.7441 13.8105 40.7441 12.0723C40.7441 10.3535 40.666 8.96191 40.5098 7.89746C40.3535 6.83301 40.124 6.00781 39.8213 5.42188C39.5186 4.83594 39.1426 4.44043 38.6934 4.23535C38.2441 4.03027 37.7266 3.92773 37.1406 3.92773C36.5547 3.92773 36.0322 4.03027 35.5732 4.23535C35.124 4.44043 34.748 4.83594 34.4453 5.42188C34.1426 6.00781 33.9131 6.83301 33.7568 7.89746C33.6006 8.96191 33.5225 10.3535 33.5225 12.0723C33.5225 13.8105 33.6006 15.2168 33.7568 16.291C33.9131 17.3652 34.1426 18.2002 34.4453 18.7959C34.748 19.3916 35.124 19.792 35.5732 19.9971C36.0322 20.2021 36.5547 20.3047 37.1406 20.3047ZM53.9424 1.23242H72.3408V4.58691H62.4238L62.4092 10.4609H69.9971V13.8154H62.4092V19.6455H72.3408V23H53.9424V1.23242ZM80.5293 4.57227H74.3184V1.21777H95.207V4.57227H88.9961V23H80.5293V4.57227ZM98.3857 1.23242H106.867L106.853 23H98.3857V1.23242ZM111.174 12.1309C111.174 11.0957 111.306 10.0996 111.569 9.14258C111.843 8.17578 112.238 7.27734 112.756 6.44727C113.273 5.61719 113.908 4.86035 114.66 4.17676C115.412 3.49316 116.267 2.90723 117.224 2.41895C118.19 1.93066 119.255 1.55469 120.417 1.29102C121.579 1.01758 122.829 0.880859 124.167 0.880859C125.026 0.880859 125.847 0.93457 126.628 1.04199C127.419 1.14941 128.161 1.30078 128.854 1.49609C129.548 1.68164 130.188 1.90137 130.773 2.15527C131.369 2.39941 131.906 2.6582 132.385 2.93164L131.125 5.39258C130.578 5.12891 129.953 4.90918 129.25 4.7334C128.557 4.54785 127.834 4.45508 127.082 4.45508C126.076 4.45508 125.144 4.63574 124.284 4.99707C123.425 5.3584 122.683 5.87109 122.058 6.53516C121.433 7.19922 120.939 8.00488 120.578 8.95215C120.227 9.88965 120.051 10.9443 120.051 12.1162C120.051 13.2783 120.227 14.333 120.578 15.2803C120.93 16.2178 121.413 17.0234 122.028 17.6973C122.653 18.3613 123.391 18.8789 124.24 19.25C125.1 19.6113 126.027 19.792 127.023 19.792C127.727 19.792 128.43 19.709 129.133 19.543C129.836 19.3672 130.48 19.1377 131.066 18.8545L132.326 21.3154C131.848 21.5986 131.315 21.8623 130.729 22.1064C130.144 22.3506 129.509 22.5703 128.825 22.7656C128.142 22.9512 127.409 23.0977 126.628 23.2051C125.847 23.3125 125.026 23.3662 124.167 23.3662C122.165 23.3662 120.358 23.0732 118.747 22.4873C117.146 21.8916 115.783 21.0859 114.66 20.0703C113.537 19.0449 112.673 17.8535 112.067 16.4961C111.472 15.1289 111.174 13.6738 111.174 12.1309Z" fill="white"/>
</svg>
