<svg width="154" height="27" viewBox="0 0 154 27" fill="none" xmlns="http://www.w3.org/2000/svg">
<path d="M0.24707 0.604492H12.4663C14.7222 0.593099 16.6647 0.79248 18.2939 1.20264C19.9346 1.6014 21.2847 2.17676 22.3442 2.92871C23.4038 3.68066 24.1842 4.58643 24.6855 5.646C25.1982 6.69417 25.4546 7.86198 25.4546 9.14941C25.4546 10.2773 25.2153 11.3597 24.7368 12.3965C24.2697 13.4219 23.5405 14.3276 22.5493 15.1138C21.5695 15.8999 20.3162 16.5265 18.7896 16.9937C17.2743 17.4608 15.4684 17.6943 13.3721 17.6943H10.125V26H0.24707V0.604492ZM10.125 13.9688C10.9111 13.9574 11.6118 13.8377 12.2271 13.6099C12.8423 13.3706 13.3607 13.0459 13.7822 12.6357C14.2038 12.2142 14.5228 11.7129 14.7393 11.1318C14.9671 10.5394 15.0811 9.87858 15.0811 9.14941C15.0811 8.43164 14.9671 7.78223 14.7393 7.20117C14.5114 6.62012 14.181 6.12451 13.748 5.71436C13.3265 5.29281 12.8081 4.9624 12.1929 4.72314C11.589 4.48389 10.8997 4.35286 10.125 4.33008V13.9688ZM28.0522 13.251C28.0522 11.3255 28.3599 9.56527 28.9751 7.97021C29.5903 6.36377 30.5075 4.98519 31.7266 3.83447C32.9456 2.68376 34.4666 1.78939 36.2896 1.15137C38.1125 0.513346 40.2316 0.194336 42.647 0.194336C45.0623 0.194336 47.1815 0.513346 49.0044 1.15137C50.8273 1.78939 52.3483 2.68376 53.5674 3.83447C54.7865 4.98519 55.7036 6.36377 56.3188 7.97021C56.9341 9.56527 57.2417 11.3255 57.2417 13.251C57.2417 15.1992 56.9341 16.9823 56.3188 18.6001C55.7036 20.2179 54.7865 21.6022 53.5674 22.7529C52.3483 23.9036 50.8273 24.798 49.0044 25.436C47.1815 26.0741 45.0623 26.3931 42.647 26.3931C40.2316 26.3931 38.1125 26.0741 36.2896 25.436C34.4666 24.798 32.9456 23.9036 31.7266 22.7529C30.5075 21.6022 29.5903 20.2179 28.9751 18.6001C28.3599 16.9823 28.0522 15.1992 28.0522 13.251ZM42.647 22.8555C43.3306 22.8555 43.9344 22.7358 44.4585 22.4966C44.9826 22.2573 45.4212 21.7902 45.7744 21.0952C46.1276 20.4002 46.3953 19.4261 46.5776 18.1729C46.7599 16.9196 46.8511 15.279 46.8511 13.251C46.8511 11.2458 46.7599 9.62223 46.5776 8.38037C46.3953 7.13851 46.1276 6.17578 45.7744 5.49219C45.4212 4.80859 44.9826 4.34717 44.4585 4.10791C43.9344 3.86865 43.3306 3.74902 42.647 3.74902C41.9634 3.74902 41.3538 3.86865 40.8184 4.10791C40.2943 4.34717 39.8556 4.80859 39.5024 5.49219C39.1493 6.17578 38.8815 7.13851 38.6992 8.38037C38.5169 9.62223 38.4258 11.2458 38.4258 13.251C38.4258 15.279 38.5169 16.9196 38.6992 18.1729C38.8815 19.4261 39.1493 20.4002 39.5024 21.0952C39.8556 21.7902 40.2943 22.2573 40.8184 22.4966C41.3538 22.7358 41.9634 22.8555 42.647 22.8555ZM62.249 0.604492H83.7139V4.51807H72.144L72.127 11.3711H80.9795V15.2847H72.127V22.0864H83.7139V26H62.249V0.604492ZM93.2671 4.50098H86.021V0.587402H110.391V4.50098H103.145V26H93.2671V4.50098ZM114.1 0.604492H123.995L123.978 26H114.1V0.604492ZM129.019 13.3193C129.019 12.1117 129.173 10.9495 129.48 9.83301C129.799 8.70508 130.261 7.6569 130.865 6.68848C131.469 5.72005 132.209 4.83708 133.086 4.03955C133.964 3.24202 134.961 2.55843 136.077 1.98877C137.205 1.41911 138.447 0.980469 139.803 0.672852C141.159 0.353841 142.617 0.194336 144.178 0.194336C145.18 0.194336 146.137 0.256999 147.049 0.382324C147.972 0.50765 148.838 0.684245 149.646 0.912109C150.455 1.12858 151.202 1.38493 151.885 1.68115C152.58 1.96598 153.207 2.2679 153.765 2.58691L152.295 5.45801C151.657 5.15039 150.928 4.89404 150.108 4.68896C149.299 4.47249 148.456 4.36426 147.579 4.36426C146.405 4.36426 145.317 4.57503 144.314 4.99658C143.312 5.41813 142.446 6.01628 141.717 6.79102C140.988 7.56576 140.412 8.5057 139.991 9.61084C139.581 10.7046 139.375 11.9351 139.375 13.3022C139.375 14.658 139.581 15.8885 139.991 16.9937C140.401 18.0874 140.965 19.0273 141.683 19.8135C142.412 20.5882 143.272 21.1921 144.263 21.625C145.266 22.0465 146.348 22.2573 147.51 22.2573C148.331 22.2573 149.151 22.1605 149.971 21.9668C150.792 21.7617 151.543 21.494 152.227 21.1636L153.697 24.0347C153.139 24.3651 152.518 24.6727 151.834 24.9575C151.15 25.2424 150.41 25.4987 149.612 25.7266C148.815 25.943 147.96 26.1139 147.049 26.2393C146.137 26.3646 145.18 26.4272 144.178 26.4272C141.842 26.4272 139.734 26.0854 137.854 25.4019C135.986 24.7069 134.397 23.7669 133.086 22.582C131.776 21.3857 130.768 19.9958 130.062 18.4121C129.367 16.8171 129.019 15.1195 129.019 13.3193Z" fill="#191919"/>
</svg>
