<?xml version="1.0" standalone="no"?>
<!DOCTYPE svg PUBLIC "-//W3C//DTD SVG 20010904//EN"
 "http://www.w3.org/TR/2001/REC-SVG-20010904/DTD/svg10.dtd">
<svg version="1.0" xmlns="http://www.w3.org/2000/svg"
 width="800.000000pt" height="800.000000pt" viewBox="0 0 800.000000 800.000000"
 preserveAspectRatio="xMidYMid meet">

<g transform="translate(0.000000,800.000000) scale(0.100000,-0.100000)"
fill="#000000" stroke="none">
<path d="M0 4108 l0 -3893 148 145 c196 191 224 215 356 305 141 97 244 169
270 192 29 24 106 74 106 69 0 -3 11 6 25 20 18 18 32 23 48 19 14 -4 17 -3 9
2 -9 7 -5 14 15 29 55 41 224 154 229 154 3 0 15 10 27 23 28 29 112 87 127
87 6 0 13 7 16 15 4 10 14 14 28 10 13 -4 16 -3 9 2 -15 11 83 87 99 77 6 -4
8 -2 4 4 -3 6 0 14 8 19 8 4 29 22 48 38 68 63 132 106 147 100 9 -3 12 -3 8
1 -9 9 21 44 38 44 6 0 27 15 47 32 49 45 75 67 128 108 83 63 209 193 215
221 4 15 12 29 19 32 7 3 18 24 26 46 7 23 21 46 29 51 9 5 13 12 9 16 -4 4 0
19 10 33 9 14 22 35 28 45 6 11 18 23 27 28 9 4 25 12 35 17 9 4 18 18 20 30
3 17 9 22 24 18 14 -4 18 -2 14 8 -3 9 0 12 10 8 8 -3 25 2 39 11 13 9 36 16
50 16 23 0 24 2 15 20 -9 16 -8 20 5 20 9 0 18 7 21 15 4 8 18 15 32 15 14 0
35 9 47 20 14 13 38 20 70 22 28 2 53 7 56 11 3 4 27 8 52 9 26 0 49 4 52 8 2
4 23 7 45 8 23 1 39 -2 36 -7 -10 -16 6 -71 20 -71 8 0 14 -9 14 -20 0 -11 6
-20 14 -20 8 0 26 -19 40 -42 l25 -43 1 40 c0 29 6 44 20 53 11 7 20 18 20 26
0 7 15 25 32 39 18 14 47 38 64 54 27 26 56 40 159 79 11 4 26 6 33 5 8 -1 24
9 37 23 13 14 34 26 45 26 12 0 30 4 40 10 22 12 78 -5 101 -32 9 -9 18 -15
21 -12 3 3 55 7 114 10 61 3 111 9 115 15 5 8 9 8 14 0 5 -9 10 -9 20 -1 16
14 35 5 35 -16 0 -21 18 -17 46 11 14 14 28 25 32 26 46 5 61 18 62 54 1 30
24 55 46 49 19 -4 84 46 84 66 0 18 70 52 102 49 18 -2 55 7 82 19 27 13 54
21 60 19 6 -2 23 2 37 9 15 7 29 10 33 7 3 -4 6 -1 6 5 0 7 5 12 10 12 6 0 10
-8 10 -18 0 -11 8 -18 23 -19 42 -3 87 8 87 21 0 7 10 21 23 32 54 46 107 59
107 26 0 -18 -37 -42 -65 -42 -8 0 -15 -4 -15 -9 0 -5 -10 -13 -22 -17 -34
-10 -81 -46 -71 -53 5 -3 19 -20 31 -38 26 -37 31 -113 7 -113 -16 0 -62 57
-57 71 1 5 -3 8 -10 7 -6 -2 -13 6 -15 17 -9 44 -13 51 -23 35 -7 -11 -10 -2
-10 30 0 42 -1 43 -15 23 -8 -11 -15 -48 -17 -83 -2 -50 1 -64 15 -71 9 -6 17
-15 17 -21 0 -7 9 -22 21 -34 26 -28 34 -78 10 -68 -26 11 -61 5 -84 -15 -9
-7 -28 -14 -43 -15 -17 -2 -32 -12 -41 -30 -7 -14 -18 -26 -23 -26 -6 0 -29
-18 -52 -41 -24 -23 -55 -42 -72 -45 -26 -5 -29 -3 -16 8 18 16 14 58 -6 58
-8 0 -14 5 -14 11 0 8 -5 8 -15 -1 -13 -11 -15 -8 -15 15 0 17 -5 25 -13 22
-12 -4 -13 -26 -3 -62 10 -33 -8 -51 -38 -37 -14 6 -26 18 -26 27 0 8 -4 15
-9 15 -15 0 -25 -22 -27 -53 -1 -15 -4 -30 -6 -32 -2 -3 -31 0 -64 7 -59 11
-59 10 -93 -21 -18 -17 -37 -28 -42 -25 -6 3 -26 -7 -46 -22 -30 -23 -39 -25
-55 -15 -17 11 -23 9 -39 -8 -10 -11 -19 -24 -19 -29 0 -5 -17 -6 -40 -2 -37
7 -42 5 -54 -18 -8 -14 -16 -20 -20 -14 -8 13 -65 -14 -73 -34 -3 -8 -16 -14
-29 -14 -13 0 -24 -4 -24 -10 0 -5 -7 -10 -15 -10 -9 0 -29 -9 -44 -21 -16
-12 -37 -19 -47 -16 -17 4 -17 6 4 12 15 5 22 15 22 31 0 23 -3 24 -40 18 -27
-4 -40 -3 -40 5 0 8 -13 9 -40 5 -27 -4 -40 -3 -40 5 0 6 -9 11 -20 11 -12 0
-17 5 -14 14 3 8 -3 15 -14 18 -28 8 -112 -15 -112 -29 0 -7 -6 -13 -13 -13
-18 0 -67 -24 -67 -32 0 -5 -8 -8 -19 -8 -10 0 -24 -7 -31 -15 -7 -8 -16 -15
-21 -15 -16 0 -9 22 12 39 32 26 33 131 3 162 -23 22 -44 19 -44 -7 0 -9 -10
-24 -22 -34 -18 -14 -22 -26 -19 -64 2 -36 -1 -46 -13 -46 -18 0 -21 -15 -6
-25 6 -3 13 1 16 9 10 26 29 18 42 -17 14 -40 15 -47 2 -47 -5 0 -21 -11 -36
-24 -51 -46 -61 -53 -122 -87 -34 -18 -62 -37 -62 -41 0 -5 -13 -8 -29 -8 -42
0 -141 -54 -178 -98 -18 -20 -33 -41 -33 -45 0 -4 -14 -22 -31 -40 -17 -18
-44 -56 -61 -85 -16 -28 -34 -52 -39 -52 -4 0 -13 -19 -19 -42 -6 -24 -15 -51
-20 -60 -6 -10 -10 -25 -10 -33 0 -9 -6 -18 -14 -21 -8 -3 -16 -18 -19 -33 -3
-16 -12 -35 -20 -43 -8 -7 -19 -23 -26 -36 -17 -31 -51 -29 -51 3 0 14 -6 25
-13 25 -15 0 -41 -56 -32 -70 4 -6 -5 -10 -21 -10 -22 0 -25 2 -14 15 14 16 6
65 -11 65 -5 0 -19 -9 -31 -20 -26 -24 -55 -26 -79 -4 -16 14 -21 14 -63 -11
-28 -17 -46 -34 -46 -45 0 -11 -5 -22 -12 -26 -7 -5 -9 0 -6 14 7 23 -19 39
-36 22 -5 -5 -22 -10 -37 -10 -15 0 -29 -3 -31 -7 -9 -21 -71 -53 -103 -53
-34 0 -48 -14 -22 -23 10 -4 10 -7 0 -18 -11 -11 -13 -10 -13 4 0 13 -9 17
-40 17 -22 0 -40 5 -40 10 0 6 -4 10 -9 10 -6 0 -11 -15 -13 -32 -2 -19 -8
-32 -15 -31 -6 2 -11 -6 -10 -17 1 -14 9 -20 24 -20 14 0 23 -6 23 -15 0 -11
-11 -15 -40 -15 -22 0 -40 4 -40 9 0 5 -11 16 -23 24 -23 15 -26 14 -61 -16
-38 -33 -45 -52 -23 -60 6 -3 0 -6 -16 -6 -52 -2 -143 -72 -166 -130 -15 -35
-31 -41 -31 -11 0 20 -1 20 -26 4 -16 -11 -21 -20 -14 -24 8 -5 6 -18 -6 -43
-19 -41 -34 -48 -34 -17 0 11 -4 20 -10 20 -5 0 -10 -9 -10 -20 0 -16 -7 -20
-30 -20 -28 0 -30 -2 -30 -40 0 -33 -3 -40 -20 -40 -17 0 -20 -7 -20 -40 0
-32 -4 -40 -18 -40 -10 0 -24 6 -31 13 -11 10 -13 10 -7 -1 4 -7 1 -12 -8 -12
-12 0 -16 -10 -16 -40 0 -35 -3 -40 -23 -40 -17 0 -30 -11 -46 -40 -12 -22
-29 -40 -37 -40 -8 0 -14 -4 -14 -9 0 -13 -56 -71 -69 -71 -6 0 -11 -11 -11
-24 0 -35 -10 -56 -26 -56 -9 0 -14 -12 -14 -35 0 -20 -8 -50 -17 -68 l-17
-32 -6 30 c-5 22 -8 8 -14 -52 -7 -72 -11 -83 -27 -83 -12 0 -19 -7 -19 -20 0
-10 -9 -24 -20 -30 -11 -6 -20 -15 -20 -20 0 -7 1369 -10 3810 -10 l3810 0 0
2105 c0 1203 -4 2105 -9 2105 -5 0 -14 -14 -21 -31 -8 -18 -18 -28 -26 -25 -9
3 -14 -2 -14 -14 0 -22 -2 -25 -101 -127 -38 -39 -69 -76 -69 -82 0 -6 -6 -11
-14 -11 -8 0 -16 -4 -18 -10 -1 -5 -23 -20 -48 -33 -25 -14 -44 -29 -43 -34 1
-5 -7 -9 -17 -10 -11 -1 -32 -10 -47 -21 -15 -11 -53 -28 -83 -37 -70 -22 -99
-37 -183 -94 -38 -25 -76 -50 -85 -56 -10 -5 -19 -12 -22 -15 -3 -3 -25 -18
-50 -32 -64 -37 -122 -46 -583 -88 -120 -11 -237 -24 -260 -29 -23 -5 -79 -12
-125 -16 -57 -5 -98 -15 -130 -31 -26 -13 -55 -24 -64 -24 -10 0 -18 -5 -18
-11 0 -6 -21 -10 -52 -9 -29 1 -58 1 -65 1 -7 -1 -28 -22 -48 -48 -25 -33 -43
-47 -56 -45 -19 3 -27 -14 -9 -20 13 -4 -63 -123 -92 -142 -15 -10 -62 -16
-143 -20 -78 -4 -113 -3 -100 3 17 8 18 10 3 10 -10 1 -18 6 -18 11 0 6 -10
10 -22 10 -12 0 -18 3 -14 7 4 4 53 8 109 9 169 3 213 5 200 11 -18 7 -16 23
1 23 38 0 20 22 -41 51 -38 19 -70 36 -73 39 -14 17 -400 180 -463 195 -21 6
-60 35 -46 35 8 0 116 -43 167 -66 29 -13 56 -24 60 -24 20 0 220 -84 299
-125 48 -25 91 -45 95 -45 21 0 4 28 -24 43 -18 10 -51 30 -73 46 -22 16 -43
27 -47 25 -5 -3 -8 -2 -8 3 0 19 -263 169 -268 153 -2 -5 -8 -10 -14 -10 -6 0
-7 7 -4 16 5 14 4 15 -8 5 -11 -9 -33 -2 -105 34 -50 26 -91 50 -91 55 0 7
-38 23 -52 21 -4 0 -4 7 -1 16 4 9 2 14 -3 10 -5 -3 -23 0 -39 8 -82 37 -125
53 -119 44 8 -13 -46 0 -66 16 -8 6 -33 19 -55 27 -22 9 -76 33 -120 54 -44
21 -82 39 -85 39 -3 0 -17 9 -32 19 -16 10 -34 16 -42 13 -8 -3 -20 0 -26 8
-6 8 -33 17 -58 21 -38 6 -43 9 -27 15 13 6 7 6 -17 3 -25 -4 -38 -2 -38 5 0
6 -10 11 -21 11 -12 0 -27 7 -33 15 -6 8 -29 17 -51 19 -22 3 -41 10 -43 16
-2 5 -12 10 -22 10 -10 0 -48 13 -84 30 -36 16 -66 26 -66 22 0 -4 -6 0 -13 8
-13 16 -101 50 -128 50 -8 0 -37 10 -65 23 -95 45 -125 57 -144 57 -10 0 -22
5 -25 10 -10 16 -75 41 -117 45 -21 2 -48 11 -60 19 -12 9 -28 16 -36 16 -7 0
-32 9 -54 20 -23 11 -49 20 -59 20 -9 0 -19 7 -23 15 -3 8 -16 15 -30 15 -14
0 -27 4 -31 10 -3 5 -12 7 -20 4 -7 -3 -22 3 -32 13 -23 23 -79 63 -88 63 -3
0 -3 -9 0 -20 7 -22 -5 -26 -23 -8 -9 9 -12 9 -12 0 0 -7 -7 -12 -15 -12 -9 0
-12 -6 -9 -15 4 -8 16 -15 28 -15 11 0 30 -7 40 -15 11 -8 29 -15 41 -15 13 0
26 -10 33 -25 6 -13 26 -32 44 -41 18 -9 39 -22 47 -28 8 -6 28 -11 45 -12 17
-1 51 -9 76 -17 87 -32 145 -49 180 -54 19 -3 40 -9 45 -13 6 -4 52 -17 103
-30 50 -13 92 -27 92 -32 0 -4 8 -8 18 -8 10 0 23 -5 28 -10 6 -6 33 -19 60
-28 36 -13 49 -23 49 -38 0 -15 6 -18 28 -16 28 4 57 -12 57 -30 0 -5 -10 -13
-22 -18 l-23 -9 22 -7 c13 -3 23 -10 23 -15 0 -5 3 -8 8 -7 7 2 52 -18 148
-64 23 -11 52 -21 65 -23 13 -2 83 -25 154 -50 72 -26 175 -63 230 -82 55 -20
114 -42 130 -49 17 -6 50 -19 75 -27 129 -45 150 -56 127 -68 -9 -5 -36 -1
-71 10 -30 11 -68 20 -83 19 -15 0 -54 10 -87 21 -32 11 -62 18 -67 15 -5 -3
-9 0 -9 7 0 7 -3 10 -6 7 -3 -4 -21 0 -39 8 -19 8 -44 14 -55 14 -11 0 -41 10
-66 21 -34 16 -48 19 -57 10 -15 -15 -27 -14 -27 3 0 19 -35 30 -55 18 -11 -6
-32 -1 -64 15 -31 15 -74 26 -122 30 -41 3 -77 10 -80 15 -3 4 -38 9 -77 10
-59 1 -72 4 -72 17 0 10 -3 12 -8 5 -10 -15 -119 -27 -127 -14 -3 5 -1 10 5
10 6 0 8 4 5 10 -3 5 -15 10 -26 10 -14 0 -19 -7 -19 -30 0 -23 -4 -30 -20
-30 -26 0 -26 -16 1 -30 11 -7 18 -17 16 -24 -4 -9 7 -12 39 -10 34 2 44 -1
44 -13 0 -11 4 -13 13 -6 22 18 67 22 67 6 0 -10 -6 -12 -20 -8 -11 4 -20 2
-20 -4 0 -6 9 -11 20 -11 13 0 20 -7 20 -20 0 -21 9 -23 69 -20 24 1 32 -2 29
-12 -3 -7 -18 -13 -35 -13 -16 0 -37 -6 -45 -13 -12 -9 -17 -10 -20 -2 -2 7
-13 4 -28 -9 l-25 -22 25 3 c14 2 33 -5 43 -15 9 -9 27 -17 40 -18 12 0 31 -4
42 -8 11 -5 -59 -6 -155 -3 -96 2 -176 9 -178 13 -2 5 -27 9 -55 9 -29 0 -79
4 -112 10 -105 16 -875 63 -1015 62 -74 -1 -229 -4 -345 -7 -128 -4 -216 -2
-224 4 -11 7 -2 16 38 38 29 15 78 43 109 62 55 32 311 163 382 194 19 9 62
27 95 40 l59 25 -84 5 c-47 3 -155 11 -240 16 -85 6 -204 11 -263 11 -83 0
-108 3 -105 12 6 16 68 51 383 216 137 72 251 135 253 140 1 5 -18 12 -44 16
-25 3 -101 19 -168 35 -66 16 -141 32 -166 35 -61 9 -130 27 -130 35 0 3 68
35 150 71 82 36 150 68 150 71 0 4 -24 9 -52 13 -47 6 -102 18 -148 33 -18 6
63 47 345 177 263 122 258 119 262 132 2 6 -11 17 -29 24 -78 31 -208 94 -208
101 0 8 32 21 219 83 74 25 136 47 138 49 2 2 -21 21 -52 43 -62 42 -61 44 25
67 30 8 109 32 175 52 66 19 134 39 151 44 17 5 56 20 87 35 31 14 61 26 66
26 6 0 11 4 11 10 0 5 -6 7 -14 4 -21 -8 -28 116 -7 133 12 10 17 9 30 -9 l15
-22 7 24 c12 42 10 118 -3 132 -7 7 -14 33 -16 57 -1 25 -7 50 -13 57 -13 16
7 94 23 94 6 0 9 -3 5 -6 -6 -6 107 -120 134 -134 14 -8 17 2 23 82 5 67 4 93
-5 99 -8 5 -10 27 -6 72 5 52 3 66 -8 71 -8 3 -15 17 -15 31 0 14 -4 25 -10
25 -5 0 -10 10 -10 23 0 18 2 19 10 7 8 -12 10 -9 10 11 0 30 28 47 42 27 4
-7 7 -25 6 -39 -1 -15 3 -33 9 -41 7 -7 16 -26 22 -41 6 -15 15 -27 21 -27 5
0 10 -7 10 -15 0 -9 10 -15 26 -15 23 0 25 3 20 26 -5 17 -3 23 4 19 9 -5 15
15 11 38 -2 14 15 7 45 -20 17 -16 51 -44 74 -62 23 -19 48 -41 55 -48 17 -17
94 -47 102 -40 3 4 9 57 13 119 5 62 15 151 24 198 15 81 16 153 2 167 -12 13
-6 142 10 184 21 57 28 129 13 129 -15 0 -3 80 15 99 12 11 16 10 24 -5 13
-26 24 -152 15 -167 -9 -14 -13 -33 -16 -67 -1 -17 5 -28 20 -36 13 -6 20 -14
16 -17 -3 -4 -3 -7 0 -7 4 0 16 18 27 40 11 22 28 40 36 40 13 0 15 7 10 31
-7 35 18 99 39 99 26 0 45 -13 45 -30 0 -10 7 -21 16 -24 24 -9 34 -7 34 8 0
19 31 30 41 14 4 -6 5 -16 3 -20 -3 -4 0 -8 6 -8 6 0 18 -7 26 -15 8 -8 23
-20 32 -27 9 -7 29 -31 43 -54 28 -43 285 -304 299 -304 5 0 11 6 13 13 4 9 6
9 6 -1 1 -7 6 -10 11 -7 6 3 10 1 10 -4 0 -21 2 -26 12 -38 6 -7 12 -34 14
-59 4 -53 17 -74 43 -67 21 5 45 -27 56 -76 5 -23 4 -31 -4 -27 -7 5 -11 -2
-11 -16 0 -18 2 -20 10 -8 8 13 10 13 10 -2 0 -9 4 -18 9 -20 6 -1 12 -17 16
-35 7 -44 23 -83 33 -83 10 0 31 25 75 91 32 49 43 80 61 177 1 8 7 17 13 20
6 4 14 18 18 31 4 13 22 44 41 70 19 25 39 54 46 64 8 11 19 16 30 12 15 -6
15 -10 2 -42 -9 -19 -13 -37 -10 -40 8 -9 26 8 26 24 0 12 3 13 14 4 11 -9 12
-6 8 14 -3 18 0 25 11 25 8 0 17 -6 20 -12 3 -8 31 15 71 55 50 51 81 73 124
89 58 22 102 54 102 75 0 7 11 20 24 29 16 10 23 22 20 32 -5 15 -4 15 9 0 8
-10 19 -18 26 -18 6 0 11 -4 11 -8 0 -13 103 -7 108 6 2 7 10 12 18 12 9 0 13
4 10 9 -4 5 3 7 14 4 11 -3 20 0 20 6 0 6 11 16 24 21 107 40 314 217 390 333
38 57 66 73 66 38 0 -11 -4 -22 -9 -25 -8 -6 -22 -56 -15 -56 18 0 154 126
154 143 0 11 64 77 75 77 6 0 16 -5 22 -11 9 -9 3 -25 -23 -63 -19 -28 -40
-59 -47 -70 -7 -10 -20 -29 -29 -41 -10 -13 -18 -28 -18 -34 0 -6 -9 -16 -20
-23 -11 -7 -20 -19 -20 -27 0 -19 -43 -110 -52 -111 -5 0 -8 8 -8 18 0 11 -5
8 -15 -12 -19 -36 -19 -45 0 -20 14 18 15 17 9 -11 -4 -16 -10 -37 -15 -46
-11 -21 -109 -284 -109 -292 0 -3 20 1 45 10 25 8 45 18 45 22 0 4 17 13 38
20 46 17 121 48 145 62 25 14 126 51 129 47 2 -2 17 7 33 18 17 12 50 31 75
43 79 38 144 75 183 105 20 15 37 24 37 20 0 -5 4 -4 8 1 9 13 65 38 58 26 -4
-5 -1 -11 5 -13 11 -4 -59 -78 -74 -78 -5 0 -25 -16 -45 -35 -20 -19 -43 -35
-50 -35 -33 0 -118 -107 -171 -215 -50 -103 -86 -160 -237 -388 -33 -49 -64
-98 -70 -109 -6 -10 -21 -30 -33 -44 -11 -13 -21 -31 -21 -39 0 -8 -4 -15 -8
-15 -10 0 -42 -65 -42 -85 0 -9 -4 -23 -9 -33 -5 -9 -21 -71 -35 -137 -15 -66
-31 -136 -37 -156 -5 -20 -9 -45 -9 -55 0 -17 1 -17 15 2 8 10 15 29 15 42 0
12 5 22 10 22 6 0 8 10 4 24 -5 20 6 36 63 93 69 70 235 213 247 213 4 0 17 9
29 20 61 54 139 110 147 105 15 -9 12 -25 -2 -20 -15 6 -51 -52 -43 -66 3 -5
-10 -24 -28 -43 -19 -19 -48 -52 -63 -73 -16 -21 -33 -43 -39 -49 -60 -64
-155 -190 -227 -299 -29 -45 -68 -93 -87 -108 l-35 -27 -11 27 -11 27 -10 -30
c-38 -105 -53 -169 -59 -239 l-6 -80 70 75 c39 41 71 81 71 88 0 6 5 12 10 12
6 0 10 5 10 11 0 6 26 36 58 67 32 31 61 65 65 75 3 9 18 22 32 29 14 6 25 15
25 19 0 4 6 14 13 21 7 7 24 36 37 63 21 44 76 132 90 145 3 3 17 21 30 40 12
19 28 40 34 45 6 6 38 41 71 80 33 38 77 85 99 105 21 19 68 73 104 120 37 47
69 87 72 90 3 3 17 21 30 40 14 19 34 45 46 57 12 12 24 28 27 35 2 7 8 10 12
6 10 -10 -39 -102 -104 -193 -82 -115 -126 -190 -157 -270 -15 -38 -31 -71
-36 -73 -4 -2 -8 -9 -8 -16 0 -7 -11 -19 -25 -26 -14 -7 -25 -17 -25 -22 0
-12 31 -2 118 38 41 19 78 34 83 34 5 0 9 4 9 9 0 5 14 13 32 16 18 4 39 11
48 16 24 14 74 32 83 31 4 -1 7 2 7 8 0 5 8 10 19 10 10 0 24 7 31 15 7 8 16
15 21 15 5 0 27 11 49 25 29 19 47 23 70 18 19 -3 27 -9 20 -13 -19 -12 19
-22 38 -10 15 8 15 10 -3 11 -14 0 -11 3 10 10 17 5 38 8 47 5 10 -2 15 1 11
9 -3 8 5 15 19 18 13 2 10 3 -7 2 -16 -2 -39 -6 -50 -10 -14 -4 -12 -2 5 9 14
8 48 15 77 16 29 0 57 6 65 13 7 7 28 21 46 30 17 9 44 23 60 31 15 8 61 31
102 51 79 38 118 59 161 88 18 12 33 15 48 9 l22 -8 -23 -29 c-12 -17 -26 -32
-30 -33 -5 -2 -15 -10 -23 -19 -8 -8 -15 -12 -15 -8 0 4 -7 -1 -16 -9 -8 -9
-39 -32 -69 -51 -30 -20 -57 -45 -60 -55 -3 -10 -18 -21 -32 -25 -15 -3 -40
-17 -56 -31 -16 -14 -36 -23 -43 -20 -8 3 -14 1 -14 -4 0 -6 -20 -20 -45 -32
-25 -12 -45 -26 -45 -30 0 -4 -4 -8 -10 -8 -6 0 -19 -8 -29 -17 -11 -10 -26
-23 -33 -29 -7 -6 -20 -20 -29 -30 -26 -32 -78 -74 -91 -75 -7 -1 -2 -5 12 -9
l25 -8 -22 -7 c-13 -4 -23 -11 -23 -16 0 -16 16 -10 58 21 23 17 46 30 52 30
5 0 26 15 47 33 23 20 34 25 30 15 -7 -20 9 -35 16 -16 4 9 6 9 6 1 1 -6 -6
-18 -14 -27 -8 -8 -15 -18 -15 -21 0 -10 -137 -230 -174 -282 -17 -23 -55 -80
-85 -127 -30 -47 -58 -86 -63 -86 -4 0 -8 -5 -8 -11 0 -6 -21 -39 -47 -73 -52
-66 -62 -82 -93 -138 -19 -36 -38 -118 -27 -118 3 0 41 11 84 24 103 31 110
33 303 66 91 16 226 45 300 65 74 20 158 40 185 46 28 5 85 19 128 30 l77 21
0 1529 0 1529 -4000 0 -4000 0 0 -3892z m4174 2806 c20 -20 20 -50 0 -58 -19
-7 -66 23 -57 38 22 40 34 44 57 20z m3127 -401 c-10 -16 -46 -59 -78 -96 -32
-38 -67 -81 -78 -95 -11 -15 -26 -27 -32 -28 -28 -2 -32 -5 -38 -25 -9 -27
-85 -109 -102 -109 -7 0 -13 -8 -14 -17 0 -10 -3 -13 -5 -6 -8 18 39 85 108
155 35 36 85 91 112 124 65 77 77 88 112 107 38 21 38 21 15 -10z m-361 -392
c0 -5 -9 -19 -21 -32 l-20 -24 17 33 c19 33 24 38 24 23z m-115 -70 c-3 -6
-11 -8 -17 -5 -8 5 -9 1 -5 -10 5 -11 3 -15 -5 -10 -7 5 -9 2 -5 -9 4 -12 2
-14 -10 -10 -9 4 -14 2 -10 -3 3 -6 -4 -11 -16 -11 -19 -2 -15 5 21 39 39 36
64 46 47 19z m430 -261 c-3 -5 -10 -10 -16 -10 -5 0 -9 5 -9 10 0 6 7 10 16
10 8 0 12 -4 9 -10z m-682 -117 c-29 -40 -191 -234 -202 -243 -3 -3 -17 -22
-31 -42 -24 -37 -40 -48 -40 -29 0 6 5 13 10 16 6 3 10 15 10 25 0 10 3 20 8
22 4 2 20 23 36 48 35 53 103 127 211 230 25 23 23 7 -2 -27z m807 -84 c0 -15
-18 -19 -23 -6 -3 8 1 14 9 14 8 0 14 -4 14 -8z m390 -1793 c0 -3 -4 -8 -10
-11 -5 -3 -10 -1 -10 4 0 6 5 11 10 11 6 0 10 -2 10 -4z m-170 -26 c0 -5 -5
-10 -11 -10 -5 0 -7 5 -4 10 3 6 8 10 11 10 2 0 4 -4 4 -10z m140 -3 c0 -18
-48 -67 -65 -67 -8 0 -15 -3 -15 -7 0 -10 -58 -43 -73 -43 -7 0 -6 4 3 10 8 5
16 14 16 20 3 21 4 22 17 12 10 -8 16 -6 25 9 10 16 10 19 -4 19 -8 0 -12 5
-9 10 3 6 21 10 39 10 25 0 35 5 39 20 6 22 27 28 27 7z m-120 -21 c0 -3 -4
-8 -10 -11 -5 -3 -10 -1 -10 4 0 6 5 11 10 11 6 0 10 -2 10 -4z m-45 -76 c-27
-12 -43 -12 -25 0 8 5 22 9 30 9 10 0 8 -3 -5 -9z m-21 -41 c-6 -11 -44 -12
-44 -1 0 4 11 8 25 8 14 1 22 -2 19 -7z m-3546 -41 c7 -7 12 -16 12 -20 0 -15
-15 -8 -28 12 -13 22 -3 27 16 8z m1012 -88 c0 -5 -2 -10 -4 -10 -3 0 -8 5
-11 10 -3 6 -1 10 4 10 6 0 11 -4 11 -10z m-1443 -16 c-3 -3 -12 -4 -19 -1 -8
3 -5 6 6 6 11 1 17 -2 13 -5z m783 -29 c168 -16 235 -24 263 -32 48 -13 -5
-11 -179 6 -330 34 -349 36 -369 33 -17 -2 -17 0 -5 8 9 7 39 9 75 5 33 -3
130 -12 215 -20z m245 -110 c140 -13 255 -27 428 -51 26 -4 50 -11 53 -16 3
-5 -5 -7 -18 -4 -199 40 -517 68 -848 74 -177 3 -290 9 -270 13 52 12 472 1
655 -16z m-698 9 c-3 -3 -12 -4 -19 -1 -8 3 -5 6 6 6 11 1 17 -2 13 -5z m-139
-11 c-21 -2 -57 -2 -80 0 -24 2 -7 4 37 4 44 0 63 -2 43 -4z m1344 -4 c189
-38 253 -53 331 -76 48 -14 87 -30 87 -34 0 -5 -12 -4 -27 2 -32 12 -354 87
-427 100 -27 4 -51 11 -54 14 -9 8 32 6 90 -6z m-2747 -48 c-9 -15 -115 -52
-127 -45 -6 4 -13 1 -17 -5 -9 -14 -176 -61 -301 -85 -47 -9 -96 -19 -110 -22
-54 -12 7 15 70 31 36 9 81 25 100 36 40 22 238 71 252 63 5 -3 19 1 32 9 13
9 38 17 57 20 19 2 38 5 42 5 5 1 6 -2 2 -7z m2930 -49 c-25 -5 -155 17 -155
27 0 4 39 0 88 -8 48 -9 78 -17 67 -19z m-927 1 c-10 -2 -26 -2 -35 0 -10 3
-2 5 17 5 19 0 27 -2 18 -5z m240 0 c-10 -2 -28 -2 -40 0 -13 2 -5 4 17 4 22
1 32 -1 23 -4z m335 -10 c-7 -2 -21 -2 -30 0 -10 3 -4 5 12 5 17 0 24 -2 18
-5z m404 1 c-3 -3 -12 -4 -19 -1 -8 3 -5 6 6 6 11 1 17 -2 13 -5z m-1464 -11
c-24 -2 -62 -2 -85 0 -24 2 -5 4 42 4 47 0 66 -2 43 -4z m-385 -10 c-15 -2
-42 -2 -60 0 -18 2 -6 4 27 4 33 0 48 -2 33 -4z m1695 0 c-13 -2 -33 -2 -45 0
-13 2 -3 4 22 4 25 0 35 -2 23 -4z m267 3 c0 -2 -9 -6 -20 -9 -11 -3 -20 -1
-20 4 0 5 9 9 20 9 11 0 20 -2 20 -4z m-74 -26 c44 -13 9 -11 -86 5 l-85 15
71 -6 c39 -3 84 -9 100 -14z m111 14 c-3 -3 -12 -4 -19 -1 -8 3 -5 6 6 6 11 1
17 -2 13 -5z m-27 -34 c23 -8 22 -8 -8 -7 -19 1 -36 5 -38 9 -6 10 13 9 46 -2z
m-3270 -90 c-14 -4 -34 -8 -45 -8 -16 0 -15 2 5 8 14 4 34 8 45 8 16 0 15 -2
-5 -8z m575 0 c-3 -5 -13 -10 -21 -10 -8 0 -14 -7 -14 -15 0 -8 -12 -18 -27
-21 -16 -4 -34 -12 -42 -17 -7 -6 -23 -16 -35 -22 -11 -7 -20 -17 -18 -23 1
-7 -3 -12 -9 -12 -14 0 -36 -26 -49 -57 -5 -13 -17 -23 -27 -23 -31 -1 -56
-26 -48 -49 5 -16 1 -24 -17 -31 -20 -9 -18 -10 12 -5 19 3 58 12 85 20 28 8
111 33 186 55 74 22 151 40 170 39 28 -1 22 -5 -41 -24 -226 -70 -555 -148
-635 -150 -114 -4 -131 -8 -75 -18 14 -3 45 -8 70 -13 25 -4 50 -6 55 -5 32 9
105 17 105 12 0 -4 16 -5 35 -3 21 3 35 0 35 -7 0 -6 -12 -11 -27 -11 -16 0
-68 -9 -117 -20 -50 -11 -103 -20 -118 -20 -15 0 -28 -4 -28 -10 0 -9 23 -15
44 -11 5 1 48 4 95 6 47 3 119 7 159 10 48 3 71 2 67 -5 -3 -5 -1 -10 4 -10 6
0 11 7 11 15 0 14 9 16 68 19 9 1 20 5 23 10 4 5 15 5 25 1 16 -6 16 -8 4 -13
-8 -3 -17 -8 -20 -12 -5 -8 -221 -57 -389 -89 -32 -6 -33 -6 -14 -24 19 -16
28 -16 147 -2 69 8 134 19 144 24 9 5 46 12 82 16 36 4 69 10 74 13 18 11 87
12 81 2 -8 -12 43 -3 61 11 6 5 32 12 58 15 25 3 65 12 87 20 23 7 56 14 75
14 18 0 35 4 38 8 6 10 66 3 66 -7 0 -4 -30 -13 -67 -20 -36 -7 -77 -21 -91
-32 -14 -10 -31 -19 -38 -19 -39 0 -451 -150 -464 -169 -5 -8 -70 -28 -122
-38 -31 -6 -28 -23 4 -23 27 0 16 -11 -25 -28 -29 -11 -29 -12 -4 -7 31 6 35
-5 10 -27 -21 -17 -192 -48 -303 -55 -41 -3 -79 -9 -84 -14 -6 -5 -18 -9 -28
-9 -10 0 -29 -7 -41 -14 -22 -15 -157 -34 -157 -23 0 29 23 57 47 58 l28 2
-27 4 c-44 7 -31 65 17 76 19 4 18 5 -4 14 -22 9 -22 10 -6 26 9 9 25 17 36
17 11 0 17 5 14 10 -3 6 -17 10 -31 10 -34 0 -30 16 6 24 31 6 41 25 15 27
-28 3 -33 4 -40 11 -11 11 32 25 118 38 72 11 168 38 140 39 -7 1 -57 -6 -112
-15 -104 -16 -141 -11 -141 21 0 11 14 15 53 16 93 2 111 17 22 19 l-80 2 90
14 c122 19 149 32 70 34 -33 1 -85 5 -115 9 l-55 7 63 7 c35 5 78 15 95 22 18
8 58 19 90 25 31 6 57 14 57 17 0 3 -35 3 -77 -1 -191 -15 -296 -6 -201 17 82
20 148 43 208 72 36 18 76 36 90 40 14 4 107 45 207 91 101 46 186 84 190 84
5 0 22 7 38 16 31 16 180 63 203 63 7 1 10 -3 7 -9z m-740 -46 c-93 -32 -145
-46 -220 -60 l-30 -5 25 14 c14 8 69 24 124 37 54 12 113 28 130 36 17 7 40
13 51 13 11 0 -25 -16 -80 -35z m2855 -4 c8 -5 11 -10 5 -10 -5 0 -17 5 -25
10 -8 5 -10 10 -5 10 6 0 17 -5 25 -10z m53 3 c-7 -2 -19 -2 -25 0 -7 3 -2 5
12 5 14 0 19 -2 13 -5z m-99 -23 c-39 -14 -99 -22 -89 -11 6 5 26 13 45 16 19
3 36 8 39 10 2 3 8 2 14 -2 6 -4 2 -9 -9 -13z m-107 -26 c-3 -3 -12 -4 -19 -1
-8 3 -5 6 6 6 11 1 17 -2 13 -5z m-791 -43 c-3 -5 -34 -14 -68 -20 -35 -6 -74
-14 -87 -18 -16 -4 -22 -2 -18 4 4 6 33 14 65 18 32 3 65 11 73 16 18 11 42
12 35 0z m-186 -40 c0 -9 -60 -24 -68 -16 -5 5 36 23 56 24 6 1 12 -3 12 -8z
m1051 -27 c5 -15 6 -36 3 -48 -7 -20 -7 -20 -14 -1 -6 18 -8 18 -20 -5 l-13
-25 -18 40 -18 40 27 11 c39 18 41 17 53 -12z m49 16 c0 -5 -5 -10 -11 -10 -5
0 -7 5 -4 10 3 6 8 10 11 10 2 0 4 -4 4 -10z m-2330 -50 c0 -5 -7 -10 -15 -10
-8 0 -15 5 -15 10 0 6 7 10 15 10 8 0 15 -4 15 -10z m50 6 c0 -3 -4 -8 -10
-11 -5 -3 -10 -1 -10 4 0 6 5 11 10 11 6 0 10 -2 10 -4z m1117 -90 c-9 -7 -41
-17 -69 -20 -29 -4 -55 -12 -59 -17 -3 -5 -13 -7 -22 -3 -24 9 -11 24 21 25
15 0 47 6 72 13 63 19 80 19 57 2z m-667 -18 c-13 -5 -31 -7 -39 -5 -10 3 -8
5 6 6 12 0 25 6 28 11 4 6 11 7 17 4 7 -5 2 -11 -12 -16z m-63 -14 c-3 -3 -12
-4 -19 -1 -8 3 -5 6 6 6 11 1 17 -2 13 -5z m508 -14 c-3 -5 -13 -10 -21 -10
-8 0 -12 5 -9 10 3 6 13 10 21 10 8 0 12 -4 9 -10z m-725 -26 c0 -2 -12 -4
-26 -4 -14 0 -23 4 -20 9 6 8 46 4 46 -5z m47 -10 c-3 -3 -12 -4 -19 -1 -8 3
-5 6 6 6 11 1 17 -2 13 -5z m1842 -86 c30 -11 18 -25 -27 -34 -28 -6 -32 -4
-32 15 0 11 -4 21 -10 21 -5 0 -10 5 -10 10 0 10 32 6 79 -12z m596 -178 c3
-5 -3 -10 -14 -10 -16 0 -21 -6 -21 -25 0 -20 -7 -26 -42 -36 -24 -6 -37 -14
-30 -16 19 -7 14 -61 -8 -80 -11 -10 -20 -23 -20 -29 0 -13 -39 -26 -52 -18
-5 3 -4 12 3 20 9 11 8 14 -4 14 -8 0 -17 -4 -19 -9 -6 -18 -42 -17 -46 2 -2
12 3 17 18 17 27 0 110 77 110 101 0 27 61 79 92 79 15 0 30 -4 33 -10z
m-2795 -50 c0 -5 -5 -10 -11 -10 -5 0 -7 5 -4 10 3 6 8 10 11 10 2 0 4 -4 4
-10z m570 -4 c0 -16 -18 -31 -27 -22 -8 8 5 36 17 36 5 0 10 -6 10 -14z m1868
-134 c3 -22 1 -23 -30 -17 -41 9 -48 13 -48 28 0 8 14 13 38 12 31 0 38 -4 40
-23z m82 6 c0 -4 -7 -8 -15 -8 -8 0 -15 4 -15 8 0 5 7 9 15 9 8 0 15 -4 15 -9z
m-2927 -15 c-7 -2 -19 -2 -25 0 -7 3 -2 5 12 5 14 0 19 -2 13 -5z m44 1 c-3
-3 -12 -4 -19 -1 -8 3 -5 6 6 6 11 1 17 -2 13 -5z m1203 -64 c0 -5 -6 -10 -14
-10 -8 0 -18 5 -21 10 -3 6 3 10 14 10 12 0 21 -4 21 -10z m432 -142 c-8 -8
-17 -8 -34 0 -22 10 -21 11 12 11 26 1 31 -2 22 -11z m-82 -17 c-12 -24 -30
-36 -30 -22 0 6 -7 11 -15 11 -23 0 -18 18 8 23 46 9 48 8 37 -12z m-1020
-392 c12 -8 10 -9 -7 -4 -14 4 -23 2 -23 -4 0 -6 5 -11 11 -11 10 0 -21 -50
-48 -78 -7 -7 -15 -23 -19 -36 -6 -23 -44 -54 -44 -36 0 7 -10 4 -22 -4 -12
-9 -41 -16 -63 -16 -27 0 -35 -3 -26 -9 10 -7 5 -11 -18 -16 -17 -3 -31 -12
-31 -18 0 -15 -20 14 -20 29 0 7 23 35 50 63 28 28 50 55 50 61 0 5 14 7 33 3
32 -6 32 -6 14 14 -11 13 -14 23 -8 27 5 4 14 -2 20 -11 7 -11 14 -14 18 -8 5
6 25 18 46 27 20 10 37 22 37 28 0 13 31 13 50 -1z m-870 -340 c0 -13 -43 -79
-52 -79 -5 0 -8 9 -8 20 0 11 4 20 9 20 5 0 14 14 20 31 9 27 31 33 31 8z
m138 -37 c2 -7 -5 -16 -17 -19 -12 -3 -21 -11 -21 -19 0 -7 -6 -11 -13 -8 -8
3 -20 -2 -27 -11 -7 -8 -19 -15 -26 -15 -8 0 -14 -5 -14 -12 0 -9 -3 -9 -12 0
-9 9 -5 17 16 37 15 14 31 25 35 25 4 0 16 9 26 20 20 22 46 23 53 2z m89 -28
c-3 -3 -12 -4 -19 -1 -8 3 -5 6 6 6 11 1 17 -2 13 -5z"/>
<path d="M2588 2643 c6 -2 18 -2 25 0 6 3 1 5 -13 5 -14 0 -19 -2 -12 -5z"/>
<path d="M2092 2620 c0 -14 2 -19 5 -12 2 6 2 18 0 25 -3 6 -5 1 -5 -13z"/>
<path d="M2120 2625 c0 -8 5 -15 10 -15 6 0 10 7 10 15 0 8 -4 15 -10 15 -5 0
-10 -7 -10 -15z"/>
<path d="M2500 1488 c-7 -18 -15 -36 -18 -40 -2 -5 1 -8 6 -8 6 0 19 18 31 40
14 28 17 40 8 40 -7 0 -19 -15 -27 -32z"/>
<path d="M6184 6762 c-12 -9 -31 -24 -43 -32 -11 -8 -21 -19 -21 -25 0 -6 -15
-19 -34 -29 -18 -10 -39 -29 -46 -42 -8 -13 -21 -24 -31 -24 -20 0 -63 -40
-99 -93 -14 -20 -28 -37 -32 -37 -5 0 -8 -7 -8 -15 0 -8 -11 -25 -25 -37 -14
-12 -25 -27 -25 -34 0 -21 -34 -74 -47 -74 -7 0 -13 -11 -13 -24 0 -14 -4 -28
-10 -31 -5 -3 -26 -32 -46 -63 -20 -31 -44 -68 -54 -82 -9 -14 -20 -37 -24
-52 -3 -16 -11 -28 -16 -28 -6 0 -10 -9 -10 -20 0 -11 -3 -20 -8 -20 -9 0 -30
-47 -43 -97 -6 -21 -18 -56 -28 -78 -10 -22 -23 -69 -30 -105 -7 -36 -19 -92
-27 -126 -17 -74 -17 -74 1 -74 11 0 15 11 15 36 0 41 15 37 25 -7 l7 -31 14
27 c16 32 18 55 4 55 -5 0 -10 11 -10 25 0 22 3 25 25 19 15 -4 25 -2 25 4 0
6 6 17 13 24 15 17 34 50 59 101 10 20 23 37 28 37 6 0 10 7 10 15 0 8 3 15 8
15 9 0 38 55 47 90 4 14 22 56 41 94 19 38 34 75 34 83 0 7 7 16 15 19 8 4 15
17 15 30 0 23 40 104 66 135 8 8 14 25 14 36 0 12 8 23 19 26 28 7 54 72 60
150 1 5 5 6 10 3 5 -3 14 8 21 24 7 17 18 30 24 30 6 0 21 18 34 40 20 36 37
46 66 41 5 -1 6 7 4 17 -4 15 -1 18 14 14 16 -4 18 -1 13 24 -5 22 -4 26 4 14
10 -13 12 -13 20 0 12 18 3 33 -15 26 -19 -7 -18 3 3 26 20 23 15 23 -13 0z
m-129 -162 c3 -5 1 -10 -4 -10 -6 0 -11 5 -11 10 0 6 2 10 4 10 3 0 8 -4 11
-10z m-541 -996 c4 -15 5 -29 1 -32 -3 -3 -5 2 -5 11 0 10 -4 17 -10 17 -5 0
-10 7 -10 15 0 25 17 17 24 -11z"/>
<path d="M5983 6673 c-11 -10 -43 -38 -72 -63 -28 -24 -51 -51 -51 -60 1 -10
8 -5 21 13 11 15 26 27 33 27 6 0 34 23 61 50 46 47 52 71 8 33z"/>
<path d="M5710 6397 c0 -8 -11 -20 -25 -27 -19 -10 -24 -19 -19 -33 5 -17 3
-19 -20 -13 -14 3 -25 3 -25 -1 1 -5 -3 -19 -10 -33 -11 -25 -11 -24 -6 5 6
29 6 29 -9 10 -8 -11 -16 -30 -16 -42 0 -16 -6 -23 -19 -23 -14 0 -21 -10 -25
-35 -4 -20 -11 -33 -16 -30 -10 6 -60 -62 -60 -82 0 -7 -4 -13 -9 -13 -18 0
-42 -189 -27 -213 12 -18 12 -17 75 127 48 110 79 166 91 166 4 0 10 8 13 18
3 9 35 62 70 117 36 55 63 103 60 108 -7 12 -23 8 -23 -6z"/>
<path d="M5955 5610 c-3 -5 -1 -10 4 -10 6 0 11 5 11 10 0 6 -2 10 -4 10 -3 0
-8 -4 -11 -10z"/>
<path d="M7197 5465 c3 -8 9 -12 14 -9 12 7 11 11 -5 17 -10 4 -13 1 -9 -8z"/>
<path d="M5883 5455 c0 -8 4 -15 9 -15 4 0 8 7 8 15 0 8 -4 15 -8 15 -5 0 -9
-7 -9 -15z"/>
<path d="M7155 5450 c-3 -5 -2 -10 4 -10 5 0 13 5 16 10 3 6 2 10 -4 10 -5 0
-13 -4 -16 -10z"/>
<path d="M5427 5420 c-21 -80 -26 -395 -6 -431 7 -13 13 -40 14 -61 1 -20 10
-44 19 -53 14 -15 15 -14 10 12 -9 49 -19 399 -13 439 4 22 3 44 -1 49 -5 6
-10 24 -12 40 -4 30 -4 30 -11 5z m9 -377 c-10 -10 -19 5 -10 18 6 11 8 11 12
0 2 -7 1 -15 -2 -18z"/>
<path d="M5826 5375 c-26 -70 -41 -95 -56 -95 -9 0 -17 -6 -17 -12 0 -7 -5
-37 -12 -66 -6 -30 -9 -58 -6 -63 4 -5 2 -25 -4 -44 -11 -39 -4 -108 10 -99 5
3 9 29 9 57 0 32 4 47 9 39 9 -15 21 29 21 79 0 16 5 29 10 29 6 0 10 9 10 19
0 11 9 23 20 26 11 3 20 13 20 21 0 8 5 14 10 14 6 0 10 18 10 40 0 22 -4 40
-9 40 -5 0 -11 8 -14 18 -3 15 -5 15 -11 -3z"/>
<path d="M6758 5123 c7 -3 16 -2 19 1 4 3 -2 6 -13 5 -11 0 -14 -3 -6 -6z"/>
<path d="M6710 5072 c-48 -54 -71 -94 -89 -162 l-18 -69 36 1 c39 1 81 35 81
66 0 9 7 26 15 36 8 11 15 34 15 50 0 17 7 40 15 50 40 53 -9 78 -55 28z"/>
<path d="M5711 4924 c0 -11 3 -14 6 -6 3 7 2 16 -1 19 -3 4 -6 -2 -5 -13z"/>
<path d="M7903 4821 c-93 -30 -117 -45 -55 -35 76 12 45 -11 -60 -45 -57 -19
-125 -42 -153 -52 -27 -10 -88 -31 -135 -45 -47 -15 -89 -30 -95 -34 -5 -4
-25 -11 -42 -15 -18 -3 -35 -11 -38 -16 -11 -17 100 -1 173 26 96 35 334 106
339 101 15 -14 -158 -85 -286 -116 -47 -12 -101 -26 -119 -31 -17 -6 -41 -7
-52 -4 -12 4 -20 2 -20 -5 0 -14 -333 -4 -385 10 -107 30 -104 30 -131 2 -22
-24 -82 -106 -109 -151 -8 -13 -38 -53 -90 -119 -5 -7 -28 -30 -49 -50 -118
-111 -159 -162 -142 -179 3 -3 12 2 21 11 9 9 25 16 36 16 11 0 29 5 39 10 11
6 41 12 67 14 27 2 68 9 93 15 82 22 275 83 305 96 17 8 62 25 100 39 39 13
108 38 155 55 47 17 92 31 101 31 15 0 139 61 359 176 36 18 110 53 165 78
l100 44 2 101 c1 55 -1 101 -5 100 -4 -1 -44 -13 -89 -28z m87 -31 c0 -18 -46
-33 -65 -22 -15 8 -14 10 9 10 15 0 33 5 39 11 14 14 17 14 17 1z m-70 -40 c0
-5 -2 -10 -4 -10 -3 0 -8 5 -11 10 -3 6 -1 10 4 10 6 0 11 -4 11 -10z m-30
-16 c0 -13 -29 -34 -35 -24 -3 5 -1 10 5 10 6 0 8 5 5 10 -3 6 1 10 9 10 9 0
16 -3 16 -6z"/>
<path d="M3325 4780 c-3 -5 1 -10 10 -10 9 0 13 5 10 10 -3 6 -8 10 -10 10 -2
0 -7 -4 -10 -10z"/>
<path d="M7785 4780 c-3 -5 -1 -10 4 -10 6 0 11 5 11 10 0 6 -2 10 -4 10 -3 0
-8 -4 -11 -10z"/>
<path d="M3425 4760 c3 -5 8 -10 11 -10 2 0 4 5 4 10 0 6 -5 10 -11 10 -5 0
-7 -4 -4 -10z"/>
<path d="M5720 4761 c0 -6 5 -13 10 -16 6 -3 10 1 10 9 0 9 -4 16 -10 16 -5 0
-10 -4 -10 -9z"/>
<path d="M4520 4701 c0 -5 5 -13 10 -16 6 -3 10 -2 10 4 0 5 -4 13 -10 16 -5
3 -10 2 -10 -4z"/>
<path d="M7424 4672 c-5 -5 -51 -26 -101 -47 -51 -22 -93 -43 -93 -47 0 -13
62 -9 79 6 9 7 36 24 61 37 48 26 75 47 68 54 -2 3 -9 1 -14 -3z"/>
<path d="M4116 4657 c3 -8 17 -20 32 -28 29 -15 44 -25 71 -49 30 -28 89 -61
93 -53 3 5 4 3 2 -3 -2 -11 140 -121 409 -316 121 -89 191 -144 276 -216 30
-26 63 -53 75 -61 11 -8 27 -22 36 -30 32 -31 96 -87 200 -175 58 -49 110 -94
115 -100 6 -6 37 -33 70 -61 33 -27 63 -54 66 -58 4 -5 12 -8 18 -6 6 2 -4 20
-22 40 -17 19 -48 55 -69 80 -20 24 -50 59 -68 78 -45 49 -63 79 -56 96 3 8 1
15 -5 15 -18 0 -78 62 -72 76 4 12 -77 98 -85 89 -2 -2 8 -15 23 -30 16 -14
26 -27 23 -30 -2 -3 -30 20 -61 51 -31 31 -57 53 -57 49 0 -4 -9 4 -21 19 -12
15 -30 26 -45 26 -13 0 -41 15 -62 35 -22 19 -43 31 -47 27 -4 -4 -5 3 -2 16
4 17 1 23 -11 21 -29 -2 -40 1 -54 14 -7 7 -33 25 -58 40 -25 14 -51 35 -58
47 -7 11 -20 20 -30 20 -10 0 -31 14 -47 30 -16 17 -32 30 -37 30 -4 0 -21 14
-36 30 -16 17 -34 30 -41 30 -6 0 -11 5 -11 10 0 6 -5 10 -11 10 -6 0 -27 17
-47 38 -43 44 -106 92 -121 92 -6 0 -11 7 -11 16 0 9 -13 21 -30 27 -16 6 -30
15 -30 19 0 4 -11 8 -25 8 -14 0 -24 5 -22 12 1 7 -5 13 -13 13 -22 2 -51 -15
-45 -25 3 -6 -1 -7 -10 -3 -13 5 -14 8 -3 15 9 6 6 8 -12 7 -41 -2 -50 0 -47
13 1 6 -6 14 -15 16 -12 2 -16 -1 -12 -11z"/>
<path d="M7930 4574 c-25 -14 -36 -22 -25 -18 11 4 30 8 42 8 11 1 19 4 16 9
-2 4 5 7 16 7 12 0 21 5 21 10 0 15 -20 10 -70 -16z"/>
<path d="M7790 4499 c0 -5 5 -7 10 -4 6 3 10 8 10 11 0 2 -4 4 -10 4 -5 0 -10
-5 -10 -11z"/>
<path d="M7708 4441 c-1 -5 -10 -11 -18 -13 -8 -2 -32 -20 -52 -40 -21 -21
-42 -38 -48 -38 -5 0 -15 -12 -23 -26 -7 -14 -24 -31 -38 -37 -24 -13 -39 -62
-22 -77 15 -14 121 28 176 69 30 23 59 41 65 41 7 0 12 11 12 24 0 14 5 28 10
31 18 11 10 25 -14 25 -20 0 -24 4 -21 25 2 24 -19 37 -27 16z m-168 -190 c0
-6 -4 -13 -10 -16 -5 -3 -10 1 -10 9 0 9 5 16 10 16 6 0 10 -4 10 -9z"/>
<path d="M4826 4411 c-4 -6 -3 -11 2 -11 5 0 38 -27 72 -60 34 -33 66 -60 70
-60 5 0 -22 28 -58 63 -37 34 -70 66 -73 71 -4 4 -10 3 -13 -3z"/>
<path d="M6038 4335 c-15 -19 -18 -48 -19 -172 0 -87 -5 -153 -11 -161 -7 -7
-8 -31 -4 -60 4 -26 10 -64 13 -85 4 -31 9 -38 25 -35 15 2 21 12 23 36 2 18
9 39 17 45 35 29 52 76 64 172 7 55 14 114 17 130 2 17 2 24 0 18 -3 -8 -21
-13 -44 -13 l-39 0 0 55 c0 30 -4 55 -9 55 -5 0 -11 9 -13 19 -3 18 -4 17 -20
-4z m22 -55 c0 -22 -4 -40 -10 -40 -5 0 -10 18 -10 40 0 22 5 40 10 40 6 0 10
-18 10 -40z m60 -290 c0 -5 -9 -14 -20 -20 -17 -9 -20 -8 -20 10 0 13 7 20 20
20 11 0 20 -4 20 -10z"/>
<path d="M4999 4254 c5 -11 16 -26 24 -33 12 -9 16 -8 20 8 3 14 1 18 -10 14
-8 -3 -21 3 -29 13 -14 18 -15 18 -5 -2z"/>
<path d="M7985 4250 c-3 -5 -1 -10 4 -10 6 0 11 5 11 10 0 6 -2 10 -4 10 -3 0
-8 -4 -11 -10z"/>
<path d="M5230 4191 c0 -5 5 -13 10 -16 6 -3 10 -2 10 4 0 5 -4 13 -10 16 -5
3 -10 2 -10 -4z"/>
<path d="M5600 4180 c0 -5 5 -10 11 -10 5 0 7 5 4 10 -3 6 -8 10 -11 10 -2 0
-4 -4 -4 -10z"/>
<path d="M5080 4170 c0 -5 7 -10 16 -10 8 0 12 5 9 10 -3 6 -10 10 -16 10 -5
0 -9 -4 -9 -10z"/>
<path d="M5114 4148 c-4 -7 2 -18 14 -26 12 -8 22 -19 22 -24 0 -5 17 -26 38
-47 20 -21 46 -49 56 -62 25 -31 119 -143 126 -149 20 -20 113 -135 145 -180
22 -30 45 -59 52 -63 7 -4 13 -14 13 -22 0 -7 3 -15 8 -17 4 -1 16 -21 27 -42
11 -22 25 -44 30 -50 6 -6 21 -26 34 -43 23 -33 61 -45 61 -19 0 8 -4 16 -8
18 -4 2 -18 19 -30 40 -16 25 -19 37 -11 40 9 3 7 14 -6 39 -10 19 -22 43 -28
54 -37 70 -52 95 -59 95 -4 0 -8 6 -8 13 0 8 -11 24 -25 37 -19 18 -25 20 -25
8 0 -9 6 -21 14 -27 8 -6 24 -35 36 -64 12 -29 28 -55 34 -59 8 -5 8 -8 0 -8
-6 0 -22 16 -36 35 -14 20 -54 66 -89 103 -36 37 -84 92 -109 122 -24 30 -51
62 -60 71 -8 9 -42 47 -75 85 -33 37 -77 85 -97 105 -22 23 -32 40 -25 43 9 3
9 5 0 5 -6 1 -15 -4 -19 -11z"/>
<path d="M5611 4140 c0 -14 4 -32 9 -40 8 -12 10 -12 9 5 0 11 -4 29 -9 40 -8
18 -9 18 -9 -5z"/>
<path d="M5270 4136 c0 -18 82 -134 158 -224 l23 -27 -12 28 c-7 15 -16 27
-21 27 -4 0 -8 6 -8 13 0 8 -11 24 -25 37 -14 13 -25 29 -25 37 0 7 -4 13 -9
13 -5 0 -11 10 -13 23 -2 12 -6 20 -11 17 -4 -3 -16 10 -27 28 -17 28 -30 40
-30 28z"/>
<path d="M6190 4090 c0 -5 5 -10 10 -10 6 0 10 5 10 10 0 6 -4 10 -10 10 -5 0
-10 -4 -10 -10z"/>
<path d="M5626 4060 c4 -14 10 -29 15 -34 5 -6 9 -19 9 -30 0 -17 2 -18 10 -6
6 9 5 19 -3 29 -7 7 -18 26 -24 40 l-13 26 6 -25z"/>
<path d="M6160 4050 c0 -5 5 -10 10 -10 6 0 10 5 10 10 0 6 -4 10 -10 10 -5 0
-10 -4 -10 -10z"/>
<path d="M2780 4030 c-9 -6 -10 -10 -3 -10 6 0 15 5 18 10 8 12 4 12 -15 0z"/>
<path d="M2820 4015 c0 -10 -10 -15 -30 -15 -40 0 -99 -25 -107 -46 -8 -23 14
-34 70 -34 44 0 47 2 47 25 0 17 6 25 18 25 9 0 27 3 40 6 33 9 29 -24 -5 -38
-28 -12 -28 -12 14 -16 37 -3 45 -8 65 -43 23 -42 23 -41 133 -41 25 0 65 0
90 1 l45 1 0 40 c0 35 3 40 23 40 12 1 -9 12 -47 25 -50 18 -90 25 -143 25
-66 0 -73 2 -73 20 0 21 -11 25 -92 34 -38 4 -48 3 -48 -9z"/>
<path d="M3008 4003 c6 -2 18 -2 25 0 6 3 1 5 -13 5 -14 0 -19 -2 -12 -5z"/>
<path d="M6385 3949 c-19 -17 -35 -35 -35 -39 0 -5 -22 -40 -49 -80 -41 -58
-48 -75 -42 -98 9 -33 41 -43 41 -13 0 11 5 23 10 26 6 3 10 -1 10 -9 0 -15
56 -22 152 -19 19 1 29 -5 33 -18 9 -26 30 -36 98 -44 49 -6 57 -5 57 9 0 9
-4 16 -10 16 -5 0 -10 18 -10 40 0 31 4 40 18 40 14 0 15 2 2 10 -20 13 -70
13 -70 0 0 -14 -46 -12 -58 3 -6 6 -13 24 -17 40 -11 42 -33 33 -38 -15 -3
-24 -4 0 -3 53 1 134 -20 158 -89 98z"/>
<path d="M4527 3941 c12 -11 27 -21 32 -21 13 0 91 -39 111 -55 8 -7 35 -23
60 -36 25 -13 65 -38 90 -55 51 -34 146 -87 445 -244 149 -78 202 -109 215
-125 7 -8 18 -15 25 -15 7 0 15 -7 19 -15 3 -8 12 -15 20 -15 21 0 125 -54
123 -64 -1 -5 11 -10 28 -12 22 -2 26 -1 15 6 -10 7 -11 10 -2 10 6 0 12 5 12
10 0 6 -7 10 -15 10 -8 0 -15 5 -15 12 0 6 -3 9 -6 6 -8 -9 -46 31 -40 41 3 4
-6 19 -21 32 -14 13 -22 17 -18 9 8 -13 -12 3 -92 78 -13 12 -28 22 -33 22 -6
0 -10 4 -10 8 0 5 -21 24 -47 42 -27 19 -60 47 -75 62 -14 15 -30 28 -35 28
-5 0 -16 11 -23 25 -7 13 -17 22 -21 19 -5 -3 -20 6 -34 20 -14 15 -30 26 -35
26 -6 0 -10 5 -10 10 0 6 -8 10 -18 10 -22 0 -52 30 -52 52 0 9 -9 18 -20 21
-11 3 -18 1 -15 -3 8 -13 -9 -20 -25 -9 -13 7 -13 10 -1 18 9 6 10 11 2 15 -6
4 -11 2 -11 -3 0 -15 -42 -14 -65 3 -11 7 -32 16 -47 20 -16 3 -28 11 -28 16
0 5 -17 18 -38 29 l-38 19 -27 -29 c-34 -37 -72 -41 -125 -13 -15 7 -35 14
-44 14 -9 0 -19 4 -22 9 -3 5 -20 11 -38 13 -18 3 -42 9 -53 13 -18 7 -18 6 2
-14z"/>
<path d="M2618 3923 c7 -3 16 -2 19 1 4 3 -2 6 -13 5 -11 0 -14 -3 -6 -6z"/>
<path d="M3280 3886 c0 -23 5 -25 58 -31 150 -16 149 -15 125 -3 -13 6 -23 15
-23 20 0 4 -23 8 -50 8 -28 0 -64 7 -80 15 -29 15 -30 15 -30 -9z"/>
<path d="M5460 3873 c0 -4 16 -33 35 -63 23 -35 35 -47 35 -34 0 10 -11 31
-25 46 -14 15 -25 32 -25 37 0 5 -4 13 -10 16 -5 3 -10 3 -10 -2z"/>
<path d="M5155 3790 c3 -5 8 -10 11 -10 2 0 4 5 4 10 0 6 -5 10 -11 10 -5 0
-7 -4 -4 -10z"/>
<path d="M3520 3750 c0 -5 4 -10 9 -10 6 0 13 5 16 10 3 6 -1 10 -9 10 -9 0
-16 -4 -16 -10z"/>
<path d="M3580 3735 c0 -14 5 -25 10 -25 6 0 10 11 10 25 0 14 -4 25 -10 25
-5 0 -10 -11 -10 -25z"/>
<path d="M6448 3673 c6 -2 18 -2 25 0 6 3 1 5 -13 5 -14 0 -19 -2 -12 -5z"/>
<path d="M5135 3578 c11 -7 29 -18 40 -25 11 -6 19 -16 17 -23 -1 -6 2 -9 7
-5 17 10 2 31 -35 48 -41 20 -57 22 -29 5z"/>
<path d="M4808 3563 c7 -3 16 -2 19 1 4 3 -2 6 -13 5 -11 0 -14 -3 -6 -6z"/>
<path d="M4211 2598 c-1 -27 3 -48 7 -48 4 0 6 17 4 38 -5 58 -10 62 -11 10z"/>
<path d="M4105 2550 c-6 -9 11 -50 20 -50 3 0 5 14 5 30 0 29 -13 40 -25 20z"/>
<path d="M2640 2224 c0 -9 5 -14 12 -12 18 6 21 28 4 28 -9 0 -16 -7 -16 -16z"/>
<path d="M2596 2211 c-4 -5 -2 -12 3 -15 5 -4 12 -2 15 3 4 5 2 12 -3 15 -5 4
-12 2 -15 -3z"/>
<path d="M2300 2165 c-11 -13 -10 -14 4 -9 9 3 16 10 16 15 0 13 -6 11 -20 -6z"/>
<path d="M2277 2133 c-4 -3 -7 -13 -7 -22 1 -13 3 -13 11 2 11 19 8 33 -4 20z"/>
<path d="M2225 1930 c-3 -5 -1 -10 4 -10 6 0 11 5 11 10 0 6 -2 10 -4 10 -3 0
-8 -4 -11 -10z"/>
<path d="M1645 1460 c-3 -5 -1 -10 4 -10 6 0 11 5 11 10 0 6 -2 10 -4 10 -3 0
-8 -4 -11 -10z"/>
<path d="M1555 1390 c-3 -5 -2 -10 4 -10 5 0 13 5 16 10 3 6 2 10 -4 10 -5 0
-13 -4 -16 -10z"/>
<path d="M1600 1265 c0 -8 5 -15 10 -15 6 0 10 7 10 15 0 8 -4 15 -10 15 -5 0
-10 -7 -10 -15z"/>
<path d="M1320 1220 c0 -5 5 -10 10 -10 6 0 10 5 10 10 0 6 -4 10 -10 10 -5 0
-10 -4 -10 -10z"/>
<path d="M1288 1203 c7 -3 16 -2 19 1 4 3 -2 6 -13 5 -11 0 -14 -3 -6 -6z"/>
<path d="M1226 1151 c-4 -7 -5 -15 -2 -18 9 -9 19 4 14 18 -4 11 -6 11 -12 0z"/>
<path d="M1155 1089 c-11 -17 1 -21 15 -4 8 9 8 15 2 15 -6 0 -14 -5 -17 -11z"/>
<path d="M1095 1059 c-19 -12 -24 -19 -14 -19 9 0 27 9 40 20 30 25 13 25 -26
-1z"/>
<path d="M990 960 c-13 -8 -13 -10 2 -10 9 0 20 5 23 10 8 13 -5 13 -25 0z"/>
<path d="M915 941 c-6 -11 9 -23 19 -14 9 9 7 23 -3 23 -6 0 -12 -4 -16 -9z"/>
<path d="M957 933 c-4 -3 -7 -11 -7 -17 0 -6 5 -5 12 2 6 6 9 14 7 17 -3 3 -9
2 -12 -2z"/>
<path d="M887 898 c2 -5 13 -8 24 -8 10 0 19 3 19 8 0 4 -11 7 -24 7 -13 0
-22 -3 -19 -7z"/>
<path d="M825 871 c-7 -23 10 -73 18 -51 16 46 17 70 3 70 -8 0 -17 -8 -21
-19z"/>
<path d="M880 869 c0 -5 5 -7 10 -4 6 3 10 8 10 11 0 2 -4 4 -10 4 -5 0 -10
-5 -10 -11z"/>
<path d="M770 829 c0 -5 5 -7 10 -4 6 3 10 8 10 11 0 2 -4 4 -10 4 -5 0 -10
-5 -10 -11z"/>
<path d="M222 370 c0 -14 2 -19 5 -12 2 6 2 18 0 25 -3 6 -5 1 -5 -13z"/>
<path d="M61 214 c0 -11 3 -14 6 -6 3 7 2 16 -1 19 -3 4 -6 -2 -5 -13z"/>
<path d="M112 65 c-8 -10 -31 -15 -62 -15 -47 0 -50 -2 -50 -25 0 -24 3 -25
53 -25 48 0 55 3 65 25 7 14 19 28 27 31 8 4 15 10 15 15 0 14 -34 10 -48 -6z"/>
</g>
</svg>
