<?xml version="1.0" standalone="no"?>
<!DOCTYPE svg PUBLIC "-//W3C//DTD SVG 20010904//EN"
 "http://www.w3.org/TR/2001/REC-SVG-20010904/DTD/svg10.dtd">
<svg version="1.0" xmlns="http://www.w3.org/2000/svg"
 width="1024.000000pt" height="1024.000000pt" viewBox="0 0 1024.000000 1024.000000"
 preserveAspectRatio="xMidYMid meet">

<g transform="translate(0.000000,1024.000000) scale(0.100000,-0.100000)"
fill="#000000" stroke="none">
<path d="M5912 8801 c-3 -52 20 -68 115 -80 184 -23 523 -245 803 -524 162
-161 424 -491 518 -652 35 -60 73 -122 84 -137 10 -15 37 -67 60 -115 22 -49
53 -116 70 -151 16 -35 42 -96 57 -137 16 -40 37 -83 48 -94 20 -22 36 -66 48
-133 6 -29 4 -38 -7 -38 -14 0 -35 32 -132 207 -69 125 -105 170 -238 301
-113 111 -152 142 -212 163 -21 8 -41 19 -43 26 -3 8 -12 7 -31 -3 -15 -8 -33
-14 -39 -14 -41 0 12 -48 97 -87 128 -59 295 -234 372 -393 17 -34 56 -83 104
-130 62 -61 84 -92 119 -165 130 -274 197 -515 235 -852 22 -194 25 -283 10
-283 -5 0 -14 19 -20 43 -23 92 -94 270 -139 349 -145 251 -240 368 -394 482
-71 52 -81 57 -136 59 -110 4 -103 -40 14 -96 148 -71 299 -236 430 -467 93
-164 212 -535 240 -748 29 -216 11 -752 -25 -752 -7 0 -17 47 -66 310 -65 356
-217 626 -440 786 -53 38 -68 44 -112 44 -85 0 -74 -50 22 -95 64 -30 168
-123 232 -208 58 -77 146 -257 173 -357 25 -90 103 -480 121 -601 19 -125 8
-293 -30 -474 -28 -135 -72 -266 -85 -253 -3 3 -1 77 5 164 13 203 1 334 -41
474 -53 180 -103 273 -197 374 -50 54 -51 57 -45 103 7 63 -10 122 -50 175
-75 98 -187 152 -342 163 -44 4 -106 13 -138 21 -90 22 -86 27 -70 -79 42
-271 120 -399 271 -443 77 -23 192 -15 233 15 27 20 30 21 53 5 30 -19 104
-105 133 -154 21 -35 77 -167 95 -225 23 -75 29 -134 37 -330 5 -115 15 -237
21 -270 13 -59 12 -63 -23 -166 -21 -58 -37 -113 -37 -121 0 -52 -109 -304
-203 -468 -198 -347 -330 -525 -562 -755 -263 -261 -570 -488 -825 -608 -164
-78 -181 -84 -573 -216 -89 -30 -136 -50 -133 -58 3 -7 -1 -10 -10 -6 -8 3
-14 -1 -14 -8 0 -10 -3 -11 -8 -3 -5 9 -11 7 -21 -4 -13 -14 -6 -14 75 -9 49
4 112 11 139 16 128 24 381 94 475 131 262 101 550 268 750 434 263 217 539
532 693 788 26 42 62 101 80 130 56 87 210 405 248 513 133 372 194 588 234
834 20 119 44 268 55 331 10 63 24 160 30 215 10 84 18 114 55 190 24 50 68
142 98 205 49 105 106 192 168 261 13 14 24 35 25 47 1 35 -37 27 -96 -19 -55
-44 -96 -101 -155 -219 -45 -91 -65 -116 -77 -98 -4 7 -8 68 -8 135 0 67 -5
178 -11 247 l-10 125 31 93 c74 216 172 416 243 494 l42 45 37 -15 c21 -9 59
-16 86 -16 156 0 287 132 313 316 8 60 -1 247 -13 259 -3 3 -25 -6 -49 -19
-24 -14 -96 -39 -159 -56 -169 -46 -227 -84 -272 -179 -24 -53 -27 -145 -4
-188 15 -29 14 -31 -15 -59 -35 -32 -106 -139 -144 -214 -22 -43 -42 -89 -76
-179 -5 -13 -12 -21 -15 -19 -2 3 -13 75 -24 159 -10 85 -25 188 -34 229 -8
41 -22 116 -31 165 -21 118 -68 288 -106 375 -39 93 -92 348 -86 415 9 91 28
219 38 256 8 33 14 38 57 49 69 17 110 53 144 127 25 54 29 72 24 110 -7 57
-44 131 -73 150 -65 43 -234 -78 -263 -188 -14 -51 -3 -113 25 -139 22 -21 23
-26 20 -183 -3 -159 -10 -217 -24 -217 -9 0 -28 39 -48 100 -34 105 -69 192
-121 300 -30 63 -58 127 -62 141 -13 44 17 194 52 261 35 68 41 120 15 145
-22 23 -74 21 -99 -4 -27 -28 -36 -104 -15 -136 11 -16 17 -57 20 -128 l4
-103 -27 33 c-16 18 -52 72 -80 120 -72 119 -112 170 -281 366 -197 228 -334
358 -519 492 -216 157 -476 288 -611 308 l-44 6 -3 -40z"/>
<path d="M7037 8412 c-9 -10 -20 -32 -23 -50 -9 -43 38 -92 88 -92 43 0 58 15
58 58 0 25 -9 43 -34 68 -38 38 -65 43 -89 16z"/>
<path d="M4186 8243 c-6 -14 -5 -15 5 -6 7 7 10 15 7 18 -3 3 -9 -2 -12 -12z"/>
<path d="M4160 8220 c0 -5 5 -10 11 -10 5 0 7 5 4 10 -3 6 -8 10 -11 10 -2 0
-4 -4 -4 -10z"/>
<path d="M7415 8180 c-3 -6 1 -7 9 -4 18 7 21 14 7 14 -6 0 -13 -4 -16 -10z"/>
<path d="M7460 8186 c0 -1 9 -9 20 -19 15 -13 20 -14 20 -3 0 7 -9 16 -20 19
-11 3 -20 4 -20 3z"/>
<path d="M7485 8030 c-3 -5 -1 -10 4 -10 6 0 11 5 11 10 0 6 -2 10 -4 10 -3 0
-8 -4 -11 -10z"/>
<path d="M6826 7979 c-18 -14 -26 -30 -26 -53 0 -32 29 -75 53 -77 51 -5 87
24 87 70 0 31 -43 81 -69 81 -10 0 -30 -9 -45 -21z"/>
<path d="M3814 7890 c-36 -14 -74 -68 -74 -106 0 -76 47 -124 121 -124 123 0
176 157 75 224 -27 17 -87 20 -122 6z m106 -45 c7 -9 11 -18 8 -21 -8 -7 -58
14 -58 26 0 15 36 12 50 -5z"/>
<path d="M4480 7560 c0 -5 5 -10 11 -10 5 0 7 5 4 10 -3 6 -8 10 -11 10 -2 0
-4 -4 -4 -10z"/>
<path d="M4500 7521 c29 -24 36 -25 46 -9 4 7 3 8 -4 4 -6 -4 -24 1 -39 10
l-28 16 25 -21z"/>
<path d="M4535 7480 c-3 -5 -1 -10 4 -10 6 0 11 5 11 10 0 6 -2 10 -4 10 -3 0
-8 -4 -11 -10z"/>
<path d="M4470 7461 c-8 -6 -17 -8 -22 -5 -4 2 -12 -5 -18 -16 -11 -20 -10
-21 12 -9 13 7 28 12 34 11 6 -1 11 5 11 13 0 8 -1 15 -1 15 -1 0 -8 -4 -16
-9z"/>
<path d="M4510 7449 c0 -5 5 -7 10 -4 6 3 10 8 10 11 0 2 -4 4 -10 4 -5 0 -10
-5 -10 -11z"/>
<path d="M4447 7390 c4 -24 2 -30 -12 -30 -16 0 -17 -2 -3 -17 21 -25 29 -51
18 -58 -5 -3 -7 -13 -4 -23 4 -13 3 -14 -4 -4 -7 11 -12 11 -25 -2 -8 -9 -20
-16 -26 -16 -25 0 2 -163 32 -191 11 -10 15 -19 9 -19 -7 0 -12 -4 -12 -10 0
-5 7 -10 15 -10 18 0 20 -17 4 -22 -8 -3 -7 -8 2 -19 8 -8 15 -20 16 -26 6
-30 76 -124 126 -169 65 -59 190 -132 261 -152 81 -22 230 -26 312 -9 93 20
210 76 265 127 34 33 37 37 12 20 -18 -11 -35 -25 -38 -30 -4 -6 -11 -10 -17
-10 -6 0 -3 9 7 20 10 11 15 23 12 27 -4 3 -7 1 -7 -5 0 -7 -8 -12 -17 -12
-14 1 -9 8 16 30 19 16 39 26 44 23 6 -3 7 -1 3 6 -4 7 -13 10 -19 8 -7 -2
-20 2 -29 10 -10 9 -22 12 -30 7 -9 -6 -6 -10 10 -14 23 -5 28 -26 5 -24 -7 1
-9 -5 -5 -15 5 -14 4 -14 -14 -1 -18 14 -18 14 -5 -2 7 -10 12 -18 10 -19 -51
-11 -57 -9 -55 16 3 21 1 23 -11 13 -11 -9 -11 -13 -1 -19 13 -9 -7 -14 -44
-11 -10 1 -18 -3 -18 -9 0 -5 6 -7 13 -3 9 6 9 5 0 -8 -7 -8 -10 -18 -6 -22 4
-4 0 -4 -9 -1 -13 5 -14 13 -7 38 12 43 11 50 -6 43 -8 -3 -15 -1 -15 4 0 10
22 14 50 10 8 -1 11 2 7 7 -5 4 -19 8 -32 8 -27 1 -48 -34 -34 -56 7 -12 9
-12 9 0 0 8 2 12 6 9 3 -3 -1 -20 -8 -37 -13 -31 -13 -32 -26 -10 -12 19 -12
21 1 16 11 -4 13 0 10 14 -6 23 -21 25 -29 4 -4 -8 -10 -12 -15 -9 -5 3 -9 0
-9 -7 0 -9 -3 -9 -14 0 -11 10 -17 8 -26 -6 -10 -17 -11 -17 -7 2 2 13 10 19
21 18 11 -1 32 12 48 28 21 21 25 29 14 29 -9 0 -16 -7 -16 -15 0 -13 -19 -19
-57 -18 -7 1 -13 -4 -13 -10 0 -6 -3 -7 -7 -3 -15 15 -8 31 17 38 23 6 23 6
-5 5 -19 -1 -30 -7 -30 -17 -1 -19 -35 -14 -51 8 -7 10 -16 14 -19 10 -4 -4
-15 -3 -25 2 -12 6 -23 5 -36 -5 -17 -12 -14 -13 29 -10 26 1 47 -1 47 -6 0
-5 -7 -9 -16 -9 -8 0 -12 -5 -9 -10 3 -6 17 -7 30 -4 23 6 43 -10 26 -20 -5
-4 -12 -2 -16 3 -3 6 -13 7 -21 4 -9 -3 -21 3 -30 16 -18 25 -36 28 -28 4 4
-14 3 -15 -4 -5 -5 8 -13 12 -18 10 -5 -1 -10 7 -12 19 -3 19 3 23 37 29 22 4
38 11 35 15 -3 5 -10 7 -15 3 -5 -3 -17 0 -25 7 -12 10 -13 9 -8 -5 4 -11 1
-16 -11 -16 -11 0 -15 5 -12 15 4 8 1 17 -5 21 -7 5 -9 -2 -6 -20 6 -30 -7
-36 -15 -6 -3 13 -10 18 -21 14 -9 -3 -16 -1 -16 5 0 6 -7 11 -15 11 -27 0
-16 -20 15 -26 17 -4 30 -10 30 -14 0 -5 -9 -6 -20 -3 -11 3 -20 0 -20 -6 0
-6 -5 -11 -11 -11 -5 0 -8 4 -4 9 3 5 0 15 -7 23 -16 17 -22 42 -8 33 6 -4 10
6 10 24 0 20 6 31 18 34 14 4 14 6 -5 12 -13 4 -20 12 -16 19 5 8 3 8 -8 -1
-21 -17 -33 -14 -46 10 -9 15 -12 17 -13 6 0 -8 5 -20 10 -25 13 -13 -5 -68
-19 -60 -10 7 -9 25 2 43 4 6 3 14 -3 18 -5 3 -10 0 -10 -8 0 -9 -10 -14 -25
-14 -14 0 -25 4 -25 10 0 6 3 8 6 5 6 -6 25 11 53 45 17 22 8 22 -14 1 -12
-12 -19 -14 -27 -6 -8 8 -7 13 5 18 17 6 24 25 10 23 -23 -4 -35 3 -29 16 3 8
1 15 -4 15 -6 0 -10 -7 -10 -16 0 -9 -5 -12 -12 -8 -7 4 -10 4 -6 -1 4 -4 3
-14 -4 -22 -8 -11 -8 -17 2 -26 10 -9 11 -9 6 1 -4 6 -2 12 4 12 6 0 9 4 5 9
-3 5 -1 12 4 15 14 9 21 -20 8 -33 -8 -8 -8 -11 1 -11 7 0 12 -4 12 -9 0 -4
-11 -6 -25 -3 -14 2 -25 8 -25 13 0 5 -7 9 -15 9 -18 0 -20 -17 -3 -22 7 -3 3
-7 -9 -10 -19 -5 -21 -3 -13 18 12 30 -3 32 -32 4 -36 -33 -31 -15 6 23 32 33
34 34 40 14 6 -25 15 -19 22 17 3 18 0 24 -8 21 -17 -6 -45 12 -35 22 5 4 12
1 17 -7 8 -12 10 -12 10 -1 0 8 8 20 18 28 15 13 15 13 -6 3 -13 -7 -26 -9
-29 -6 -8 8 18 37 27 31 5 -3 5 7 1 22 -4 16 -16 33 -27 38 -42 22 -46 26 -33
41 9 11 8 15 -4 20 -9 3 -19 14 -22 25 -4 10 -10 19 -16 19 -5 0 0 -16 11 -35
20 -35 15 -54 -8 -29 -7 8 -10 14 -7 14 3 0 1 9 -5 20 -6 11 -15 18 -20 15 -5
-3 -14 3 -19 14 -14 26 -14 28 4 28 10 0 13 -6 9 -19 -5 -16 -3 -17 20 -7 14
7 26 15 26 18 0 13 -48 28 -64 19 -12 -7 -16 -5 -16 7 0 8 5 15 10 15 6 0 9 6
8 13 -2 6 4 12 12 12 8 0 14 -6 13 -12 -2 -7 2 -13 7 -13 23 0 6 29 -27 48
-32 17 -33 16 -26 -18z m25 -150 c-10 -16 -10 -20 2 -20 8 0 17 6 20 13 3 8 9
6 20 -7 9 -11 13 -22 10 -25 -4 -3 -9 0 -11 6 -3 10 -10 10 -25 2 -28 -15 -42
2 -33 41 5 24 10 29 18 21 9 -9 8 -17 -1 -31z m-41 -13 c-6 -8 -8 -17 -4 -21
4 -4 -1 -4 -11 0 -15 6 -17 4 -11 -7 6 -11 5 -12 -5 -2 -12 11 -11 15 6 28 24
18 40 19 25 2z m128 -58 c-20 -12 -39 -11 -39 3 0 6 -9 3 -20 -7 -19 -18 -20
-17 -20 2 0 13 6 19 20 18 11 -1 23 -4 26 -8 14 -14 22 -6 16 16 -5 21 -5 21
13 4 15 -16 16 -20 4 -28z m-109 11 c0 -5 -5 -10 -11 -10 -5 0 -7 5 -4 10 3 6
8 10 11 10 2 0 4 -4 4 -10z m160 -23 c0 -11 -3 -17 -6 -14 -8 8 -44 -55 -37
-65 2 -5 -1 -8 -7 -8 -6 0 -9 8 -6 18 7 23 -8 47 -24 37 -9 -5 -11 -4 -6 4 5
7 16 9 28 5 14 -4 19 -2 16 7 -5 16 11 36 29 36 7 0 13 -9 13 -20z m-140 -13
c0 -2 -9 -4 -20 -4 -11 0 -20 4 -20 9 0 5 9 7 20 4 11 -3 20 -7 20 -9z m40
-18 c0 -8 6 -17 13 -19 9 -4 9 -6 0 -6 -7 -1 -17 8 -23 19 -7 14 -7 20 0 20 5
0 10 -6 10 -14z m-69 -15 c-8 -5 -10 -14 -6 -22 6 -11 5 -11 -5 -2 -14 12 -6
33 13 33 8 0 7 -3 -2 -9z m81 -25 c3 3 9 1 13 -5 3 -7 -2 -11 -14 -11 -12 0
-21 5 -21 11 0 5 -4 8 -8 5 -5 -3 -9 1 -9 9 0 13 3 13 17 0 9 -8 19 -12 22 -9z
m-27 -26 c4 -6 12 -7 18 -3 7 4 5 -1 -3 -11 -11 -14 -15 -15 -19 -5 -2 8 -9
17 -15 21 -8 6 -7 8 1 8 6 0 15 -5 18 -10z m65 -29 c0 -4 -12 -13 -26 -19 -14
-7 -23 -16 -20 -21 3 -5 0 -11 -7 -14 -10 -4 -13 2 -9 19 3 15 11 24 23 24 11
0 18 3 18 8 -3 16 2 23 11 17 6 -3 10 -10 10 -14z m-75 -71 c3 -5 1 -10 -4
-10 -6 0 -11 5 -11 10 0 6 2 10 4 10 3 0 8 -4 11 -10z m55 -10 c8 -5 11 -10 5
-10 -5 0 -17 5 -25 10 -8 5 -10 10 -5 10 6 0 17 -5 25 -10z m35 -10 c3 -5 1
-10 -4 -10 -6 0 -11 5 -11 10 0 6 2 10 4 10 3 0 8 -4 11 -10z m223 -14 c1 -13
-5 -26 -13 -30 -8 -3 -12 -14 -10 -26 2 -11 0 -18 -6 -15 -12 8 -12 45 0 45 5
0 8 8 6 18 -1 9 0 20 2 25 8 15 19 6 21 -17z m-273 4 c3 -5 1 -10 -4 -10 -6 0
-11 5 -11 10 0 6 2 10 4 10 3 0 8 -4 11 -10z m215 -50 c-8 -5 -19 -10 -25 -10
-5 0 -3 5 5 10 8 5 20 10 25 10 6 0 3 -5 -5 -10z m-138 -42 c-6 -6 -7 0 -4 19
5 21 7 23 10 9 2 -10 0 -22 -6 -28z m83 11 c-8 -12 -32 -11 -41 2 -4 8 1 9 16
4 17 -5 21 -4 15 5 -5 9 -4 11 4 6 6 -4 9 -12 6 -17z m35 -24 c0 -8 -2 -15 -4
-15 -2 0 -6 7 -10 15 -3 8 -1 15 4 15 6 0 10 -7 10 -15z m166 -18 c4 -4 0 -7
-9 -7 -9 0 -18 4 -21 9 -7 10 20 9 30 -2z m-141 -7 c-3 -5 -12 -10 -18 -10 -7
0 -6 4 3 10 19 12 23 12 15 0z m95 5 c0 -7 -30 -13 -34 -7 -3 4 4 9 15 9 10 1
19 0 19 -2z m-44 -17 c4 -7 4 -10 -1 -6 -4 4 -14 3 -22 -3 -8 -8 -13 -8 -13
-1 0 6 6 13 13 15 6 3 13 6 14 6 1 1 5 -5 9 -11z m74 -13 c0 -12 -19 -12 -23
0 -4 9 -1 12 9 8 7 -3 14 -7 14 -8z m30 5 c0 -5 -4 -10 -10 -10 -5 0 -10 5
-10 10 0 6 5 10 10 10 6 0 10 -4 10 -10z m-230 -4 c0 -3 -4 -8 -10 -11 -5 -3
-10 -1 -10 4 0 6 5 11 10 11 6 0 10 -2 10 -4z m174 -22 c10 -26 7 -33 -13 -31
-15 1 -17 4 -10 14 6 7 8 17 4 23 -3 5 -2 10 3 10 6 0 13 -7 16 -16z m226 -5
c0 -5 -4 -9 -8 -9 -5 0 -9 7 -9 15 0 8 4 12 9 9 4 -3 8 -9 8 -15z m-300 -9
c-6 -11 -13 -20 -16 -20 -2 0 0 9 6 20 6 11 13 20 16 20 2 0 0 -9 -6 -20z
m190 16 c0 -2 -7 -9 -15 -16 -12 -10 -15 -10 -15 4 0 9 7 16 15 16 8 0 15 -2
15 -4z m-225 -24 c-3 -3 -11 0 -18 7 -9 10 -8 11 6 5 10 -3 15 -9 12 -12z
m560 9 c3 -6 14 -8 25 -6 14 3 18 0 15 -8 -4 -7 0 -4 8 5 17 21 27 14 20 -13
-6 -23 -16 -24 -36 -4 -8 8 -17 11 -21 8 -3 -3 -12 -1 -19 5 -18 15 -30 3 -16
-15 7 -8 8 -13 1 -13 -15 0 -22 26 -9 39 13 13 24 14 32 2z m-300 -11 c4 -7
14 -6 28 1 20 11 20 9 -3 -13 -26 -26 -43 -27 -33 -3 3 8 0 15 -6 15 -6 0 -11
-4 -11 -10 0 -5 -8 -10 -17 -10 -16 1 -16 2 1 15 23 18 33 19 41 5z m-74 -17
c13 -16 12 -17 -3 -4 -10 7 -18 15 -18 17 0 8 8 3 21 -13z m144 7 c3 -5 1 -10
-4 -10 -6 0 -11 5 -11 10 0 6 2 10 4 10 3 0 8 -4 11 -10z m79 -2 c4 4 14 -1
21 -12 8 -10 18 -16 23 -12 5 3 9 -1 9 -9 0 -17 -33 -3 -40 17 -3 10 -7 10
-21 -1 -9 -8 -19 -11 -23 -7 -3 3 -1 6 7 6 10 0 10 4 -1 18 -12 15 -12 16 2 5
9 -7 19 -9 23 -5z m-264 -2 c0 -2 -11 -11 -24 -20 -19 -12 -27 -13 -32 -3 -4
6 -4 9 1 5 4 -4 17 -1 29 7 21 16 26 18 26 11z m424 -21 c-4 -8 -8 -15 -10
-15 -2 0 -4 7 -4 15 0 8 4 15 10 15 5 0 7 -7 4 -15z m-204 -15 c0 -5 -2 -10
-4 -10 -3 0 -8 5 -11 10 -3 6 -1 10 4 10 6 0 11 -4 11 -10z m160 1 c0 -5 -9
-7 -20 -4 -11 3 -20 7 -20 9 0 2 9 4 20 4 11 0 20 -4 20 -9z m-90 -31 c0 -5
-2 -10 -4 -10 -3 0 -8 5 -11 10 -3 6 -1 10 4 10 6 0 11 -4 11 -10z"/>
<path d="M4510 7411 c0 -5 7 -11 14 -14 10 -4 13 -1 9 9 -6 15 -23 19 -23 5z"/>
<path d="M4596 7405 c-9 -26 -7 -32 5 -12 6 10 9 21 6 23 -2 3 -7 -2 -11 -11z"/>
<path d="M4406 7402 c-4 -8 -26 -125 -26 -144 0 -21 22 -4 35 28 19 46 19 53
-1 28 -15 -19 -16 -19 -9 1 4 11 8 26 9 33 1 8 9 18 17 24 11 8 11 9 -3 4 -10
-3 -18 -1 -18 3 0 5 5 11 12 13 9 3 9 6 1 11 -7 4 -14 4 -17 -1z"/>
<path d="M3796 7371 c-32 -35 3 -83 43 -61 26 14 32 46 12 64 -23 21 -34 20
-55 -3z"/>
<path d="M4530 7359 c0 -5 5 -7 10 -4 6 3 10 8 10 11 0 2 -4 4 -10 4 -5 0 -10
-5 -10 -11z"/>
<path d="M4574 7339 c-3 -6 -2 -15 3 -20 5 -5 9 -1 9 11 0 23 -2 24 -12 9z"/>
<path d="M4602 7310 c-7 -12 -8 -20 -2 -20 5 0 10 -5 10 -11 0 -5 -4 -7 -10
-4 -6 3 -7 -1 -4 -10 4 -9 9 -14 12 -11 4 5 13 76 9 76 -1 0 -8 -9 -15 -20z"/>
<path d="M4427 7293 c-4 -3 -7 -11 -7 -17 0 -6 5 -5 12 2 6 6 9 14 7 17 -3 3
-9 2 -12 -2z"/>
<path d="M4638 7273 c7 -3 16 -2 19 1 4 3 -2 6 -13 5 -11 0 -14 -3 -6 -6z"/>
<path d="M4600 7230 c0 -6 7 -10 15 -10 8 0 15 2 15 4 0 2 -7 6 -15 10 -8 3
-15 1 -15 -4z"/>
<path d="M4700 7140 c0 -5 5 -10 11 -10 5 0 7 5 4 10 -3 6 -8 10 -11 10 -2 0
-4 -4 -4 -10z"/>
<path d="M6487 7143 c-4 -3 -7 -15 -7 -25 0 -26 24 -17 28 10 3 21 -8 29 -21
15z"/>
<path d="M4700 7100 c0 -5 5 -10 11 -10 5 0 7 5 4 10 -3 6 -8 10 -11 10 -2 0
-4 -4 -4 -10z"/>
<path d="M4635 7091 c-3 -5 -1 -12 5 -16 5 -3 10 1 10 9 0 18 -6 21 -15 7z"/>
<path d="M7216 7048 c-20 -28 -20 -51 -1 -87 25 -50 96 -44 126 10 8 17 6 27
-13 54 -33 50 -86 60 -112 23z"/>
<path d="M3726 7041 c-22 -25 -13 -58 20 -73 27 -12 49 0 60 34 7 23 -21 58
-46 58 -9 0 -25 -9 -34 -19z"/>
<path d="M4781 6998 c1 -18 2 -19 6 -5 2 9 9 14 15 11 7 -4 8 -2 4 4 -12 20
-26 13 -25 -10z"/>
<path d="M4950 6939 c0 -5 9 -9 20 -9 11 0 20 2 20 4 0 2 -9 6 -20 9 -11 3
-20 1 -20 -4z"/>
<path d="M8068 6944 c-4 -3 -14 -7 -24 -8 -10 -2 -21 -9 -25 -17 -22 -45 -39
-92 -39 -105 0 -8 -7 -25 -15 -38 -14 -21 -48 -167 -40 -174 10 -10 49 79 62
145 14 72 48 149 80 181 13 13 17 22 10 22 -2 0 -6 -3 -9 -6z"/>
<path d="M1605 6920 c-3 -5 -1 -10 4 -10 6 0 11 5 11 10 0 6 -2 10 -4 10 -3 0
-8 -4 -11 -10z"/>
<path d="M4823 6904 c0 -8 6 -14 14 -14 7 0 13 4 13 9 0 5 -6 11 -13 14 -8 3
-14 -1 -14 -9z"/>
<path d="M6194 6876 c-29 -29 -34 -41 -34 -80 0 -88 47 -136 131 -136 35 0 48
6 80 39 31 31 39 46 39 75 0 80 -54 136 -132 136 -43 0 -54 -4 -84 -34z m121
-9 c10 -8 15 -19 11 -25 -10 -17 -42 -15 -61 4 -13 14 -14 19 -3 25 18 12 31
11 53 -4z"/>
<path d="M4920 6886 c0 -2 9 -6 20 -9 11 -3 18 -1 14 4 -5 9 -34 13 -34 5z"/>
<path d="M4985 6880 c4 -6 11 -8 16 -5 14 9 11 15 -7 15 -8 0 -12 -5 -9 -10z"/>
<path d="M5060 6870 c0 -5 5 -10 11 -10 5 0 7 5 4 10 -3 6 -8 10 -11 10 -2 0
-4 -4 -4 -10z"/>
<path d="M1545 6849 c-11 -17 1 -21 15 -4 8 9 8 15 2 15 -6 0 -14 -5 -17 -11z"/>
<path d="M5275 6850 c3 -5 8 -10 11 -10 2 0 4 5 4 10 0 6 -5 10 -11 10 -5 0
-7 -4 -4 -10z"/>
<path d="M8486 6845 c-20 -21 -21 -54 0 -83 21 -31 61 -26 88 11 19 26 19 30
5 55 -18 33 -68 42 -93 17z"/>
<path d="M5000 6839 c0 -5 5 -7 10 -4 6 3 10 8 10 11 0 2 -4 4 -10 4 -5 0 -10
-5 -10 -11z"/>
<path d="M5314 6835 c1 -8 8 -21 16 -28 12 -10 12 -9 2 4 -6 9 -9 18 -6 21 3
3 1 9 -4 12 -6 3 -9 -1 -8 -9z"/>
<path d="M5026 6821 c-4 -7 -5 -15 -2 -18 9 -9 19 4 14 18 -4 11 -6 11 -12 0z"/>
<path d="M5280 6820 c-9 -6 -10 -10 -3 -10 6 0 15 5 18 10 8 12 4 12 -15 0z"/>
<path d="M1561 6784 c0 -11 3 -14 6 -6 3 7 2 16 -1 19 -3 4 -6 -2 -5 -13z"/>
<path d="M5246 6785 c-3 -9 0 -15 9 -15 16 0 20 16 6 24 -5 3 -11 -1 -15 -9z"/>
<path d="M1400 6729 c0 -5 5 -7 10 -4 6 3 10 8 10 11 0 2 -4 4 -10 4 -5 0 -10
-5 -10 -11z"/>
<path d="M1300 6709 c0 -5 5 -7 10 -4 6 3 10 8 10 11 0 2 -4 4 -10 4 -5 0 -10
-5 -10 -11z"/>
<path d="M1520 6664 c0 -8 5 -12 10 -9 6 4 8 11 5 16 -9 14 -15 11 -15 -7z"/>
<path d="M1165 6660 c-3 -5 -1 -10 4 -10 6 0 11 5 11 10 0 6 -2 10 -4 10 -3 0
-8 -4 -11 -10z"/>
<path d="M1550 6662 c0 -5 7 -9 15 -9 8 0 15 4 15 9 0 4 -7 8 -15 8 -8 0 -15
-4 -15 -8z"/>
<path d="M1360 6640 c0 -6 7 -10 15 -10 8 0 15 2 15 4 0 2 -7 6 -15 10 -8 3
-15 1 -15 -4z"/>
<path d="M1524 6625 c-18 -14 -18 -14 4 -8 12 3 22 9 22 14 0 12 -3 11 -26 -6z"/>
<path d="M1120 6610 c0 -5 5 -10 11 -10 5 0 7 5 4 10 -3 6 -8 10 -11 10 -2 0
-4 -4 -4 -10z"/>
<path d="M1560 6590 c0 -6 7 -10 15 -10 8 0 15 2 15 4 0 2 -7 6 -15 10 -8 3
-15 1 -15 -4z"/>
<path d="M1416 6583 c5 -5 12 -12 16 -18 4 -6 8 -2 8 8 0 9 -7 17 -17 17 -9 0
-12 -3 -7 -7z"/>
<path d="M1351 6564 c0 -11 3 -14 6 -6 3 7 2 16 -1 19 -3 4 -6 -2 -5 -13z"/>
<path d="M1217 6563 c-14 -14 -6 -20 19 -15 19 3 22 7 12 13 -16 11 -23 11
-31 2z"/>
<path d="M1110 6550 c0 -5 7 -10 15 -10 8 0 15 5 15 10 0 6 -7 10 -15 10 -8 0
-15 -4 -15 -10z"/>
<path d="M7527 6546 c-3 -7 0 -19 6 -25 17 -17 27 -13 21 7 -5 14 -4 15 5 2
14 -21 -4 -37 -24 -20 -8 7 -15 8 -15 2 0 -5 7 -15 16 -22 23 -20 56 16 43 48
-9 24 -44 30 -52 8z"/>
<path d="M1275 6540 c3 -5 8 -10 11 -10 2 0 4 5 4 10 0 6 -5 10 -11 10 -5 0
-7 -4 -4 -10z"/>
<path d="M1095 6520 c3 -5 8 -10 11 -10 2 0 4 5 4 10 0 6 -5 10 -11 10 -5 0
-7 -4 -4 -10z"/>
<path d="M1161 6509 c-18 -6 -31 -13 -28 -16 8 -8 67 7 67 18 0 5 -1 9 -2 8
-2 0 -18 -5 -37 -10z"/>
<path d="M1310 6510 c0 -5 5 -10 11 -10 5 0 7 5 4 10 -3 6 -8 10 -11 10 -2 0
-4 -4 -4 -10z"/>
<path d="M1430 6500 c0 -11 5 -20 10 -20 6 0 10 9 10 20 0 11 -4 20 -10 20 -5
0 -10 -9 -10 -20z"/>
<path d="M1078 6493 c7 -3 16 -2 19 1 4 3 -2 6 -13 5 -11 0 -14 -3 -6 -6z"/>
<path d="M1280 6490 c0 -5 5 -10 11 -10 5 0 7 5 4 10 -3 6 -8 10 -11 10 -2 0
-4 -4 -4 -10z"/>
<path d="M1260 6470 c0 -5 5 -10 11 -10 5 0 7 5 4 10 -3 6 -8 10 -11 10 -2 0
-4 -4 -4 -10z"/>
<path d="M1050 6455 c-11 -13 -8 -15 19 -15 18 0 39 7 47 15 13 12 13 15 2 15
-8 0 -20 -6 -26 -12 -10 -10 -14 -10 -21 0 -6 10 -10 10 -21 -3z"/>
<path d="M1296 6455 c4 -8 8 -15 10 -15 2 0 4 7 4 15 0 8 -4 15 -10 15 -5 0
-7 -7 -4 -15z"/>
<path d="M1156 6451 c-4 -7 -5 -15 -2 -18 9 -9 19 4 14 18 -4 11 -6 11 -12 0z"/>
<path d="M1383 6400 c0 -30 2 -42 4 -26 4 22 7 26 14 15 7 -11 9 -9 9 9 0 13
-4 21 -9 17 -5 -3 -12 5 -14 17 -2 13 -4 -2 -4 -32z"/>
<path d="M1455 6430 c-4 -12 -5 -24 -2 -27 3 -2 8 5 12 17 4 12 5 24 2 27 -3
2 -8 -5 -12 -17z"/>
<path d="M1181 6424 c0 -11 3 -14 6 -6 3 7 2 16 -1 19 -3 4 -6 -2 -5 -13z"/>
<path d="M1260 6430 c0 -5 5 -10 11 -10 5 0 7 5 4 10 -3 6 -8 10 -11 10 -2 0
-4 -4 -4 -10z"/>
<path d="M1336 6432 c-3 -6 -1 -14 5 -17 15 -10 25 3 12 16 -7 7 -13 7 -17 1z"/>
<path d="M6382 6418 c2 -15 10 -23 23 -23 13 0 21 8 23 23 3 18 -1 22 -23 22
-22 0 -26 -4 -23 -22z"/>
<path d="M1490 6411 c0 -9 30 -24 36 -18 2 1 -6 8 -16 15 -11 7 -20 8 -20 3z"/>
<path d="M1000 6401 c0 -6 6 -11 13 -11 8 0 18 -9 23 -21 9 -20 10 -20 33 5
l24 26 -35 -2 c-19 -1 -40 2 -46 6 -7 4 -12 2 -12 -3z"/>
<path d="M1225 6390 c-8 -13 -1 -24 14 -19 6 3 7 10 2 18 -6 10 -10 10 -16 1z"/>
<path d="M1575 6390 c-3 -5 -1 -10 4 -10 6 0 11 5 11 10 0 6 -2 10 -4 10 -3 0
-8 -4 -11 -10z"/>
<path d="M1420 6370 c0 -5 5 -10 10 -10 6 0 10 -5 10 -11 0 -6 -6 -9 -14 -6
-15 6 -56 -32 -56 -51 0 -6 -7 -9 -15 -6 -8 4 -15 1 -15 -5 0 -6 7 -11 15 -11
8 0 15 -5 15 -11 0 -8 4 -8 14 0 11 10 15 8 19 -6 4 -17 4 -17 12 1 6 14 3 23
-11 33 -19 14 -19 14 0 29 11 8 28 14 38 14 21 0 22 9 4 33 -15 19 -26 22 -26
7z"/>
<path d="M980 6349 c0 -5 5 -7 10 -4 6 3 10 8 10 11 0 2 -4 4 -10 4 -5 0 -10
-5 -10 -11z"/>
<path d="M1268 6353 c7 -3 16 -2 19 1 4 3 -2 6 -13 5 -11 0 -14 -3 -6 -6z"/>
<path d="M1077 6343 c-9 -2 -15 -9 -12 -14 4 -5 17 -6 30 -3 24 6 43 -10 25
-21 -15 -9 -12 -34 5 -51 8 -9 15 -11 15 -5 0 6 5 11 11 11 6 0 9 -7 5 -15 -3
-8 0 -15 6 -15 19 0 -6 -21 -28 -24 -11 -2 -22 2 -26 8 -4 6 -10 7 -15 3 -4
-5 -1 -12 7 -18 13 -8 13 -10 0 -19 -19 -12 -30 -13 -30 -1 0 5 -7 12 -15 15
-13 5 -12 1 2 -19 23 -31 27 -31 54 3 12 15 19 19 16 10 -7 -20 18 -46 26 -26
3 7 6 3 6 -9 2 -40 30 -25 50 25 8 17 19 32 26 32 7 0 16 7 19 16 3 8 2 12 -4
9 -10 -6 -50 15 -50 28 0 4 4 6 9 2 5 -3 12 -2 14 3 3 4 -6 13 -20 19 -25 12
-25 11 -19 -19 3 -17 6 -34 6 -39 0 -5 6 -7 13 -5 6 1 9 1 5 -1 -5 -3 -8 -13
-8 -23 0 -10 -4 -22 -10 -25 -6 -3 -7 1 -4 9 3 9 1 16 -5 16 -6 0 -11 -5 -11
-11 0 -5 -5 -7 -11 -4 -6 5 -5 11 5 18 15 12 16 27 1 60 -4 10 -3 29 3 41 5
13 6 29 2 36 -6 9 -9 6 -12 -11 l-3 -24 -20 23 c-20 22 -25 24 -58 15z m64
-56 c-1 -12 -15 -9 -19 4 -3 6 1 10 8 8 6 -3 11 -8 11 -12z"/>
<path d="M1327 6344 c-3 -3 -3 -12 -1 -19 4 -9 -5 -15 -28 -18 -30 -3 -30 -4
8 -5 30 -2 44 3 48 14 9 25 -10 45 -27 28z"/>
<path d="M1500 6340 c0 -5 4 -10 9 -10 6 0 13 5 16 10 3 6 -1 10 -9 10 -9 0
-16 -4 -16 -10z"/>
<path d="M970 6320 c0 -5 5 -10 11 -10 5 0 7 5 4 10 -3 6 -8 10 -11 10 -2 0
-4 -4 -4 -10z"/>
<path d="M1000 6320 c0 -5 4 -10 9 -10 6 0 13 5 16 10 3 6 -1 10 -9 10 -9 0
-16 -4 -16 -10z"/>
<path d="M1487 6313 c-24 -6 -59 -41 -53 -52 8 -12 -31 -44 -43 -36 -13 8 -14
-5 -1 -25 7 -12 12 -11 27 7 10 12 23 30 29 40 7 10 15 15 19 11 4 -4 1 -18
-8 -31 -9 -14 -12 -29 -7 -37 6 -9 10 -6 16 11 l8 24 6 -25 c4 -15 1 -34 -8
-47 -18 -28 -37 -31 -22 -3 8 16 8 20 -4 20 -8 0 -17 6 -20 13 -5 10 -7 10
-12 0 -3 -7 -12 -13 -20 -13 -8 0 -14 -10 -14 -25 0 -14 5 -25 10 -25 6 0 10
-4 10 -10 0 -5 -7 -10 -16 -10 -20 0 -13 -24 9 -28 12 -2 17 4 18 20 1 23 1
23 9 -2 4 -14 8 -34 8 -45 0 -17 -1 -17 -5 -2 -3 12 -11 16 -24 12 -14 -5 -22
1 -31 22 -7 15 -17 31 -23 36 -7 4 -6 10 2 15 7 4 15 24 17 43 4 28 1 37 -17
44 -11 6 -23 17 -25 25 -4 12 -2 13 9 3 18 -18 40 -16 33 1 -9 25 -47 23 -72
-2 -12 -13 -19 -28 -16 -34 5 -7 12 -4 21 7 12 17 13 17 13 2 0 -9 3 -17 8
-17 4 0 12 -11 19 -25 12 -27 7 -31 -18 -12 -9 7 -14 18 -12 25 3 6 1 12 -4
12 -21 -1 -30 -18 -28 -53 2 -20 0 -35 -5 -32 -5 3 -11 -1 -13 -7 -3 -7 -6 -3
-6 9 -1 12 -7 24 -13 26 -8 3 -5 6 6 6 11 1 16 6 13 15 -3 7 0 19 6 25 6 6 8
14 4 17 -10 10 -39 -17 -33 -32 3 -7 -2 -15 -10 -18 -8 -3 -14 -12 -14 -19 0
-8 -6 -20 -14 -26 -12 -10 -21 -6 -46 21 l-32 33 -15 -22 c-9 -13 -21 -23 -27
-23 -7 0 -6 4 2 9 10 6 5 11 -17 21 -17 7 -31 16 -31 21 0 5 -5 9 -11 9 -6 0
-17 7 -26 16 -18 18 -53 15 -64 -6 -4 -8 -13 -35 -19 -60 -7 -25 -21 -72 -31
-105 -28 -89 -59 -215 -59 -238 0 -11 -4 -34 -10 -51 -28 -91 -61 -498 -54
-681 2 -55 6 -170 8 -255 5 -172 22 -313 67 -560 124 -689 471 -1405 937
-1933 248 -280 473 -484 762 -688 592 -419 1351 -694 2045 -740 211 -14 407
-9 413 10 3 8 0 11 -7 7 -6 -4 -11 0 -11 9 0 9 5 13 10 10 6 -3 10 3 10 15 0
15 -4 19 -12 13 -7 -4 -17 -8 -23 -8 -5 0 -9 -9 -8 -19 1 -12 -2 -15 -9 -8 -7
7 -6 18 3 33 11 23 11 23 -6 9 -17 -14 -17 -13 -10 10 4 14 13 28 19 32 6 4 7
8 3 8 -5 0 -1 7 7 16 10 9 24 13 36 9 11 -3 20 -2 20 3 0 4 17 13 38 19 32 9
19 11 -83 12 -378 4 -685 65 -1015 202 -164 68 -224 102 -430 240 -323 216
-590 474 -787 759 -266 385 -332 496 -386 647 -15 40 -49 123 -77 185 -28 62
-74 171 -101 241 -39 102 -62 146 -114 215 -35 47 -89 136 -119 197 -63 126
-103 186 -177 262 -58 60 -53 59 -154 23 -163 -59 -335 42 -399 233 -19 55
-58 288 -51 296 3 2 22 -3 41 -13 20 -9 82 -24 138 -32 141 -21 182 -32 249
-67 113 -59 179 -167 163 -266 -5 -34 -2 -41 40 -82 62 -60 129 -160 202 -304
62 -120 105 -185 116 -174 3 3 -3 41 -14 85 -25 101 -45 221 -69 406 -13 99
-26 160 -40 185 -11 21 -56 116 -100 211 -91 197 -158 311 -205 347 -39 30
-50 31 -124 6 -171 -57 -362 89 -377 289 -9 118 -12 271 -6 268 3 -2 29 -15
57 -30 35 -18 80 -31 139 -38 155 -19 245 -67 299 -160 48 -82 59 -119 47
-170 -5 -24 -14 -46 -21 -50 -6 -4 12 -30 48 -67 46 -48 76 -95 142 -224 46
-90 94 -184 107 -209 l24 -45 -8 55 c-4 30 -7 177 -5 325 4 335 5 572 4 605
-4 70 -2 103 6 114 5 6 13 43 17 81 4 39 18 137 31 219 13 83 21 152 19 154
-2 3 -7 -14 -11 -37 -4 -24 -10 -39 -13 -34 -13 18 -34 14 -28 -7 6 -23 3 -24
-22 -8 -15 9 -18 19 -14 46 5 25 3 33 -5 28 -7 -4 -12 -15 -12 -24 0 -11 -8
-18 -20 -18 -14 0 -20 7 -20 22 0 12 -7 24 -15 28 -8 3 -15 1 -15 -4 0 -6 5
-10 10 -10 6 0 10 -9 10 -20 0 -11 -6 -20 -14 -20 -7 0 -16 -9 -19 -20 -3 -11
-13 -20 -22 -20 -14 0 -15 -3 -6 -14 6 -7 9 -20 6 -29 -5 -11 3 -16 29 -21 50
-10 63 -33 59 -109 -2 -57 0 -66 21 -86 14 -13 22 -29 20 -36 -3 -7 -1 -16 5
-20 6 -3 11 -14 11 -23 0 -15 -2 -15 -10 -2 -8 12 -10 9 -10 -13 0 -16 -4 -26
-10 -22 -5 3 -7 12 -3 20 3 10 -1 15 -12 15 -11 0 -15 5 -12 15 4 8 2 17 -2
20 -9 5 -25 -32 -21 -50 1 -5 -4 -4 -11 3 -10 9 -10 15 -1 24 7 7 12 20 12 30
0 11 5 15 14 12 8 -3 17 0 21 6 12 20 -3 22 -37 6 -18 -9 -28 -12 -21 -5 17
17 5 66 -24 95 l-23 23 6 -26 c7 -26 7 -27 -13 -7 -11 10 -23 32 -27 47 -5 22
-11 27 -26 22 -18 -6 -20 -1 -21 37 0 24 -2 53 -5 66 -2 12 1 22 8 22 6 0 9 3
5 6 -3 3 -24 -13 -46 -35 -34 -35 -41 -49 -41 -81 0 -23 5 -40 11 -40 7 0 9
10 5 26 -6 24 -6 25 9 10 9 -9 21 -13 27 -10 7 5 9 -2 4 -19 -3 -14 -2 -29 4
-32 5 -3 10 -11 10 -16 0 -6 -7 -4 -15 5 -8 8 -15 20 -15 26 0 8 -6 8 -20 0
-32 -17 -41 -3 -34 49 l6 48 -38 1 c-30 1 -46 9 -66 32 -15 16 -32 30 -38 30
-5 0 -10 5 -10 11 0 5 5 7 10 4 6 -3 10 1 10 9 0 9 -3 15 -7 15 -30 -5 -49 3
-50 21 -2 24 5 25 29 3 10 -9 18 -12 18 -7 0 16 -35 41 -50 36 -12 -4 -12 -2
-3 8 9 9 9 19 2 33 -12 21 -5 32 33 51 12 7 22 18 21 24 -2 7 2 12 7 12 12 0
12 -2 0 -35 -7 -18 -15 -25 -25 -21 -9 3 -15 0 -15 -9 0 -15 23 -11 48 8 8 6
17 5 27 -3 11 -9 18 -10 28 -1 8 6 18 7 22 3 5 -4 5 -1 1 6 -4 6 -3 12 2 12
16 0 34 62 22 74 -7 7 -10 2 -10 -16 0 -28 -24 -56 -34 -39 -4 5 -2 12 4 16
16 10 12 62 -6 79 -14 15 -11 20 9 17 4 0 7 4 7 9 0 6 -11 10 -25 10 -16 0
-25 6 -25 15 0 8 -4 15 -10 15 -5 0 -7 -7 -4 -15 3 -8 -2 -24 -11 -37 -16 -22
-17 -22 -11 -1 4 12 2 24 -3 27 -6 4 -13 -10 -17 -31 -7 -36 -18 -53 -38 -53
-5 0 -2 8 7 18 18 20 22 42 8 42 -12 0 -42 90 -35 102 3 5 12 1 20 -9 12 -17
13 -16 14 10 0 15 -1 26 -2 26 -2 -1 -11 -3 -21 -6z m-441 -190 c-8 -9 -36 17
-36 33 0 10 7 7 21 -7 11 -11 18 -23 15 -26z m-93 22 c-3 -9 -8 -14 -10 -11
-3 3 -2 9 2 15 9 16 15 13 8 -4z m474 -7 c-3 -8 -6 -5 -6 6 -1 11 2 17 5 13 3
-3 4 -12 1 -19z m-437 -8 c0 -5 -4 -10 -10 -10 -5 0 -10 5 -10 10 0 6 5 10 10
10 6 0 10 -4 10 -10z m149 -14 c-1 -20 -18 -52 -18 -36 -1 8 -4 25 -7 38 -5
18 -3 21 10 16 9 -3 16 -11 15 -18z m171 14 c0 -5 -2 -10 -4 -10 -3 0 -8 5
-11 10 -3 6 -1 10 4 10 6 0 11 -4 11 -10z m-350 -31 c0 -5 -11 -9 -25 -9 -14
0 -25 5 -25 11 0 5 4 8 9 4 5 -3 12 -1 16 5 7 12 25 4 25 -11z m370 13 c0 -4
-9 -13 -20 -20 -11 -7 -20 -19 -20 -27 0 -8 -4 -15 -9 -15 -6 0 -9 9 -8 19 0
11 5 17 9 15 4 -3 8 1 8 10 0 8 6 17 13 19 19 8 27 8 27 -1z m130 -28 c0 -8
-5 -14 -11 -14 -5 0 -7 5 -4 10 3 6 1 10 -4 10 -6 0 -11 7 -11 16 0 14 3 14
15 4 8 -7 15 -19 15 -26z m50 25 c0 -10 -27 -19 -34 -12 -11 12 -6 19 14 19
11 0 20 -3 20 -7z m39 -6 c-7 -10 -15 -20 -16 -22 -2 -2 -3 5 -3 17 0 14 6 22
16 22 14 0 15 -3 3 -17z m-472 -5 c0 -7 -9 -22 -20 -33 -12 -12 -17 -14 -13
-5 3 8 9 23 12 33 7 20 21 23 21 5z m-53 -25 c3 -11 0 -26 -5 -34 -6 -9 -8 -2
-7 24 1 39 6 43 12 10z m-24 7 c0 -5 -4 -10 -9 -10 -6 0 -13 5 -16 10 -3 6 1
10 9 10 9 0 16 -4 16 -10z m157 -12 c-3 -8 -6 -5 -6 6 -1 11 2 17 5 13 3 -3 4
-12 1 -19z m73 -13 c-15 -18 -41 -8 -33 13 6 13 8 13 14 -4 7 -17 8 -17 15 6
4 13 9 19 12 12 2 -7 -1 -19 -8 -27z m378 4 c-3 -8 -7 -3 -11 10 -4 17 -3 21
5 13 5 -5 8 -16 6 -23z m-258 6 c0 -8 -4 -15 -10 -15 -5 0 -10 7 -10 15 0 8 5
15 10 15 6 0 10 -7 10 -15z m-260 -5 c0 -5 -4 -10 -10 -10 -5 0 -10 5 -10 10
0 6 5 10 10 10 6 0 10 -4 10 -10z m400 0 c0 -5 -2 -10 -4 -10 -3 0 -8 5 -11
10 -3 6 -1 10 4 10 6 0 11 -4 11 -10z m-323 -32 c-3 -8 -6 -5 -6 6 -1 11 2 17
5 13 3 -3 4 -12 1 -19z m301 10 c15 -15 16 -38 2 -38 -5 0 -10 7 -10 15 0 8
-4 15 -10 15 -5 0 -10 5 -10 10 0 14 13 13 28 -2z m-324 -14 c3 -8 2 -12 -4
-9 -6 3 -10 10 -10 16 0 14 7 11 14 -7z m196 -17 c0 -5 -4 -5 -10 -2 -5 3 -10
14 -10 23 0 15 2 15 10 2 5 -8 10 -19 10 -23z m65 23 c3 -5 1 -10 -4 -10 -6 0
-11 5 -11 10 0 6 2 10 4 10 3 0 8 -4 11 -10z m-13 -20 c11 0 18 -7 17 -17 0
-11 -3 -13 -6 -5 -2 6 -13 12 -23 12 -10 0 -21 8 -25 18 -5 14 -4 15 6 5 7 -7
21 -13 31 -13z m-155 -22 c-3 -7 -5 -2 -5 12 0 14 2 19 5 13 2 -7 2 -19 0 -25z
m210 12 c1 -11 -2 -18 -8 -15 -11 7 -12 35 -1 35 4 0 8 -9 9 -20z m-80 -52
c-3 -8 -6 -5 -6 6 -1 11 2 17 5 13 3 -3 4 -12 1 -19z m103 2 c0 -5 -5 -10 -11
-10 -5 0 -7 -4 -4 -10 3 -5 1 -10 -4 -10 -6 0 -11 9 -11 20 0 11 7 20 15 20 8
0 15 -4 15 -10z m14 -53 c-7 -18 -34 -24 -34 -7 0 6 7 10 16 10 11 0 14 5 9
18 -4 12 -3 14 5 6 6 -6 8 -18 4 -27z m-408 11 c4 -7 4 -10 -1 -6 -4 4 -15 2
-24 -5 -14 -11 -14 -10 -2 6 16 20 18 21 27 5z m859 -27 c-6 -5 -25 10 -25 20
0 5 6 4 14 -3 8 -7 12 -15 11 -17z m-415 9 c0 -5 -2 -10 -4 -10 -3 0 -8 5 -11
10 -3 6 -1 10 4 10 6 0 11 -4 11 -10z m463 -7 c-7 -2 -19 -2 -25 0 -7 3 -2 5
12 5 14 0 19 -2 13 -5z m-1059 -29 c5 -14 4 -15 -9 -4 -17 14 -19 20 -6 20 5
0 12 -7 15 -16z m207 -1 c13 -16 12 -17 -3 -4 -17 13 -22 21 -14 21 2 0 10 -8
17 -17z m349 7 c0 -5 -4 -10 -10 -10 -5 0 -10 5 -10 10 0 6 5 10 10 10 6 0 10
-4 10 -10z m503 3 c-13 -2 -33 -2 -45 0 -13 2 -3 4 22 4 25 0 35 -2 23 -4z
m-953 -33 c0 -5 -5 -10 -11 -10 -5 0 -7 5 -4 10 3 6 8 10 11 10 2 0 4 -4 4
-10z m930 -14 c14 -18 14 -19 -8 -7 -12 7 -20 17 -16 22 3 6 7 9 8 7 1 -2 8
-12 16 -22z m-444 -18 c-9 -12 -16 -17 -16 -10 0 14 23 42 29 37 1 -2 -4 -14
-13 -27z m159 -8 c3 -5 -1 -10 -10 -10 -9 0 -13 5 -10 10 3 6 8 10 10 10 2 0
7 -4 10 -10z m79 -6 c5 -14 4 -15 -9 -4 -17 14 -19 20 -6 20 5 0 12 -7 15 -16z
m-679 -14 c-8 -13 8 -13 22 1 7 7 12 6 16 -5 4 -9 2 -16 -3 -16 -5 0 -7 -9 -5
-20 5 -26 1 -25 -29 7 -24 26 -26 43 -5 43 6 0 7 -4 4 -10z m393 -25 c-3 -3
-9 2 -12 12 -6 14 -5 15 5 6 7 -7 10 -15 7 -18z m146 10 c-4 -8 -8 -15 -10
-15 -2 0 -4 7 -4 15 0 8 4 15 10 15 5 0 7 -7 4 -15z m56 -12 c0 -19 -13 -9
-16 12 -1 8 2 13 7 9 5 -3 9 -12 9 -21z m-252 -31 c16 -21 15 -33 -4 -60 -32
-46 -124 -11 -105 40 16 46 79 57 109 20z m395 -38 c-7 -20 -16 -10 -19 23 -3
26 -2 27 11 10 7 -11 11 -25 8 -33z m-129 21 c3 -8 1 -15 -4 -15 -6 0 -10 7
-10 15 0 8 2 15 4 15 2 0 6 -7 10 -15z m41 -16 c-10 -15 -25 -10 -19 6 4 8 10
12 15 9 5 -3 7 -10 4 -15z m292 -41 c-3 -7 -5 -2 -5 12 0 14 2 19 5 13 2 -7 2
-19 0 -25z m-257 11 c0 -11 24 -9 65 5 18 7 18 6 2 -4 -17 -11 -15 -30 4 -30
6 0 7 5 4 10 -3 6 -1 10 6 10 6 0 9 -8 6 -19 -3 -12 1 -18 11 -17 8 0 17 -5
20 -13 3 -8 0 -11 -7 -7 -13 9 -14 1 -1 -44 5 -19 6 -51 2 -70 -9 -43 -56 -70
-121 -70 -37 0 -49 6 -81 38 -43 43 -56 87 -46 156 6 36 12 47 34 55 38 13
102 13 102 0z m200 -399 c0 -5 -4 -10 -10 -10 -5 0 -10 5 -10 10 0 6 5 10 10
10 6 0 10 -4 10 -10z m24 -44 c-10 -8 -21 -12 -24 -10 -5 6 21 24 34 24 6 0 1
-6 -10 -14z m11 -56 c-3 -5 -12 -10 -18 -10 -7 0 -6 4 3 10 19 12 23 12 15 0z
m-387 -487 c12 -22 -1 -58 -23 -67 -37 -14 -80 39 -55 69 17 21 67 19 78 -2z
m-205 -958 c29 -8 99 -22 156 -30 125 -19 181 -42 240 -98 53 -51 71 -91 71
-157 0 -48 2 -51 42 -76 101 -64 252 -255 349 -441 21 -40 35 -73 31 -73 -16
0 -102 99 -186 212 -90 121 -167 199 -229 232 l-36 20 -52 -25 c-67 -31 -171
-31 -239 0 -57 25 -120 91 -155 161 -34 67 -71 290 -49 290 3 0 29 -7 57 -15z
m413 -800 c20 -8 66 -20 102 -26 195 -32 290 -102 296 -220 3 -50 3 -51 56
-80 98 -53 381 -349 334 -349 -17 0 -61 35 -185 146 -139 124 -192 164 -218
164 -8 0 -35 -10 -59 -22 -85 -41 -213 -19 -284 49 -53 51 -97 192 -98 316 0
41 5 43 56 22z m449 -611 c22 -34 13 -56 -22 -52 -24 3 -28 8 -31 41 -3 31 0
37 16 37 11 0 27 -12 37 -26z m360 -189 c54 -53 27 -135 -45 -135 -55 0 -90
31 -90 80 0 72 84 106 135 55z m189 -270 c39 -40 25 -95 -24 -95 -51 0 -71 54
-37 98 13 16 42 15 61 -3z m228 -168 c11 -17 10 -55 -2 -78 -12 -22 -59 -26
-78 -7 -18 18 -15 68 5 90 18 20 61 17 75 -5z m180 -134 c36 -32 9 -93 -28
-62 -21 17 -17 79 4 79 3 0 14 -7 24 -17z m236 -162 c5 -31 -11 -45 -42 -37
-19 5 -26 13 -26 30 0 30 9 38 40 34 18 -2 26 -10 28 -27z"/>
<path d="M1527 6313 c-4 -3 -7 -13 -7 -20 0 -12 3 -12 15 1 8 8 15 17 15 20 0
8 -15 7 -23 -1z"/>
<path d="M3958 6309 c-36 -20 -13 -79 31 -79 14 0 41 29 41 45 0 17 -27 45
-43 45 -7 0 -20 -5 -29 -11z"/>
<path d="M1601 6294 c0 -11 3 -14 6 -6 3 7 2 16 -1 19 -3 4 -6 -2 -5 -13z"/>
<path d="M1746 6302 c-2 -4 -1 -14 5 -22 7 -12 9 -10 9 8 0 23 -5 28 -14 14z"/>
<path d="M6029 6295 c-31 -17 -45 -68 -30 -108 11 -29 47 -57 74 -57 32 0 74
28 86 58 33 80 -51 150 -130 107z m91 -25 c0 -11 -59 -24 -68 -15 -13 13 -7
30 13 36 22 6 55 -6 55 -21z"/>
<path d="M998 6293 c6 -2 12 -15 12 -28 0 -20 -4 -23 -33 -21 -23 2 -34 -1
-34 -11 0 -16 9 -17 25 -1 9 9 12 8 12 -7 0 -17 1 -17 18 -2 13 12 21 13 37 5
11 -6 23 -15 26 -20 10 -15 28 17 22 40 -5 22 -35 32 -30 10 1 -6 -7 -14 -18
-16 -16 -4 -17 -2 -7 10 6 8 9 18 5 22 -4 4 -1 11 7 16 11 7 5 10 -20 9 -19 0
-29 -3 -22 -6z"/>
<path d="M1250 6271 c0 -10 7 -21 15 -25 10 -3 15 1 15 13 0 10 -7 21 -15 25
-10 3 -15 -1 -15 -13z"/>
<path d="M1562 6273 c2 -9 9 -18 16 -21 18 -6 15 25 -4 32 -11 4 -14 1 -12
-11z"/>
<path d="M6517 6263 c-22 -21 2 -56 31 -46 20 7 15 53 -6 53 -10 0 -22 -3 -25
-7z"/>
<path d="M1754 6236 c0 -14 6 -22 14 -19 14 6 14 6 6 27 -9 24 -22 19 -20 -8z"/>
<path d="M1095 6240 c3 -5 8 -10 11 -10 2 0 4 5 4 10 0 6 -5 10 -11 10 -5 0
-7 -4 -4 -10z"/>
<path d="M1507 6230 c3 -11 7 -20 9 -20 2 0 8 9 14 20 9 17 8 20 -9 20 -14 0
-18 -5 -14 -20z"/>
<path d="M1665 6218 c1 -12 8 -22 17 -24 12 -1 13 2 4 22 -14 30 -23 31 -21 2z"/>
<path d="M1000 6211 c0 -5 7 -11 15 -15 9 -3 15 0 15 9 0 8 -7 15 -15 15 -8 0
-15 -4 -15 -9z"/>
<path d="M1710 6210 c0 -5 5 -10 10 -10 6 0 10 5 10 10 0 6 -4 10 -10 10 -5 0
-10 -4 -10 -10z"/>
<path d="M1777 6202 c-7 -10 34 -57 56 -65 10 -4 27 -1 38 7 19 13 19 14 -5
20 -13 3 -30 4 -38 3 -7 -2 -9 -2 -5 1 5 2 1 13 -9 23 -18 20 -30 24 -37 11z"/>
<path d="M2011 6174 c0 -11 3 -14 6 -6 3 7 2 16 -1 19 -3 4 -6 -2 -5 -13z"/>
<path d="M2131 6174 c0 -11 3 -14 6 -6 3 7 2 16 -1 19 -3 4 -6 -2 -5 -13z"/>
<path d="M1654 6169 c-9 -16 2 -22 21 -11 15 8 16 10 1 15 -8 3 -18 2 -22 -4z"/>
<path d="M1750 6169 c0 -6 -9 -8 -21 -4 -13 5 -19 3 -15 -3 3 -5 -1 -13 -10
-16 -9 -4 -14 -9 -11 -12 7 -8 67 24 67 36 0 6 -2 10 -5 10 -3 0 -5 -5 -5 -11z"/>
<path d="M1714 6116 c-17 -8 -34 -21 -37 -30 -8 -20 -2 -20 20 -1 10 8 27 21
38 29 25 19 19 19 -21 2z"/>
<path d="M1738 6093 c-16 -8 -28 -21 -28 -29 0 -11 4 -10 19 5 10 10 25 21 32
23 8 3 12 7 9 10 -3 2 -17 -2 -32 -9z"/>
<path d="M7300 6078 c-11 -12 -20 -27 -20 -32 0 -6 11 0 23 14 l22 25 23 -22
c14 -13 21 -27 16 -34 -4 -8 -3 -9 5 -5 15 9 5 46 -17 64 -22 17 -28 15 -52
-10z"/>
<path d="M1680 6051 c0 -13 29 -35 37 -27 3 3 1 6 -5 6 -7 0 -12 7 -12 15 0 8
-4 15 -10 15 -5 0 -10 -4 -10 -9z"/>
<path d="M1770 6050 c0 -5 5 -10 10 -10 6 0 10 5 10 10 0 6 -4 10 -10 10 -5 0
-10 -4 -10 -10z"/>
<path d="M1920 6004 c0 -14 3 -14 15 -4 8 7 15 14 15 16 0 2 -7 4 -15 4 -8 0
-15 -7 -15 -16z"/>
<path d="M1895 6000 c-3 -5 -1 -10 4 -10 6 0 11 5 11 10 0 6 -2 10 -4 10 -3 0
-8 -4 -11 -10z"/>
<path d="M1855 5960 c3 -5 8 -10 11 -10 2 0 4 5 4 10 0 6 -5 10 -11 10 -5 0
-7 -4 -4 -10z"/>
<path d="M1807 5953 c-12 -12 -7 -22 8 -17 8 4 15 10 15 15 0 11 -14 12 -23 2z"/>
<path d="M1846 5916 c3 -9 11 -16 16 -16 13 0 5 23 -10 28 -7 2 -10 -2 -6 -12z"/>
<path d="M1805 5910 c4 -6 11 -8 16 -5 14 9 11 15 -7 15 -8 0 -12 -5 -9 -10z"/>
<path d="M2172 5835 c-9 -70 -9 -91 1 -97 8 -6 9 -10 1 -15 -28 -20 -37 -61
-38 -182 0 -69 -5 -129 -11 -133 -5 -4 -6 -10 -2 -14 12 -12 18 0 49 108 29
100 105 261 165 350 47 69 48 75 11 36 -19 -21 -40 -38 -46 -38 -7 0 -12 -5
-12 -11 0 -7 -12 1 -27 16 l-28 27 -3 -22 c-3 -18 -6 -20 -13 -9 -6 10 -9 6
-10 -16 -1 -20 -5 -10 -13 30 l-12 60 -12 -90z m92 -41 c3 -8 2 -12 -4 -9 -6
3 -10 10 -10 16 0 14 7 11 14 -7z m-84 -239 c0 -5 -5 -3 -10 5 -5 8 -10 20
-10 25 0 6 5 3 10 -5 5 -8 10 -19 10 -25z m-33 -27 c-3 -7 -5 -2 -5 12 0 14 2
19 5 13 2 -7 2 -19 0 -25z"/>
<path d="M2201 5894 c0 -11 3 -14 6 -6 3 7 2 16 -1 19 -3 4 -6 -2 -5 -13z"/>
<path d="M1796 5861 c-4 -7 -5 -15 -2 -18 9 -9 19 4 14 18 -4 11 -6 11 -12 0z"/>
<path d="M1830 5850 c0 -5 5 -10 11 -10 5 0 7 5 4 10 -3 6 -8 10 -11 10 -2 0
-4 -4 -4 -10z"/>
<path d="M7503 5845 c-87 -37 -52 -165 44 -165 45 1 68 16 83 54 14 38 3 71
-32 101 -34 28 -50 30 -95 10z"/>
<path d="M2821 5794 c0 -11 3 -14 6 -6 3 7 2 16 -1 19 -3 4 -6 -2 -5 -13z"/>
<path d="M2777 5733 c-8 -12 41 -68 51 -58 4 4 -2 14 -14 24 -11 9 -23 23 -26
31 -3 9 -7 10 -11 3z"/>
<path d="M1841 5714 c0 -11 3 -14 6 -6 3 7 2 16 -1 19 -3 4 -6 -2 -5 -13z"/>
<path d="M2720 5719 c0 -5 8 -9 17 -9 13 0 14 -3 6 -11 -13 -13 -6 -39 9 -39
6 0 5 6 -2 15 -10 12 -9 15 4 15 13 0 15 4 8 17 -10 18 -42 27 -42 12z"/>
<path d="M2890 5640 c0 -5 5 -10 10 -10 6 0 10 5 10 10 0 6 -4 10 -10 10 -5 0
-10 -4 -10 -10z"/>
<path d="M2760 5631 c0 -5 9 -11 20 -14 24 -6 27 8 4 17 -21 8 -24 8 -24 -3z"/>
<path d="M3238 5623 c7 -3 16 -2 19 1 4 3 -2 6 -13 5 -11 0 -14 -3 -6 -6z"/>
<path d="M2850 5610 c0 -5 5 -10 10 -10 6 0 10 5 10 10 0 6 -4 10 -10 10 -5 0
-10 -4 -10 -10z"/>
<path d="M3170 5610 c-35 -7 -35 -7 -5 -9 17 0 37 4 45 9 17 11 11 11 -40 0z"/>
<path d="M2665 5601 c-7 -12 12 -24 25 -16 11 7 4 25 -10 25 -5 0 -11 -4 -15
-9z"/>
<path d="M2740 5580 c0 -5 9 -10 21 -10 11 0 17 5 14 10 -3 6 -13 10 -21 10
-8 0 -14 -4 -14 -10z"/>
<path d="M2791 5545 c-51 -32 -71 -50 -71 -68 0 -4 12 4 28 18 15 15 50 40 77
56 28 16 43 28 35 28 -8 0 -39 -16 -69 -34z"/>
<path d="M3331 5554 c0 -11 3 -14 6 -6 3 7 2 16 -1 19 -3 4 -6 -2 -5 -13z"/>
<path d="M2596 5532 c-2 -4 0 -14 5 -22 8 -13 10 -13 19 0 9 13 11 13 20 0 8
-13 10 -13 10 1 0 23 -42 39 -54 21z"/>
<path d="M2666 5511 c-4 -7 -5 -15 -2 -18 9 -9 19 4 14 18 -4 11 -6 11 -12 0z"/>
<path d="M3330 5510 c0 -5 5 -10 10 -10 6 0 10 5 10 10 0 6 -4 10 -10 10 -5 0
-10 -4 -10 -10z"/>
<path d="M3360 5500 c0 -11 5 -20 10 -20 6 0 10 -4 10 -10 0 -5 -9 -10 -19
-10 -26 0 -27 -3 -46 -96 -25 -120 -64 -192 -142 -262 -78 -71 -142 -96 -248
-96 -80 0 -150 28 -192 78 -22 27 -26 28 -49 15 -44 -23 -170 -151 -229 -232
-80 -110 -128 -205 -174 -342 -21 -66 -54 -165 -73 -220 -31 -94 -33 -108 -32
-230 1 -141 29 -335 70 -492 34 -132 73 -225 75 -182 0 7 2 23 4 33 2 11 9 78
15 150 14 156 40 300 70 378 38 101 143 239 224 294 l49 33 1 88 c1 75 5 96
28 139 58 111 164 164 365 184 65 6 142 20 170 30 l53 18 6 -25 c12 -47 -4
-225 -26 -293 -54 -165 -177 -269 -331 -278 -68 -4 -83 -1 -130 22 -30 14 -62
31 -71 38 -37 27 -162 -97 -231 -231 -64 -123 -124 -458 -112 -631 3 -52 2
-108 -3 -125 -10 -36 6 -95 66 -242 58 -141 174 -339 340 -582 194 -283 429
-533 698 -742 344 -267 790 -442 1207 -474 103 -7 112 -1 126 81 20 111 79
207 151 244 31 16 136 40 176 40 16 0 -3 -106 -27 -149 -33 -59 -82 -85 -162
-85 l-67 0 -20 -53 c-36 -96 -35 -96 78 -88 142 10 346 52 447 93 198 80 338
148 468 228 129 80 187 126 306 245 240 241 385 521 461 888 53 261 61 505 25
786 -71 542 -413 1097 -864 1399 -244 164 -462 248 -836 326 -184 38 -196 42
-309 85 -43 17 -72 23 -78 17 -6 -6 3 -12 24 -16 29 -7 31 -9 13 -16 -11 -4
-28 -18 -37 -29 -22 -26 -33 -26 -50 -3 -14 19 -68 28 -68 12 0 -6 -7 -10 -16
-10 -8 0 -12 -5 -9 -11 5 -7 13 -5 25 6 16 15 19 15 34 0 9 -9 20 -13 26 -10
6 4 10 -6 10 -24 0 -17 5 -31 11 -31 5 0 7 5 4 11 -4 6 1 17 11 24 25 19 34
18 34 -1 0 -9 -6 -14 -12 -11 -8 2 -18 -9 -24 -26 l-10 -30 -27 25 c-15 14
-27 32 -27 41 0 9 -4 19 -10 22 -5 3 -10 0 -10 -8 0 -8 -9 -17 -20 -20 -11 -3
-20 -9 -19 -14 3 -13 -12 -43 -22 -43 -5 0 -9 8 -9 18 0 14 -2 15 -10 2 -8
-11 -12 -12 -18 -3 -9 14 -102 15 -102 2 0 -5 -8 -9 -17 -9 -17 1 -17 1 -1 14
10 7 15 16 11 20 -4 4 0 4 10 0 11 -4 17 -1 17 9 0 9 3 24 7 34 7 17 6 17 -11
1 -23 -23 -30 -23 -50 5 -16 22 -16 22 -5 -5 7 -15 8 -39 4 -55 -7 -25 -8 -26
-15 -8 -4 11 -3 25 2 32 6 7 4 14 -3 19 -7 4 -15 2 -17 -5 -3 -8 -8 -6 -17 6
-15 20 -3 42 24 44 11 0 12 2 3 6 -7 3 -19 -1 -27 -7 -8 -7 -21 -10 -29 -7
-21 8 -28 -4 -9 -18 9 -7 13 -17 9 -23 -11 -18 -74 -15 -84 4 -7 13 -9 10 -8
-14 0 -16 4 -28 9 -25 4 2 7 -1 7 -6 0 -6 -9 -11 -19 -11 -11 0 -28 -3 -38 -6
-16 -5 -16 -4 -2 8 9 7 14 19 12 26 -7 18 -31 15 -35 -5 -3 -14 -9 -10 -26 16
-20 32 -20 35 -4 47 12 9 13 13 4 14 -19 0 -39 -23 -34 -39 3 -10 0 -12 -12
-8 -10 4 -16 1 -16 -8 0 -11 -12 -15 -45 -15 -25 0 -45 5 -45 10 0 6 -6 10
-14 10 -8 0 -16 7 -20 15 -3 8 -10 15 -16 15 -5 0 -10 -7 -10 -15 0 -8 7 -15
15 -15 8 0 15 -4 15 -9 0 -5 17 -14 38 -19 l37 -10 -37 1 c-21 1 -38 6 -38 10
0 4 -9 3 -19 -3 -26 -14 -38 -13 -23 2 15 15 16 31 0 22 -8 -5 -9 -2 -5 9 4
11 1 17 -8 17 -8 0 -14 6 -13 13 2 6 -5 12 -14 12 -9 0 -19 3 -23 6 -3 4 -25
3 -48 -1 -44 -9 -61 -5 -51 11 3 5 9 7 13 5 4 -3 13 -1 20 4 11 6 9 13 -8 31
-19 21 -26 17 -23 -13 2 -12 -27 -30 -44 -26 -10 2 -21 15 -25 30 -6 23 -3 29
19 38 26 10 26 10 -5 5 -26 -3 -33 -1 -33 12 0 9 8 22 17 29 20 14 18 19 -13
28 -15 5 -21 3 -20 -6 0 -7 -3 -14 -9 -15 -5 -2 -10 2 -9 7 1 6 2 22 3 36 1
22 3 25 16 14 13 -10 15 -9 15 8 0 15 -6 20 -20 19 -11 -1 -20 -7 -20 -15 0
-7 -6 -12 -12 -9 -7 2 -13 12 -13 23 0 10 -6 23 -12 27 -7 4 -13 15 -13 22 0
8 -4 15 -8 15 -5 0 -18 9 -30 20 l-22 21 0 -21z m52 -53 c15 -12 15 -14 -3
-25 -25 -16 -32 -15 -26 2 4 11 1 13 -11 9 -15 -6 -15 -5 -3 10 16 20 21 20
43 4z m68 -162 c0 -14 -5 -25 -11 -25 -5 0 -7 5 -4 10 4 6 1 17 -5 25 -10 12
-9 15 4 15 10 0 16 -9 16 -25z m-20 -70 c0 -5 -5 -3 -10 5 -5 8 -10 20 -10 25
0 6 5 3 10 -5 5 -8 10 -19 10 -25z m33 -45 c-7 -8 -22 24 -16 34 4 5 10 1 13
-10 4 -10 6 -21 3 -24z m53 3 c-7 -7 -26 7 -26 19 0 6 6 6 15 -2 9 -7 13 -15
11 -17z m48 10 c8 -19 -19 -51 -31 -39 -5 5 -3 11 3 13 7 2 10 13 7 23 -6 24
12 27 21 3z m92 -15 c1 -33 0 -33 -43 -29 -50 4 -57 19 -13 27 16 4 35 13 41
20 15 18 14 19 15 -18z m949 2 c-4 -11 -2 -20 4 -20 6 0 11 -7 11 -15 0 -9 -6
-12 -15 -8 -9 3 -13 8 -11 11 3 3 1 12 -6 19 -9 11 -9 17 3 24 20 12 21 12 14
-11z m55 -32 c0 -32 -3 -39 -10 -28 -13 20 -13 70 0 70 6 0 10 -19 10 -42z
m60 32 c0 -5 -2 -10 -4 -10 -3 0 -8 5 -11 10 -3 6 -1 10 4 10 6 0 11 -4 11
-10z m-1027 -28 c-20 -21 -28 -20 -20 3 4 8 13 15 22 15 13 0 12 -3 -2 -18z
m1022 -2 c-3 -5 -1 -19 6 -31 11 -21 11 -21 -15 -3 -31 23 -33 39 -6 41 11 1
18 -2 15 -7z m-780 -9 c3 -5 1 -12 -5 -16 -5 -3 -10 1 -10 9 0 18 6 21 15 7z
m-353 -9 c-7 -5 -10 -16 -6 -25 3 -9 2 -17 -4 -17 -12 0 -24 29 -16 41 3 5 13
9 22 9 13 0 14 -2 4 -8z m574 -19 c-10 -10 -19 5 -10 18 6 11 8 11 12 0 2 -7
1 -15 -2 -18z m301 15 c5 -66 1 -108 -8 -108 -5 0 -5 86 1 118 1 8 7 0 7 -10z
m-817 -2 c0 -2 -7 -9 -15 -16 -13 -11 -14 -10 -9 4 5 14 24 23 24 12z m950
-21 c0 -8 -4 -17 -10 -20 -6 -4 -10 5 -10 20 0 15 4 24 10 20 6 -3 10 -12 10
-20z m-880 -1 c0 -8 -4 -12 -10 -9 -5 3 -10 10 -10 16 0 5 5 9 10 9 6 0 10 -7
10 -16z m219 2 c14 -8 30 -13 35 -12 6 2 8 1 5 -1 -4 -2 -5 -21 -2 -41 5 -46
-24 -97 -59 -104 -58 -11 -118 36 -118 93 0 32 -3 37 -17 33 -14 -5 -15 -4 -4
4 7 5 11 14 7 20 -4 6 2 10 13 9 12 -1 17 -6 14 -17 -5 -13 -3 -12 8 1 26 31
78 37 118 15z m-399 -6 c0 -5 -4 -10 -10 -10 -5 0 -10 5 -10 10 0 6 5 10 10
10 6 0 10 -4 10 -10z m230 0 c0 -5 -4 -10 -10 -10 -5 0 -10 5 -10 10 0 6 5 10
10 10 6 0 10 -4 10 -10z m425 0 c3 -5 1 -10 -4 -10 -6 0 -11 5 -11 10 0 6 2
10 4 10 3 0 8 -4 11 -10z m135 0 c0 -5 -5 -10 -11 -10 -5 0 -7 5 -4 10 3 6 8
10 11 10 2 0 4 -4 4 -10z m-187 -7 c-7 -2 -19 -2 -25 0 -7 3 -2 5 12 5 14 0
19 -2 13 -5z m415 -13 c-7 -10 -14 -18 -15 -16 -6 6 9 36 18 36 5 0 4 -9 -3
-20z m85 -10 c-8 -29 -21 -25 -15 5 2 14 8 23 12 20 5 -3 6 -14 3 -25z m124 8
c-3 -8 -6 -5 -6 6 -1 11 2 17 5 13 3 -3 4 -12 1 -19z m-1246 -7 c20 -16 22
-23 14 -47 -18 -52 -95 -40 -95 14 0 52 39 67 81 33z m529 9 c0 -5 -5 -10 -11
-10 -5 0 -7 5 -4 10 3 6 8 10 11 10 2 0 4 -4 4 -10z m247 -12 c-3 -8 -6 -5 -6
6 -1 11 2 17 5 13 3 -3 4 -12 1 -19z m63 7 c0 -8 -4 -15 -10 -15 -5 0 -7 7 -4
15 4 8 8 15 10 15 2 0 4 -7 4 -15z m-180 -5 c0 -5 -5 -10 -11 -10 -5 0 -7 5
-4 10 3 6 8 10 11 10 2 0 4 -4 4 -10z m65 0 c3 -5 1 -10 -4 -10 -6 0 -11 5
-11 10 0 6 2 10 4 10 3 0 8 -4 11 -10z m178 -7 c-7 -2 -9 -12 -6 -21 5 -14 3
-15 -7 -5 -11 10 -11 15 0 28 7 8 16 13 19 9 3 -4 1 -9 -6 -11z m86 3 c7 -8 8
-17 3 -20 -6 -3 -12 3 -15 14 -6 24 -4 25 12 6z m-808 -19 c-10 -9 -11 -8 -5
6 3 10 9 15 12 12 3 -3 0 -11 -7 -18z m514 13 c-3 -5 -11 -10 -16 -10 -6 0 -7
5 -4 10 3 6 11 10 16 10 6 0 7 -4 4 -10z m109 -15 c-4 -8 -10 -13 -15 -10 -4
3 -6 12 -3 20 4 8 10 13 15 10 4 -3 6 -12 3 -20z m410 16 c11 -4 15 -10 9 -14
-5 -3 -19 0 -29 8 -20 15 -11 18 20 6z m-601 -16 c-3 -9 -8 -14 -10 -11 -3 3
-2 9 2 15 9 16 15 13 8 -4z m467 5 c-8 -5 -22 -9 -30 -9 -10 0 -8 3 5 9 27 12
43 12 25 0z m-330 -10 c0 -5 -5 -10 -11 -10 -5 0 -7 5 -4 10 3 6 8 10 11 10 2
0 4 -4 4 -10z m112 -15 c-8 -16 -9 -16 -15 -1 -4 10 -3 15 3 11 6 -3 10 -1 10
6 0 7 3 10 6 6 3 -3 2 -13 -4 -22z m-102 -25 c0 -13 -6 -20 -17 -19 -11 0 -13
3 -5 6 6 2 12 11 12 19 0 8 2 14 5 14 3 0 5 -9 5 -20z m73 3 c-7 -2 -21 -2
-30 0 -10 3 -4 5 12 5 17 0 24 -2 18 -5z m80 -38 c-3 -9 -8 -14 -10 -11 -3 3
-2 9 2 15 9 16 15 13 8 -4z m-436 -87 c-3 -8 -6 -5 -6 6 -1 11 2 17 5 13 3 -3
4 -12 1 -19z m-1293 -44 c17 -43 -2 -66 -46 -56 -18 3 -26 51 -11 65 12 13 51
7 57 -9z m961 -23 c-2 -2 4 -12 15 -23 42 -45 24 -119 -35 -144 -37 -15 -59
-10 -97 24 -21 17 -33 71 -23 101 8 27 59 50 107 48 20 -1 35 -4 33 -6z m1010
-95 c110 -29 167 -81 196 -178 l21 -68 -21 -67 c-61 -203 -303 -258 -447 -101
-121 132 -78 322 93 409 44 22 89 24 158 5z m-2117 -82 c64 -72 -28 -173 -106
-118 -53 37 -52 116 1 140 41 17 76 10 105 -22z m2677 -38 c13 -19 14 -29 5
-45 -15 -29 -48 -27 -60 5 -13 32 -13 30 6 48 21 22 31 20 49 -8z m334 -156
c82 -24 114 -48 143 -103 28 -56 27 -111 -4 -179 -28 -61 -72 -97 -144 -117
-59 -16 -84 -14 -149 18 -99 47 -135 99 -135 192 0 60 26 115 72 154 67 57
118 65 217 35z m-1954 -84 c0 -16 -7 -33 -16 -39 -26 -16 -49 -1 -49 31 0 36
8 44 40 40 20 -2 25 -8 25 -32z m339 -45 c27 -27 31 -39 31 -82 0 -44 -4 -54
-29 -76 -24 -21 -37 -24 -72 -20 -76 8 -118 58 -112 133 2 31 10 43 38 62 47
32 101 25 144 -17z m-431 -273 c24 -28 21 -64 -5 -82 -30 -22 -60 -20 -86 4
-30 28 -28 64 5 89 30 24 58 20 86 -11z m2567 -43 c7 -9 10 -25 6 -41 -5 -19
-12 -25 -29 -22 -28 4 -48 55 -27 68 21 14 36 12 50 -5z m-3489 -95 c10 -6 19
-21 19 -33 0 -60 -65 -78 -85 -23 -8 24 -6 31 14 47 27 22 27 22 52 9z m1174
-4 c33 -14 65 -59 65 -91 0 -26 -55 -75 -84 -75 -34 0 -85 47 -92 87 -5 27 -1
37 24 63 35 34 40 35 87 16z m-542 -10 c3 -7 -3 -71 -14 -142 -23 -152 -55
-226 -130 -308 -92 -101 -221 -134 -328 -85 -35 15 -46 17 -53 7 -27 -40 -41
-77 -54 -146 -13 -65 -13 -98 -4 -206 9 -100 9 -138 0 -172 -15 -52 -33 -56
-55 -13 -23 43 -33 328 -15 436 13 84 21 106 53 141 18 19 21 36 22 115 0 83
3 97 29 145 63 112 134 153 350 198 66 14 128 30 136 35 23 13 57 11 63 -5z
m2597 -95 c0 -22 -15 -35 -30 -26 -7 4 -7 13 0 26 14 25 30 25 30 0z m486 -97
c8 -31 -14 -58 -39 -48 -17 6 -24 54 -10 67 16 16 43 6 49 -19z m-225 -13 c34
-35 37 -68 8 -105 -28 -35 -80 -36 -114 -1 -50 49 -14 132 58 134 10 1 32 -12
48 -28z m-920 -68 c267 -92 458 -350 459 -621 0 -174 -66 -329 -195 -457 -140
-138 -265 -195 -445 -202 -134 -6 -227 13 -340 68 -115 57 -240 179 -294 289
-129 262 -53 614 172 803 71 60 179 114 274 138 110 28 256 21 369 -18z
m-1711 -128 c17 -21 4 -65 -19 -65 -21 0 -54 27 -48 38 2 4 7 15 10 25 8 21
40 22 57 2z m388 -68 c33 -33 42 -112 17 -151 -25 -38 -81 -52 -128 -33 -39
17 -77 68 -77 105 0 31 25 77 52 97 33 24 103 14 136 -18z m2429 -56 c84 -39
107 -149 48 -227 -91 -119 -285 -56 -285 93 0 120 119 187 237 134z m-2913
-227 c17 -130 -4 -282 -49 -354 -43 -68 -83 -100 -180 -146 -50 -23 -97 -50
-105 -59 -13 -15 -17 -142 -5 -189 3 -12 -4 -2 -16 22 -12 27 -23 78 -29 140
-5 57 -16 111 -26 132 -59 116 0 296 126 383 44 29 239 113 271 116 4 1 9 -20
13 -45z m440 -189 c-4 -8 -10 -15 -15 -15 -5 0 -9 7 -9 15 0 8 7 15 15 15 9 0
12 -6 9 -15z m2261 -80 c0 -25 -4 -30 -24 -30 -32 0 -49 28 -31 50 7 9 23 15
34 13 16 -2 21 -10 21 -33z m285 -127 c11 -12 20 -31 20 -42 0 -28 -29 -56
-58 -56 -57 0 -85 73 -40 104 31 22 54 20 78 -6z m-2532 -20 c20 -17 11 -88
-13 -103 -28 -18 -83 -1 -97 30 -14 32 -2 74 25 85 24 10 65 4 85 -12z m-293
-21 c27 -21 13 -67 -20 -67 -32 0 -55 41 -35 65 15 19 31 19 55 2z m-667 -155
c22 -24 38 -45 85 -109 21 -29 51 -63 67 -76 16 -14 52 -71 80 -128 28 -57 56
-108 61 -113 5 -6 9 -15 9 -20 0 -20 -92 80 -137 149 -26 39 -74 108 -108 155
-56 77 -95 140 -95 155 0 11 21 4 38 -13z m3307 -22 c32 -30 40 -71 21 -109
-30 -58 -102 -70 -155 -25 -26 21 -31 33 -31 68 0 44 11 66 45 85 29 17 93 6
120 -19z m-2737 -76 c30 -21 28 -59 -4 -89 -32 -29 -33 -30 -61 -10 -29 20
-38 62 -18 91 18 28 51 31 83 8z m427 -107 c0 -128 -15 -171 -80 -233 -45 -43
-63 -53 -114 -64 -76 -16 -75 -15 -22 -200 36 -127 42 -138 92 -194 29 -32 80
-79 112 -103 33 -23 56 -43 53 -43 -26 0 -178 91 -239 142 -215 183 -335 289
-341 303 -17 46 89 -11 183 -98 31 -29 69 -63 85 -77 l29 -25 -7 30 c-4 17
-23 64 -41 105 -38 84 -61 217 -50 290 12 82 72 172 140 207 64 34 180 71 190
62 6 -6 10 -51 10 -102z m245 -52 c16 -19 3 -57 -18 -53 -18 3 -27 30 -18 54
7 18 20 18 36 -1z m1754 -28 c8 -23 6 -31 -12 -50 -17 -17 -26 -19 -39 -11
-27 17 -36 39 -29 68 6 23 11 27 39 24 24 -2 34 -9 41 -31z m234 -109 c33 -33
-7 -100 -47 -79 -26 14 -37 56 -21 76 15 18 51 20 68 3z m-492 -93 c62 -18
121 -67 145 -119 69 -152 -82 -333 -247 -296 -114 26 -193 127 -181 232 11 90
60 154 143 183 51 18 79 18 140 0z m-986 -35 c0 -5 -2 -10 -4 -10 -3 0 -8 5
-11 10 -3 6 -1 10 4 10 6 0 11 -4 11 -10z m-530 -70 c31 -17 60 -74 60 -120 0
-113 -161 -141 -189 -32 -13 50 1 122 29 144 24 20 71 24 100 8z m1920 -86 c0
-17 -7 -25 -24 -30 -32 -8 -46 2 -46 32 0 16 8 27 23 33 28 11 47 -4 47 -35z
m-1282 2 c87 -45 113 -154 54 -219 -14 -16 -16 -41 -14 -175 2 -86 8 -173 13
-193 5 -20 6 -44 3 -53 -5 -14 -8 -14 -21 -1 -25 26 -33 76 -33 220 0 77 -3
150 -6 162 -4 13 -19 26 -38 33 -57 18 -106 84 -106 140 0 35 23 86 42 93 26
10 80 7 106 -7z m-286 -276 c98 -36 184 -123 226 -229 l22 -53 -38 34 c-32 29
-51 36 -113 46 -111 18 -165 39 -201 78 -43 45 -48 63 -32 96 27 52 57 58 136
28z m933 -100 c9 -28 -12 -60 -39 -60 -24 0 -36 17 -36 50 0 33 65 42 75 10z"/>
<path d="M3628 5153 c6 -2 18 -2 25 0 6 3 1 5 -13 5 -14 0 -19 -2 -12 -5z"/>
<path d="M4911 3133 c-36 -18 -86 -87 -96 -133 -8 -38 11 -108 41 -148 74 -97
206 -79 286 39 25 37 29 51 25 91 -11 125 -146 205 -256 151z"/>
<path d="M2552 5493 c2 -9 9 -18 16 -21 18 -6 15 25 -4 32 -11 4 -14 1 -12
-11z"/>
<path d="M2618 5482 c-10 -2 -18 -11 -18 -20 0 -14 2 -15 9 -3 8 12 12 12 24
2 9 -7 18 -8 21 -3 8 14 -16 29 -36 24z"/>
<path d="M2686 5449 c-22 -45 -20 -50 5 -11 12 18 19 35 16 38 -3 3 -12 -9
-21 -27z"/>
<path d="M2310 5458 c0 -4 9 -8 20 -8 11 0 20 4 20 9 0 6 -9 9 -20 8 -11 -1
-20 -5 -20 -9z"/>
<path d="M2371 5454 c0 -11 3 -14 6 -6 3 7 2 16 -1 19 -3 4 -6 -2 -5 -13z"/>
<path d="M2520 5451 c0 -5 5 -13 10 -16 6 -3 10 -2 10 4 0 5 -4 13 -10 16 -5
3 -10 2 -10 -4z"/>
<path d="M2579 5436 c7 -8 0 -19 -20 -35 -17 -13 -28 -30 -25 -37 3 -8 0 -11
-10 -7 -16 6 -19 23 -3 23 5 0 8 4 4 10 -3 5 -12 7 -19 4 -8 -3 -17 -1 -21 5
-9 16 -35 13 -35 -4 0 -8 -5 -15 -11 -15 -6 0 -8 9 -4 21 5 16 3 20 -6 17 -16
-6 -16 -82 -1 -101 5 -7 12 -37 15 -67 l5 -55 -10 45 c-5 25 -14 53 -19 62 -5
10 -9 28 -9 40 0 19 -2 20 -11 8 -8 -12 -9 -10 -4 8 4 14 2 22 -5 22 -7 0 -14
-9 -17 -21 -4 -16 -8 -17 -14 -7 -6 9 -9 1 -10 -22 l-1 -35 -7 30 c-5 23 -3
32 11 40 17 10 16 13 -10 38 -34 32 -42 34 -42 6 0 -16 4 -19 23 -14 14 5 19
4 12 -3 -5 -5 -25 -12 -44 -16 -29 -5 -32 -4 -21 9 17 21 5 31 -14 12 -8 -8
-12 -17 -9 -21 4 -3 2 -6 -4 -6 -6 0 -9 -10 -6 -22 4 -18 2 -20 -6 -8 -8 12
-12 9 -21 -15 -6 -15 -8 -36 -5 -44 5 -13 4 -14 -6 -3 -16 15 -33 16 -24 1 4
-6 0 -16 -8 -22 -35 -27 -49 -148 -54 -494 -5 -330 0 -454 18 -436 5 5 23 63
39 129 54 213 78 270 174 414 31 45 53 87 50 92 -3 4 -1 7 5 6 5 -2 38 26 73
62 72 75 120 115 160 132 35 16 35 29 1 50 -21 13 -23 18 -10 18 9 0 17 -5 17
-12 0 -6 3 -8 7 -5 10 11 3 120 -8 132 -7 7 -8 4 -3 -8 4 -10 2 -17 -4 -15 -5
2 -10 -1 -10 -7 0 -5 4 -9 9 -7 12 3 11 -15 -1 -23 -6 -4 -8 -11 -5 -16 4 -5
-1 -9 -9 -9 -9 0 -16 -4 -16 -9 0 -5 -9 -13 -20 -16 -11 -3 -20 -13 -20 -21 0
-8 -8 -14 -17 -13 -11 0 -13 3 -5 6 18 7 15 25 -12 56 -21 24 -28 27 -45 18
-33 -18 -37 -12 -8 13 15 13 27 31 27 40 0 13 4 12 21 -5 16 -16 23 -18 29 -9
4 7 10 8 13 4 3 -5 -1 -15 -9 -22 -8 -7 -14 -8 -14 -2 0 5 -7 10 -15 10 -22 0
-18 -18 5 -25 11 -4 20 -15 20 -26 0 -19 1 -19 25 -2 15 11 23 25 21 35 -2 10
1 29 7 43 9 19 18 25 35 22 12 -2 22 -1 22 4 0 4 3 16 6 26 6 17 6 17 -7 0
-13 -16 -16 -16 -37 -2 -12 9 -20 21 -16 26 4 6 14 3 25 -7 10 -9 19 -13 19
-8 -1 19 -26 41 -53 46 -19 4 -25 2 -18 -6z m23 -50 c16 -12 16 -14 -3 -29
-16 -14 -22 -15 -33 -5 -10 10 -11 17 -2 30 13 21 16 21 38 4z m-282 -20 c0
-2 -7 -7 -16 -10 -8 -3 -12 -2 -9 4 6 10 25 14 25 6z m170 0 c0 -3 -4 -8 -10
-11 -5 -3 -10 -1 -10 4 0 6 5 11 10 11 6 0 10 -2 10 -4z m-213 -38 c-3 -7 -5
-2 -5 12 0 14 2 19 5 13 2 -7 2 -19 0 -25z m193 -12 c0 -5 -7 -1 -15 10 -8 10
-14 24 -14 29 0 6 6 1 14 -9 8 -11 15 -24 15 -30z m-60 -42 c0 -8 -5 -12 -10
-9 -6 4 -8 11 -5 16 9 14 15 11 15 -7z m70 -104 c0 -5 -2 -10 -4 -10 -3 0 -8
5 -11 10 -3 6 -1 10 4 10 6 0 11 -4 11 -10z m60 -11 c0 -5 -4 -9 -10 -9 -5 0
-10 7 -10 16 0 8 5 12 10 9 6 -3 10 -10 10 -16z m7 -41 c-3 -8 -6 -5 -6 6 -1
11 2 17 5 13 3 -3 4 -12 1 -19z m-35 -5 c-6 -2 -9 -10 -6 -15 4 -7 2 -8 -5 -4
-13 9 -5 26 12 25 9 0 8 -2 -1 -6z m-157 -63 c3 -5 1 -10 -4 -10 -6 0 -11 5
-11 10 0 6 2 10 4 10 3 0 8 -4 11 -10z"/>
<path d="M2575 5370 c-3 -5 -2 -10 4 -10 5 0 13 5 16 10 3 6 2 10 -4 10 -5 0
-13 -4 -16 -10z"/>
<path d="M3775 5420 c-3 -5 -1 -10 4 -10 6 0 11 5 11 10 0 6 -2 10 -4 10 -3 0
-8 -4 -11 -10z"/>
<path d="M2370 5410 c0 -5 5 -10 10 -10 6 0 10 5 10 10 0 6 -4 10 -10 10 -5 0
-10 -4 -10 -10z"/>
<path d="M2216 5385 c-9 -26 -7 -32 5 -12 6 10 9 21 6 23 -2 3 -7 -2 -11 -11z"/>
<path d="M3562 5380 c0 -14 2 -19 5 -12 2 6 2 18 0 25 -3 6 -5 1 -5 -13z"/>
<path d="M3905 5330 c-3 -5 -1 -10 4 -10 6 0 11 5 11 10 0 6 -2 10 -4 10 -3 0
-8 -4 -11 -10z"/>
<path d="M4352 5311 c4 -13 18 -16 19 -4 0 4 -5 9 -11 12 -7 2 -11 -2 -8 -8z"/>
<path d="M4442 5311 c-11 -6 -10 -10 4 -15 9 -3 19 -4 22 -1 3 3 0 5 -7 5 -7
0 -9 5 -6 10 7 12 4 12 -13 1z"/>
<path d="M3690 5300 c0 -5 5 -10 10 -10 6 0 10 5 10 10 0 6 -4 10 -10 10 -5 0
-10 -4 -10 -10z"/>
<path d="M3740 5300 c0 -5 5 -10 10 -10 6 0 10 5 10 10 0 6 -4 10 -10 10 -5 0
-10 -4 -10 -10z"/>
<path d="M3846 5291 c-10 -16 -7 -18 29 -25 17 -3 23 -3 15 1 -8 3 -20 13 -26
21 -8 11 -13 12 -18 3z"/>
<path d="M4487 5284 c3 -7 9 -14 14 -14 14 0 10 17 -5 23 -10 4 -13 1 -9 -9z"/>
<path d="M3670 5269 c0 -5 5 -7 10 -4 6 3 10 8 10 11 0 2 -4 4 -10 4 -5 0 -10
-5 -10 -11z"/>
<path d="M3926 5265 c-3 -8 -1 -15 3 -15 5 0 11 7 15 15 3 8 1 15 -3 15 -5 0
-11 -7 -15 -15z"/>
<path d="M4360 5265 c0 -8 7 -15 16 -15 14 0 14 3 4 15 -7 8 -14 15 -16 15 -2
0 -4 -7 -4 -15z"/>
<path d="M4537 5261 c12 -10 19 -22 15 -27 -4 -5 1 -2 11 5 17 14 24 27 8 17
-5 -3 -14 1 -21 9 -7 8 -18 15 -24 15 -6 -1 -1 -9 11 -19z"/>
<path d="M3552 5245 c-1 -14 3 -25 8 -25 6 0 10 11 10 25 0 14 -4 25 -8 25 -4
0 -9 -11 -10 -25z"/>
<path d="M3630 5260 c0 -5 5 -10 10 -10 6 0 10 5 10 10 0 6 -4 10 -10 10 -5 0
-10 -4 -10 -10z"/>
<path d="M3770 5255 c0 -9 6 -12 15 -9 10 4 15 0 15 -15 0 -33 17 -25 18 9 1
25 -3 30 -24 30 -14 0 -24 -6 -24 -15z"/>
<path d="M3980 5260 c0 -5 4 -10 9 -10 6 0 13 5 16 10 3 6 -1 10 -9 10 -9 0
-16 -4 -16 -10z"/>
<path d="M4423 5246 c-28 -13 -30 -26 -4 -26 10 0 22 7 25 16 8 21 6 22 -21
10z"/>
<path d="M4140 5236 c-6 -9 -10 -21 -8 -28 3 -8 9 -4 17 10 15 28 9 39 -9 18z"/>
<path d="M4290 5240 c0 -5 5 -10 10 -10 6 0 10 5 10 10 0 6 -4 10 -10 10 -5 0
-10 -4 -10 -10z"/>
<path d="M3710 5226 c0 -9 7 -12 20 -9 11 3 20 9 20 14 0 5 -9 9 -20 9 -11 0
-20 -6 -20 -14z"/>
<path d="M3970 5229 c0 -5 14 -9 30 -9 17 0 30 4 30 8 0 5 -13 9 -30 10 -16 0
-30 -4 -30 -9z"/>
<path d="M4472 5224 c-7 -8 -8 -14 -3 -14 10 0 25 19 20 25 -2 1 -10 -3 -17
-11z"/>
<path d="M4505 5229 c-10 -15 1 -23 20 -15 9 3 13 10 10 16 -8 13 -22 13 -30
-1z"/>
<path d="M3830 5220 c0 -5 6 -10 14 -10 8 0 18 5 21 10 3 6 -3 10 -14 10 -12
0 -21 -4 -21 -10z"/>
<path d="M3895 5204 c-11 -8 -27 -13 -37 -11 -9 3 -18 -2 -21 -12 -3 -12 1
-17 14 -16 10 1 22 4 25 8 4 4 16 7 26 7 11 0 18 7 18 20 0 24 1 24 -25 4z"/>
<path d="M4336 5199 c-15 -15 -17 -22 -8 -31 14 -14 27 -4 37 30 8 27 -3 28
-29 1z"/>
<path d="M4568 5213 c-10 -2 -15 -10 -11 -19 7 -20 20 -17 26 6 3 11 4 19 4
19 -1 -1 -10 -3 -19 -6z"/>
<path d="M3770 5206 c0 -2 7 -7 16 -10 8 -3 12 -2 9 4 -6 10 -25 14 -25 6z"/>
<path d="M4275 5199 c-4 -6 -5 -12 -2 -15 2 -3 7 2 10 11 7 17 1 20 -8 4z"/>
<path d="M4415 5200 c3 -5 8 -10 11 -10 2 0 4 5 4 10 0 6 -5 10 -11 10 -5 0
-7 -4 -4 -10z"/>
<path d="M4060 5193 c8 -3 22 -11 30 -18 12 -11 17 -11 28 1 7 8 11 14 10 15
-2 1 -21 2 -43 4 -22 2 -33 1 -25 -2z"/>
<path d="M4010 5181 c0 -13 29 -35 37 -28 7 8 -15 37 -28 37 -5 0 -9 -4 -9 -9z"/>
<path d="M4400 5166 c0 -8 -6 -14 -12 -13 -34 1 -58 -4 -58 -12 0 -13 62 -23
74 -11 12 12 16 50 4 50 -4 0 -8 -6 -8 -14z"/>
<path d="M4130 5160 c0 -5 4 -10 9 -10 6 0 13 5 16 10 3 6 -1 10 -9 10 -9 0
-16 -4 -16 -10z"/>
<path d="M4515 5140 c-3 -5 -1 -10 4 -10 6 0 11 5 11 10 0 6 -2 10 -4 10 -3 0
-8 -4 -11 -10z"/>
<path d="M8800 4808 c-14 -5 -74 -20 -135 -34 -267 -58 -393 -187 -346 -352 9
-30 7 -34 -28 -62 -44 -36 -130 -147 -161 -209 -72 -144 -139 -361 -111 -361
18 0 58 48 66 78 3 15 37 90 75 167 67 137 127 223 178 257 24 15 27 15 61 -3
75 -40 196 -14 284 62 88 76 134 184 147 348 5 58 6 109 2 112 -4 4 -18 3 -32
-3z m-310 -378 c0 -5 -2 -10 -4 -10 -3 0 -8 5 -11 10 -3 6 -1 10 4 10 6 0 11
-4 11 -10z"/>
<path d="M6774 4459 c-26 -9 -54 -46 -54 -71 0 -32 22 -67 51 -79 54 -22 109
21 109 85 0 50 -57 84 -106 65z m53 -15 c-3 -3 -12 -4 -19 -1 -8 3 -5 6 6 6
11 1 17 -2 13 -5z"/>
<path d="M7034 4082 c-20 -159 26 -314 117 -396 53 -47 102 -66 177 -66 49 0
50 -1 71 -45 36 -77 46 -173 32 -304 -7 -63 -23 -151 -36 -195 -36 -122 -102
-316 -110 -324 -4 -4 -5 81 -2 188 4 132 3 207 -5 233 -22 72 -93 126 -228
172 -36 13 -73 26 -83 30 -17 7 -18 3 -12 -66 18 -201 78 -299 203 -331 54
-13 63 -32 64 -142 0 -87 -13 -134 -102 -350 -22 -55 -38 -101 -36 -104 7 -7
67 91 136 223 35 66 81 144 103 173 21 30 49 75 63 100 31 61 90 271 105 374
15 100 7 262 -17 345 -17 61 -17 64 1 83 23 26 32 119 16 176 -14 53 -70 125
-124 162 -23 16 -106 49 -184 74 l-142 45 -7 -55z"/>
<path d="M8225 3561 c-86 -25 -118 -44 -169 -103 -86 -99 -206 -328 -222 -419
l-5 -34 28 32 c16 18 72 100 123 183 122 194 228 301 282 284 17 -5 24 10 19
40 -1 4 4 14 10 22 14 17 11 17 -66 -5z"/>
<path d="M8035 3049 c-67 -16 -103 -48 -142 -128 -21 -40 -48 -81 -62 -90 -14
-9 -51 -41 -83 -73 -60 -59 -138 -196 -145 -253 -3 -35 -4 -36 69 85 61 101
88 133 147 171 42 27 51 29 155 29 185 1 242 44 261 201 l7 56 -32 7 c-44 8
-126 6 -175 -5z"/>
<path d="M7000 2772 c-79 -24 -58 -152 25 -152 38 0 75 37 75 75 0 46 -57 90
-100 77z"/>
<path d="M7653 2433 c-29 -19 -29 -34 0 -61 30 -29 47 -13 46 43 0 30 -2 35
-8 20 -7 -17 -9 -17 -12 -4 -4 15 -6 15 -26 2z"/>
<path d="M6994 2308 c-26 -35 -51 -65 -54 -68 -15 -14 -96 -127 -103 -145 -16
-40 44 29 121 139 86 122 95 136 89 136 -2 0 -26 -28 -53 -62z"/>
<path d="M7528 2283 c-24 -6 -33 -47 -18 -83 21 -51 71 -51 89 1 12 35 1 73
-24 83 -18 6 -20 6 -47 -1z"/>
<path d="M7300 2030 c-24 -24 -25 -48 -4 -78 27 -40 94 -19 94 29 0 21 -42 69
-60 69 -5 0 -19 -9 -30 -20z"/>
<path d="M5255 1130 c3 -5 10 -10 16 -10 5 0 9 5 9 10 0 6 -7 10 -16 10 -8 0
-12 -4 -9 -10z"/>
<path d="M5185 1080 c-19 -8 -19 -9 3 -9 12 -1 22 4 22 9 0 6 -1 10 -2 9 -2 0
-12 -4 -23 -9z"/>
<path d="M5095 1060 c-8 -13 5 -13 25 0 13 8 13 10 -2 10 -9 0 -20 -4 -23 -10z"/>
<path d="M4970 999 c0 -5 5 -7 10 -4 6 3 10 8 10 11 0 2 -4 4 -10 4 -5 0 -10
-5 -10 -11z"/>
</g>
</svg>
